<svg width="396" height="363" viewBox="0 0 396 363" fill="none" xmlns="http://www.w3.org/2000/svg">
<g clip-path="url(#clip0_120_3040)">
<rect width="396" height="363" rx="18" fill="#EFF1F4"/>
<g clip-path="url(#clip1_120_3040)">
<path d="M139.737 147.725C152.757 140.535 168.962 141.978 182.991 146.894C197.019 151.809 209.732 159.862 223.355 165.818C264.986 184.02 315.161 181.085 354.407 158.153C358.119 166.827 354.137 176.749 349.763 185.105C345.389 193.462 340.404 202.519 342.205 211.786C344.509 223.644 356.884 230.754 361.898 241.736C366.658 252.16 364.104 264.403 360.452 275.269C356.8 286.136 352.061 297.084 352.682 308.536C353.302 319.988 361.584 332.098 373 332.107C356.082 334.748 338.831 337.391 321.923 334.685C305.015 331.978 288.196 322.994 280.345 307.708C276.421 300.068 274.909 291.283 270.402 283.974C262.726 271.525 247.996 265.67 234.097 261.258C220.198 256.846 205.324 252.595 195.538 241.742C186.214 231.401 183.26 216.996 178.32 203.955C170 182.125 155.549 163.192 136.723 149.456" fill="#55B2E5"/>
<path d="M154.823 93.5446C150.252 91.4085 144.64 90.7081 139.99 92.6932C135.339 94.6782 132.168 99.7662 133.672 104.269C134.354 106.311 135.907 108.318 135.302 110.38C134.836 111.967 133.212 113.015 131.616 113.76C130.021 114.505 128.276 115.131 127.122 116.388C125.968 117.645 125.727 119.808 127.169 120.782C127.644 121.103 128.237 121.256 128.698 121.594C129.09 121.914 129.373 122.35 129.508 122.839C129.642 123.329 129.621 123.849 129.447 124.326C129.064 125.286 128.429 126.124 127.611 126.752C125.975 128.17 123.813 129.793 124.321 131.805C124.509 132.343 124.824 132.827 125.239 133.216C125.653 133.606 126.155 133.889 126.702 134.042C127.837 134.371 129.015 134.527 130.197 134.506L178.478 136.034C180.071 136.154 181.674 136.064 183.244 135.766C184.008 135.626 184.734 135.33 185.378 134.895C186.023 134.46 186.571 133.897 186.988 133.24C187.913 131.52 187.306 129.402 186.164 127.797C185.022 126.191 183.406 124.925 182.071 123.451C180.736 121.976 179.643 120.136 179.879 118.231C180.067 116.706 181.068 115.387 181.787 114.001C182.506 112.616 182.923 110.884 181.992 109.609C180.681 107.812 177.531 107.975 176.04 106.301C174.914 105.037 175.131 103.219 175.02 101.589C174.75 97.6707 172.05 93.9698 168.206 92.2512C166.251 91.4082 164.124 91.0443 162.002 91.1895C159.88 91.3347 157.822 91.9849 155.999 93.0864L154.823 93.5446Z" fill="#2F2E41"/>
<path d="M124.313 339.515L116.752 337.233L121.916 306.844L133.077 310.213L124.313 339.515Z" fill="#FFB8B8"/>
<path d="M124.04 347.461L99.6573 340.102L99.75 339.792C100.124 338.54 100.741 337.374 101.563 336.361C102.386 335.348 103.4 334.508 104.546 333.889C105.692 333.269 106.948 332.883 108.243 332.751C109.537 332.62 110.845 332.746 112.091 333.122L112.092 333.122L126.984 337.617L124.04 347.461Z" fill="#2F2E41"/>
<path d="M195.67 339.772L187.774 339.772L184.018 309.175L195.671 309.175L195.67 339.772Z" fill="#FFB8B8"/>
<path d="M197.684 347.461L172.225 347.46V347.137C172.225 345.83 172.481 344.535 172.979 343.327C173.477 342.119 174.207 341.022 175.127 340.097C176.047 339.173 177.14 338.44 178.342 337.939C179.544 337.439 180.833 337.182 182.134 337.182H182.135L197.684 337.182L197.684 347.461Z" fill="#2F2E41"/>
<path d="M184.709 316.63C184.02 316.63 183.354 316.383 182.83 315.934C182.305 315.485 181.958 314.863 181.849 314.179L170.125 240.706C170.047 240.22 169.814 239.772 169.46 239.431C169.106 239.089 168.651 238.873 168.163 238.816C167.676 238.758 167.183 238.862 166.76 239.111C166.337 239.36 166.006 239.741 165.818 240.196L135.444 313.657C135.161 314.335 134.634 314.881 133.968 315.186C133.302 315.491 132.547 315.533 131.851 315.303L120.881 311.628C120.198 311.402 119.623 310.928 119.27 310.298C118.917 309.668 118.81 308.929 118.97 308.225L143.862 197.569C143.983 197.036 144.251 196.548 144.635 196.16C145.019 195.772 145.503 195.5 146.033 195.375L179.415 187.589C179.825 187.496 180.251 187.492 180.663 187.578C181.075 187.664 181.463 187.837 181.803 188.087C203.784 204.133 201.927 256.557 197.83 313.48C197.779 314.192 197.469 314.861 196.959 315.359C196.449 315.857 195.775 316.149 195.064 316.18L184.836 316.628C184.794 316.629 184.751 316.63 184.709 316.63Z" fill="#2F2E41"/>
<path d="M156.609 135.658C165.345 135.658 172.427 128.543 172.427 119.766C172.427 110.989 165.345 103.874 156.609 103.874C147.873 103.874 140.791 110.989 140.791 119.766C140.791 128.543 147.873 135.658 156.609 135.658Z" fill="#FFB8B8"/>
<path d="M157.292 202.131C153.495 202.106 149.75 201.237 146.328 199.585L146.21 199.53L146.163 199.408L131.976 162.478L131.706 156.062C131.616 153.916 131.973 151.775 132.757 149.776C133.54 147.778 134.731 145.967 136.253 144.459C137.775 142.951 139.595 141.78 141.595 141.021C143.595 140.263 145.731 139.933 147.865 140.054L162.927 140.906C166.818 141.129 170.479 142.832 173.163 145.67C175.848 148.508 177.355 152.268 177.377 156.183C177.769 156.938 180.547 162.842 175.102 168.389C174.899 169.652 172.994 182.784 180.181 190.005L180.383 190.208L180.207 190.433C180.092 190.58 170.862 202.129 157.292 202.131Z" fill="#3F3D56"/>
<path d="M178.443 204.917C179.334 204.593 180.142 204.076 180.812 203.404C181.482 202.732 181.997 201.921 182.321 201.027C182.645 200.133 182.77 199.179 182.687 198.231C182.605 197.284 182.316 196.366 181.842 195.543L196.886 178.045L185.026 176.494L172.559 193.348C171.235 194.24 170.282 195.588 169.882 197.138C169.481 198.688 169.661 200.332 170.386 201.758C171.112 203.184 172.333 204.293 173.818 204.876C175.302 205.458 176.948 205.472 178.443 204.917Z" fill="#FFB8B8"/>
<path d="M187.849 191.411C187.284 191.411 186.731 191.245 186.259 190.932L178.818 186.03C178.193 185.619 177.75 184.982 177.582 184.25C177.414 183.519 177.534 182.75 177.917 182.106L183.304 173.014C183.595 172.522 183.78 171.974 183.845 171.405C183.911 170.837 183.856 170.261 183.684 169.715C183.513 169.169 183.228 168.666 182.849 168.239C182.47 167.811 182.005 167.469 181.485 167.235L166.01 160.265C164.107 159.397 162.554 157.905 161.605 156.035C160.656 154.164 160.367 152.025 160.786 149.968C161.075 148.58 161.679 147.279 162.551 146.164C163.423 145.05 164.538 144.152 165.812 143.542C167.085 142.931 168.481 142.624 169.892 142.644C171.302 142.664 172.689 143.01 173.945 143.657L197.421 155.742C199.005 156.558 200.395 157.707 201.495 159.112C202.596 160.517 203.381 162.145 203.797 163.883C204.213 165.621 204.251 167.429 203.907 169.183C203.563 170.937 202.845 172.596 201.804 174.046L190.198 190.202C189.931 190.577 189.578 190.882 189.169 191.092C188.76 191.302 188.308 191.412 187.849 191.411Z" fill="#3F3D56"/>
<path d="M140.427 117.507C145.422 117.104 149.569 112.091 149.05 107.083C148.991 109.147 149.69 111.161 151.013 112.741C152.336 114.321 154.191 115.358 156.225 115.654C158.517 115.907 161.029 115.211 163.023 116.372C165.232 117.658 165.939 120.782 168.24 121.893C170.464 122.966 173.288 121.502 174.387 119.283C175.485 117.064 175.216 114.398 174.488 112.03C173.449 108.653 171.559 105.603 169 103.178C166.441 100.752 163.301 99.0333 159.885 98.1882C156.469 97.3431 152.893 97.4005 149.506 98.3549C146.118 99.3094 143.034 101.128 140.554 103.635C138.453 105.757 136.786 108.463 136.515 111.443C136.245 114.424 137.621 117.658 140.285 118.997L140.427 117.507Z" fill="#2F2E41"/>
<path d="M103.626 73.487C104.459 73.9384 105.184 74.5678 105.749 75.331C106.314 76.0942 106.706 76.9726 106.897 77.9043C107.087 78.836 107.072 79.7984 106.852 80.7236C106.633 81.6489 106.214 82.5145 105.625 83.2595L117.964 102.777L106.006 102.571L96.1225 84.0685C94.9423 82.9921 94.196 81.5181 94.0253 79.9259C93.8545 78.3337 94.2711 76.7338 95.196 75.4295C96.1209 74.1252 97.4899 73.2071 99.0435 72.849C100.597 72.491 102.228 72.718 103.626 73.487V73.487Z" fill="#FFB8B8"/>
<path d="M113.572 87.3843L129.462 125.107L146.122 153.488C146.826 154.687 147.249 156.03 147.36 157.416C147.471 158.802 147.267 160.196 146.763 161.492C146.259 162.787 145.469 163.951 144.452 164.895C143.435 165.839 142.218 166.538 140.893 166.94C138.791 167.567 136.535 167.418 134.533 166.52C132.531 165.621 130.914 164.034 129.976 162.043L97.8662 93.1134C97.6918 92.7389 97.5987 92.3314 97.5933 91.918C97.5878 91.5046 97.67 91.0947 97.8345 90.7157C97.999 90.3368 98.242 89.9973 98.5472 89.72C98.8524 89.4426 99.2129 89.2338 99.6047 89.1073L110.016 85.7473C110.213 85.6835 110.417 85.6407 110.623 85.6196C111.238 85.5573 111.856 85.6951 112.387 86.0129C112.918 86.3306 113.333 86.8114 113.572 87.3843Z" fill="#3F3D56"/>
<path d="M160.04 7.01678V60.073C160.04 60.2446 159.972 60.4092 159.851 60.5305C159.73 60.6519 159.567 60.72 159.396 60.72C159.225 60.72 159.061 60.6519 158.94 60.5305C158.82 60.4092 158.752 60.2446 158.752 60.073V7.01678C158.752 6.84518 158.82 6.68061 158.94 6.55927C159.061 6.43793 159.225 6.36975 159.396 6.36975C159.567 6.36975 159.73 6.43793 159.851 6.55927C159.972 6.68061 160.04 6.84518 160.04 7.01678Z" fill="#A4A5BB"/>
<path d="M215.958 52.0271L197.742 70.3278C197.621 70.4486 197.458 70.5164 197.287 70.5162C197.116 70.5161 196.953 70.4479 196.832 70.3267C196.712 70.2056 196.644 70.0413 196.644 69.8699C196.643 69.6986 196.711 69.5342 196.831 69.4127L215.047 51.112C215.107 51.0517 215.178 51.0039 215.256 50.9712C215.334 50.9385 215.418 50.9216 215.503 50.9215C215.588 50.9214 215.672 50.9381 215.75 50.9706C215.828 51.0031 215.899 51.0508 215.959 51.111C216.019 51.1712 216.066 51.2426 216.099 51.3213C216.131 51.3999 216.148 51.4842 216.148 51.5693C216.148 51.6544 216.131 51.7386 216.098 51.8171C216.066 51.8957 216.018 51.967 215.958 52.0271Z" fill="#A4A5BB"/>
<path d="M102.833 52.0271L121.049 70.3278C121.17 70.4491 121.334 70.5173 121.504 70.5173C121.675 70.5173 121.839 70.4491 121.96 70.3278C122.081 70.2064 122.148 70.0419 122.148 69.8703C122.148 69.6987 122.081 69.5341 121.96 69.4127L103.744 51.112C103.684 51.0517 103.613 51.0039 103.535 50.9712C103.457 50.9385 103.373 50.9216 103.288 50.9215C103.204 50.9214 103.12 50.9381 103.041 50.9706C102.963 51.0031 102.892 51.0508 102.832 51.111C102.772 51.1712 102.725 51.2426 102.692 51.3213C102.66 51.3999 102.643 51.4842 102.643 51.5693C102.644 51.6544 102.66 51.7386 102.693 51.8171C102.725 51.8957 102.773 51.967 102.833 52.0271Z" fill="#A4A5BB"/>
<path d="M286.167 52.9887C286.284 50.742 289.166 49.9052 290.465 51.7407L295.897 59.4145C296.47 60.2242 297.486 60.5911 298.443 60.3343L307.514 57.9001C309.684 57.3178 311.369 59.8046 310.028 61.6093L304.42 69.1543C303.828 69.9504 303.793 71.0313 304.333 71.8637L309.448 79.7527C310.671 81.6397 308.83 84.0133 306.702 83.2932L297.805 80.2825C296.866 79.9648 295.829 80.2659 295.205 81.0372L289.295 88.3471C287.881 90.0955 285.058 89.0757 285.084 86.826L285.194 77.4203C285.205 76.4278 284.599 75.533 283.674 75.1773L274.906 71.806C272.809 70.9997 272.905 67.9958 275.049 67.3255L284.015 64.5231C284.96 64.2274 285.623 63.3734 285.675 62.3822L286.167 52.9887Z" fill="#E0E0E6"/>
<path d="M75.218 193.78C75.8191 192.864 77.2363 193.222 77.3318 194.314L77.7312 198.878C77.7734 199.359 78.1103 199.764 78.5758 199.892L82.9874 201.103C84.0426 201.392 84.1405 202.853 83.1335 203.281L78.9231 205.072C78.4788 205.261 78.1989 205.707 78.2214 206.19L78.4349 210.766C78.4859 211.861 77.1293 212.405 76.4113 211.578L73.4098 208.121C73.0931 207.756 72.5832 207.628 72.1316 207.798L67.8519 209.416C66.8282 209.803 65.8919 208.679 66.4552 207.739L68.8105 203.812C69.0591 203.397 69.0238 202.872 68.7222 202.494L65.8638 198.918C65.1801 198.062 65.958 196.823 67.0241 197.069L71.4813 198.099C71.9516 198.208 72.4398 198.012 72.7049 197.608L75.218 193.78Z" fill="#E0E0E6"/>
<path d="M79.7146 54.189C80.2744 53.669 81.1745 54.1479 81.0572 54.9032L80.5667 58.061C80.5149 58.3942 80.6757 58.7243 80.9696 58.8885L83.7557 60.4443C84.4221 60.8164 84.2449 61.8219 83.4914 61.9441L80.3411 62.455C80.0087 62.5089 79.7447 62.7642 79.6795 63.095L79.0609 66.2303C78.9129 66.9802 77.9033 67.1229 77.5549 66.4431L76.0984 63.601C75.9447 63.3011 75.6208 63.1288 75.2865 63.1691L72.1181 63.551C71.3603 63.6424 70.9135 62.725 71.4517 62.1827L73.7019 59.9153C73.9393 59.6761 74.0031 59.3142 73.8617 59.0083L72.5221 56.1091C72.2017 55.4156 72.9352 54.706 73.6162 55.0506L76.4634 56.4914C76.7638 56.6434 77.1271 56.5921 77.3741 56.3627L79.7146 54.189Z" fill="#E0E0E6"/>
<path d="M40.2397 23.7072C41.0287 23.25 41.9506 24.0467 41.6148 24.8954L40.2108 28.4438C40.0626 28.8183 40.1628 29.2455 40.4618 29.5147L43.296 32.0664C43.9738 32.6767 43.5023 33.8011 42.5926 33.7435L38.7893 33.5026C38.3879 33.4772 38.0132 33.7046 37.85 34.0726L36.3028 37.5608C35.9327 38.3951 34.7193 38.2934 34.4929 37.409L33.5464 33.7117C33.4465 33.3216 33.1148 33.035 32.7148 32.9932L28.9245 32.5973C28.0179 32.5026 27.7395 31.3154 28.5093 30.8264L31.7276 28.7823C32.0672 28.5666 32.2369 28.162 32.153 27.7681L31.3576 24.0353C31.1674 23.1424 32.2087 22.5104 32.9109 23.0926L35.8465 25.5265C36.1562 25.7833 36.5928 25.82 36.9409 25.6183L40.2397 23.7072Z" fill="#E0E0E6"/>
<path d="M329.566 34.8436C329.878 34.1394 330.902 34.2246 331.093 34.9707L331.894 38.0898C331.978 38.4189 332.258 38.6606 332.596 38.6956L335.794 39.0276C336.559 39.107 336.795 40.1086 336.146 40.5215L333.431 42.2481C333.145 42.4302 333.002 42.7717 333.073 43.104L333.746 46.2532C333.907 47.0064 333.029 47.5402 332.436 47.0494L329.958 44.9974C329.696 44.7809 329.328 44.7502 329.034 44.9205L326.252 46.5349C325.586 46.921 324.808 46.2493 325.091 45.533L326.274 42.5383C326.398 42.2223 326.314 41.8619 326.061 41.6349L323.669 39.4834C323.096 38.9688 323.494 38.0198 324.261 38.068L327.47 38.2691C327.809 38.2904 328.125 38.0983 328.263 37.7876L329.566 34.8436Z" fill="#E0E0E6"/>
</g>
</g>
<defs>
<clipPath id="clip0_120_3040">
<rect width="396" height="363" rx="18" fill="white"/>
</clipPath>
<clipPath id="clip1_120_3040">
<rect width="598" height="411" fill="white" transform="translate(-225 -63)"/>
</clipPath>
</defs>
</svg>
