<svg width="1409" height="110" viewBox="0 0 1409 110" fill="none" xmlns="http://www.w3.org/2000/svg">
<path fill-rule="evenodd" clip-rule="evenodd" d="M100.819 55C100.819 66.6762 98.5933 76.6096 94.1429 84.8004C89.7275 92.9911 83.7001 99.2475 76.0607 103.569C68.4564 107.856 59.9059 110 50.4093 110C40.8426 110 32.257 107.839 24.6527 103.517C17.0484 99.1952 11.0385 92.9389 6.62312 84.7481C2.20771 76.5574 0 66.6413 0 55C0 43.3238 2.20771 33.3904 6.62312 25.1996C11.0385 17.0089 17.0484 10.77 24.6527 6.48289C32.257 2.16097 40.8426 0 50.4093 0C59.9059 0 68.4564 2.16097 76.0607 6.48289C83.7001 10.77 89.7275 17.0089 94.1429 25.1996C98.5933 33.3904 100.819 43.3238 100.819 55ZM77.7428 55C77.7428 47.4366 76.6039 41.0583 74.3261 35.865C72.0834 30.6717 68.912 26.7332 64.8119 24.0494C60.7119 21.3657 55.911 20.0238 50.4093 20.0238C44.9075 20.0238 40.1067 21.3657 36.0066 24.0494C31.9066 26.7332 28.7177 30.6717 26.4399 35.865C24.1972 41.0583 23.0758 47.4366 23.0758 55C23.0758 62.5634 24.1972 68.9417 26.4399 74.135C28.7177 79.3283 31.9066 83.2668 36.0066 85.9506C40.1067 88.6343 44.9075 89.9762 50.4093 89.9762C55.911 89.9762 60.7119 88.6343 64.8119 85.9506C68.912 83.2668 72.0834 79.3283 74.3261 74.135C76.6039 68.9417 77.7428 62.5634 77.7428 55ZM107.317 1.46388H178.752V20.1283H130.077V41.0409H147.581C156.097 41.0409 163.438 42.4176 169.606 45.1711C175.809 47.8897 180.592 51.7411 183.956 56.7253C187.32 61.7094 189.002 67.5824 189.002 74.3441C189.002 81.071 187.32 87.0136 183.956 92.1721C180.592 97.2956 175.809 101.304 169.606 104.197C163.438 107.09 156.097 108.536 147.581 108.536H107.317V1.46388ZM130.077 90.3422H147.581C151.646 90.3422 155.081 89.6103 157.884 88.1464C160.688 86.6477 162.808 84.6784 164.244 82.2386C165.716 79.7639 166.452 77.0627 166.452 74.135C166.452 69.8828 164.823 66.2928 161.564 63.365C158.34 60.4024 153.679 58.9211 147.581 58.9211H130.077V90.3422ZM306.786 85.5846C312.428 77.603 316.231 67.8961 318.193 56.4639C320.155 44.5786 319.56 34.436 316.406 26.0361C313.287 17.6014 308.188 11.1534 301.11 6.69202C294.066 2.23067 285.691 0 275.984 0C266.627 0 257.884 2.10868 249.754 6.32605C241.624 10.5086 234.738 16.608 229.096 24.6245C223.454 32.6062 219.687 42.3305 217.795 53.7975C215.833 65.648 216.428 75.7731 219.582 84.173C222.736 92.538 227.835 98.9338 234.878 103.36C241.957 107.787 250.385 110 260.162 110C269.483 110 278.174 107.926 286.234 103.779C294.329 99.6309 301.18 93.5662 306.786 85.5846ZM333.838 1.46388H376.31C384.44 1.46388 391.115 3.01489 396.337 6.11692C401.593 9.1841 405.273 13.4537 407.375 18.9259C409.513 24.3631 410.004 30.6369 408.847 37.7472C407.656 44.8923 405.063 51.1835 401.068 56.6207C397.108 62.0231 391.956 66.2405 385.614 69.2728C379.271 72.3051 371.947 73.8213 363.642 73.8213H344.557L338.726 108.536H315.966L333.838 1.46388ZM362.958 55.6797H347.604L353.602 19.9715H368.951C373.331 19.9715 376.818 20.7209 379.411 22.2196C382.039 23.6835 383.844 25.7399 384.825 28.3888C385.806 31.0377 385.999 34.1572 385.403 37.7472C384.843 41.2674 383.634 44.3869 381.776 47.1055C379.919 49.7893 377.414 51.898 374.26 53.4316C371.141 54.9303 367.374 55.6797 362.958 55.6797ZM487.596 20.1283L490.749 1.46388H419.314L401.442 108.536H424.203L438.921 20.1283H487.596ZM482.49 108.536H458.101L513.136 1.46388H542.466L561.705 108.536H537.315L533.447 84.1207H494.578L482.49 108.536ZM524.227 25.9316L530.647 66.4496H503.326L523.386 25.9316H524.227ZM604.933 1.46388H582.173L564.301 108.536H587.061L594.42 64.3061H640.624L633.265 108.536H655.973L673.845 1.46388H651.137L643.778 45.6416H597.574L604.933 1.46388ZM682.249 1.46388H704.957L693.708 68.8023H694.654L752.37 1.46388H772.292L754.42 108.536H731.659L742.908 41.1454H742.12L684.089 108.536H664.377L682.249 1.46388ZM782.154 105.974C787.972 108.658 794.91 110 802.97 110C810.89 110 818.091 108.71 824.574 106.131C831.057 103.552 836.401 99.9794 840.606 95.4135C844.811 90.8476 847.387 85.602 848.333 79.6768C849.454 72.8454 848.158 67.0421 844.443 62.2671C840.764 57.4921 835.297 54.6166 828.043 53.6407V52.8565C834.526 51.8108 839.94 49.5105 844.286 45.9553C848.666 42.3653 851.364 37.5032 852.381 31.3688C853.292 25.7921 852.556 20.6337 850.173 15.8935C847.825 11.1185 844.04 7.28454 838.819 4.39164C833.598 1.46388 827.185 0 819.58 0C812.432 0 805.773 1.34189 799.606 4.02567C793.473 6.67459 788.34 10.3517 784.205 15.057C780.104 19.7624 777.511 25.1996 776.425 31.3688H798.134C798.59 28.6502 799.834 26.2801 801.866 24.2586C803.899 22.237 806.387 20.686 809.33 19.6055C812.274 18.4902 815.305 17.9325 818.424 17.9325C821.508 17.9325 824.013 18.4553 825.941 19.5009C827.903 20.5117 829.27 21.9582 830.041 23.8403C830.847 25.6876 831.039 27.8485 830.619 30.3232C830.128 33.3555 828.919 36.0219 826.992 38.3222C825.065 40.6226 822.629 42.4176 819.685 43.7072C816.777 44.9968 813.57 45.6416 810.066 45.6416H800.605L797.819 62.2671H808.279C812.274 62.2671 815.621 62.8074 818.319 63.8878C821.017 64.9683 822.98 66.5193 824.206 68.5409C825.433 70.5276 825.818 72.9325 825.362 75.7557C824.907 78.7183 823.663 81.3847 821.63 83.7547C819.633 86.09 817.11 87.9373 814.061 89.2966C811.012 90.6559 807.683 91.3356 804.074 91.3356C800.85 91.3356 798.047 90.7953 795.664 89.7148C793.316 88.6343 791.546 87.1008 790.355 85.1141C789.198 83.1274 788.795 80.8444 789.146 78.2652H766.543C765.562 84.5041 766.455 90.0111 769.224 94.7861C772.027 99.5612 776.337 103.291 782.154 105.974ZM868.63 108.536H844.24L899.275 1.46388H928.606L947.844 108.536H923.455L919.586 84.1207H880.717L868.63 108.536ZM910.366 25.9316L916.786 66.4496H889.466L909.525 25.9316H910.366ZM951.058 1.46388L947.904 20.1283H980.862L966.144 108.536H988.641L1003.36 20.1283H1036.32L1039.47 1.46388H951.058ZM1128.54 56.4639C1126.57 67.8961 1122.77 77.603 1117.13 85.5846C1111.52 93.5662 1104.67 99.6309 1096.58 103.779C1088.52 107.926 1079.83 110 1070.5 110C1060.73 110 1052.3 107.787 1045.22 103.36C1038.18 98.9338 1033.08 92.538 1029.92 84.173C1026.77 75.7731 1026.17 65.648 1028.14 53.7975C1030.03 42.3305 1033.8 32.6062 1039.44 24.6245C1045.08 16.608 1051.97 10.5086 1060.1 6.32605C1068.23 2.10868 1076.97 0 1086.33 0C1096.03 0 1104.41 2.23067 1111.45 6.69202C1118.53 11.1534 1123.63 17.6014 1126.75 26.0361C1129.9 34.436 1130.5 44.5786 1128.54 56.4639ZM1105.88 53.7975C1107.11 46.4433 1107.05 40.2741 1105.72 35.2899C1104.43 30.2709 1102.04 26.4718 1098.57 23.8926C1095.1 21.3134 1090.72 20.0238 1085.43 20.0238C1079.69 20.0238 1074.41 21.4528 1069.61 24.3108C1064.84 27.1689 1060.81 31.3165 1057.52 36.7538C1054.26 42.1562 1052 48.7262 1050.74 56.4639C1049.48 63.853 1049.51 70.0222 1050.84 74.9715C1052.21 79.9208 1054.65 83.6676 1058.15 86.212C1061.69 88.7215 1066.09 89.9762 1071.35 89.9762C1077.06 89.9762 1082.28 88.5821 1087.01 85.7937C1091.78 82.9705 1095.79 78.8752 1099.05 73.5076C1102.31 68.1052 1104.58 61.5352 1105.88 53.7975ZM1186.65 1.46388H1144.18L1126.31 108.536H1149.07L1154.9 73.8213H1173.98C1182.29 73.8213 1189.61 72.3051 1195.96 69.2728C1202.3 66.2405 1207.45 62.0231 1211.41 56.6207C1215.4 51.1835 1218 44.8923 1219.19 37.7472C1220.35 30.6369 1219.86 24.3631 1217.72 18.9259C1215.61 13.4537 1211.94 9.1841 1206.68 6.11692C1201.46 3.01489 1194.78 1.46388 1186.65 1.46388ZM1157.95 55.6797H1173.3C1177.72 55.6797 1181.48 54.9303 1184.6 53.4316C1187.76 51.898 1190.26 49.7893 1192.12 47.1055C1193.98 44.3869 1195.18 41.2674 1195.75 37.7472C1196.34 34.1572 1196.15 31.0377 1195.17 28.3888C1194.19 25.7399 1192.38 23.6835 1189.75 22.2196C1187.16 20.7209 1183.67 19.9715 1179.29 19.9715H1163.94L1157.95 55.6797ZM1217.91 108.536H1193.52L1248.55 1.46388H1277.88L1296.66 105.976L1337.35 55L1313.12 1.46388H1338.2L1353.75 37.9563H1354.6L1382.56 1.46388H1409L1367.32 55L1391.86 108.536H1366.16L1350.18 71.9915H1349.34L1321.16 108.536H1297.12H1294.62H1272.73L1268.86 84.1207H1230L1217.91 108.536ZM1259.64 25.9316L1266.06 66.4496H1238.74L1258.8 25.9316H1259.64ZM315 54C315 79.4051 294.405 100 269 100C243.595 100 223 79.4051 223 54C223 28.5949 243.595 8 269 8C294.405 8 315 28.5949 315 54Z" fill="#21222E"/>
</svg>
