<svg id="Layer_1" data-name="Layer 1" xmlns="http://www.w3.org/2000/svg" viewBox="0 0 24 25"><path d="M16.8,21.53a4,4,0,0,1-.77-.08,16.48,16.48,0,0,1-8.32-4.66A16.48,16.48,0,0,1,3.05,8.47a4,4,0,0,1,1-3.54l.66-.65a2.8,2.8,0,0,1,3.88,0L9.82,5.45a2.25,2.25,0,0,1,.65,1.63,2.44,2.44,0,0,1-.74,1.64l-.82.82a11.72,11.72,0,0,0,2.48,3.57h0A11.85,11.85,0,0,0,15,15.6l.89-.92a2.31,2.31,0,0,1,3.19,0l1.17,1.18a2.76,2.76,0,0,1,0,3.89l-.65.65A3.91,3.91,0,0,1,16.8,21.53ZM6.7,5a1.22,1.22,0,0,0-.88.37L5.16,6a2.49,2.49,0,0,0-.64,2.2,14.81,14.81,0,0,0,4.26,7.53A14.89,14.89,0,0,0,16.31,20a2.49,2.49,0,0,0,2.2-.64l.65-.66a1.24,1.24,0,0,0,0-1.76L18,15.74a.77.77,0,0,0-1.06,0l-.91.91a1.51,1.51,0,0,1-1.66.32,13.36,13.36,0,0,1-4-2.8,13.36,13.36,0,0,1-2.8-4,1.53,1.53,0,0,1,.32-1.66l.82-.82A.94.94,0,0,0,9,7a.75.75,0,0,0-.21-.52L7.58,5.34A1.22,1.22,0,0,0,6.7,5Z"/></svg>