<svg width="20" height="20" viewBox="0 0 20 20" fill="none" xmlns="http://www.w3.org/2000/svg">
<path d="M12.2516 12.2513C12.4183 11.7511 12.585 11.2509 12.7518 10.7506C13.8356 6.66561 13.5021 2.91405 12.0015 2.58057C11.3345 2.4972 10.6676 2.74731 10.2507 3.33089" stroke="#323232" stroke-linecap="round" stroke-linejoin="round"/>
<path d="M9.7504 16.6694C9.33356 17.253 8.66662 17.5031 7.99967 17.4197C6.49905 17.0029 6.16557 13.3347 7.24936 9.24965C7.4161 8.74944 7.58283 8.16586 7.74957 7.74902" stroke="#323232" stroke-linecap="round" stroke-linejoin="round"/>
<path d="M9.16675 13.0851C9.66696 13.0018 10.1672 12.835 10.7507 12.7517C14.8358 11.6679 17.9204 9.5003 17.5036 7.99967C17.3368 7.4161 16.7532 7.08262 15.9196 6.83252" stroke="#323232" stroke-linecap="round" stroke-linejoin="round"/>
<path d="M4.08114 13.1681C3.24746 12.918 2.66388 12.5846 2.49715 12.001C2.08031 10.5004 5.08156 8.33278 9.24996 7.249C9.75017 7.08226 10.3337 6.9989 10.834 6.91553" stroke="#323232" stroke-linecap="round" stroke-linejoin="round"/>
<path d="M6.91577 10.834C7.24924 11.2508 7.58272 11.5843 7.99956 12.0011C11.0008 15.0024 14.3355 16.5864 15.5027 15.4192C15.9195 14.8357 16.0029 14.0853 15.7528 13.5018" stroke="#323232" stroke-linecap="round" stroke-linejoin="round"/>
<path d="M4.3317 6.4989C4.0816 5.83196 4.16496 5.08164 4.49844 4.49807C5.58222 3.41428 9.00031 4.91491 12.0016 7.91616C12.4184 8.333 12.7519 8.66647 13.0853 9.08331" stroke="#323232" stroke-linecap="round" stroke-linejoin="round"/>
<path d="M10.0001 10.0837C10.0835 10.0837 10.0835 10.0003 10.0835 10.0003L10.0001 9.91697L9.91672 10.0003C9.91672 10.0003 9.91672 10.0837 10.0001 10.0837" stroke="#323232" stroke-linecap="round" stroke-linejoin="round"/>
</svg>
