<svg width="14" height="9" viewBox="0 0 14 9" fill="none" xmlns="http://www.w3.org/2000/svg">
<path d="M13.8799 8.13966C13.3485 7.14814 11.9795 5.95673 11.4143 5.43829C11.2597 5.29634 11.2431 5.05076 11.3839 4.89378C12.4624 3.69226 13.3251 2.31168 13.622 1.47745C13.753 1.10893 13.4818 0.719556 13.0997 0.719556H11.9898C11.624 0.719556 11.4099 0.855682 11.3079 1.07244C10.4115 2.97668 9.64259 3.80079 9.10435 4.28244C8.803 4.55224 8.33307 4.32874 8.33307 3.91821C8.33307 3.12721 8.33307 2.10473 8.33307 1.37965C8.33307 1.02799 8.05567 0.74347 7.71351 0.74347L5.68594 0.719556C5.43072 0.719556 5.28493 1.01909 5.43812 1.22911L5.77289 1.72732C5.89887 1.89993 5.96689 2.10994 5.96689 2.32548L5.96512 4.56911C5.96512 4.9594 5.5088 5.15009 5.2379 4.87662C4.32142 3.95133 3.52619 2.06181 3.23991 1.15829C3.15711 0.896765 2.92082 0.720169 2.65288 0.719556L1.55954 0.716797C1.14936 0.716797 0.849482 1.11996 0.960974 1.52589C1.95997 5.16113 4.00971 8.61947 7.66264 8.99443C8.02255 9.03122 8.33307 8.73076 8.33307 8.35887V7.17972C8.33307 6.84155 8.58889 6.55091 8.91774 6.54232C8.92928 6.54202 8.94081 6.54202 8.95234 6.54202C9.91851 6.54202 11.0006 7.99985 11.3792 8.68171C11.488 8.87793 11.6914 8.9975 11.9115 8.9975H13.3822C13.8113 8.9975 14.0866 8.52566 13.8799 8.13966Z" fill="#A4A5BB"/>
</svg>
