<svg width="14" height="14" viewBox="0 0 14 14" fill="none" xmlns="http://www.w3.org/2000/svg">
<path d="M7.03796 0.351074C3.45526 0.351074 0.538719 3.26482 0.537417 6.84717C0.536766 7.99227 0.836724 9.11017 1.40543 10.0952L0.523438 13.3636L3.92812 12.5592C4.87748 13.0771 5.9462 13.349 7.03415 13.3496H7.03669C10.6187 13.3496 13.534 10.4352 13.536 6.85353C13.5373 5.117 12.8619 3.48432 11.6347 2.25594C10.4075 1.0282 8.77661 0.351725 7.03796 0.351074ZM7.03669 1.65233C8.42657 1.65298 9.73273 2.19482 10.7146 3.17596C11.6965 4.15841 12.2359 5.46382 12.2346 6.85226C12.2333 9.71761 9.90236 12.0484 7.03542 12.0484C6.16805 12.0477 5.30888 11.83 4.55212 11.4168L4.11367 11.1779L3.62947 11.2923L2.34842 11.5947L2.66106 10.4332L2.80212 9.91223L2.5327 9.44459C2.07852 8.65864 1.83815 7.76 1.8388 6.84717C1.8401 3.98311 4.1717 1.65233 7.03669 1.65233ZM4.73767 3.84819C4.62901 3.84819 4.45331 3.88886 4.3043 4.05151C4.15529 4.21352 3.73495 4.6059 3.73495 5.40487C3.73495 6.20384 4.31701 6.97615 4.39835 7.0848C4.47903 7.19281 5.52188 8.88419 7.17268 9.53482C8.54433 10.0755 8.82292 9.96879 9.12094 9.94146C9.41895 9.91478 10.0824 9.54943 10.2177 9.17011C10.353 8.7908 10.3534 8.46451 10.313 8.39749C10.2727 8.32983 10.1643 8.28948 10.0017 8.20815C9.83963 8.12682 9.04119 7.73479 8.89218 7.68079C8.74317 7.62679 8.63418 7.59946 8.52616 7.76212C8.41815 7.92477 8.10773 8.28949 8.01273 8.39749C7.91773 8.50615 7.82337 8.52076 7.6607 8.43943C7.49802 8.35745 6.97499 8.18553 6.35423 7.6325C5.87142 7.20243 5.54564 6.67181 5.45064 6.50915C5.35629 6.34715 5.44174 6.25816 5.52308 6.17748C5.59595 6.10461 5.68448 5.98783 5.76581 5.89284C5.8465 5.79784 5.87448 5.73017 5.92849 5.62216C5.98249 5.51416 5.95485 5.41884 5.91451 5.33752C5.87416 5.25619 5.55823 4.45425 5.41378 4.13284C5.2921 3.86283 5.16359 3.85656 5.04777 3.852C4.95342 3.8481 4.84569 3.84819 4.73767 3.84819Z" fill="#A4A5BB"/>
</svg>
