<svg width="59" height="59" viewBox="0 0 59 59" fill="none" xmlns="http://www.w3.org/2000/svg">
<g clip-path="url(#clip0_1189_41134)">
<path d="M50.9667 23.0792C47.9 23.0792 45.4083 25.1875 44.6417 27.9667H33.525C32.8542 26.8167 31.6083 26.05 30.2667 26.05C28.8292 26.05 27.5833 26.8167 27.0083 27.9667H13.6875C13.5917 27.4875 13.4 27.1042 13.2083 26.625L25.5708 15.2208C26.9125 16.1792 28.5417 16.7542 30.3625 16.7542C34.7708 16.7542 38.4125 13.1125 38.4125 8.70417C38.4125 4.29583 34.675 0.75 30.2667 0.75C25.8583 0.75 22.2167 4.39167 22.2167 8.8C22.2167 10.2375 22.6 11.5792 23.2708 12.7292L10.9083 24.1333C9.85417 23.4625 8.60833 22.9833 7.26667 22.9833C3.625 22.9833 0.75 25.9542 0.75 29.5C0.75 33.2375 3.72083 36.2083 7.26667 36.2083C10.3333 36.2083 12.825 34.1 13.5917 31.3208H26.7208C27.2958 32.6625 28.6375 33.6208 30.1708 33.6208C31.7042 33.6208 33.0458 32.6625 33.6208 31.3208H44.45C44.6417 31.8958 44.8333 32.4708 45.1208 32.95L33.9083 43.6833C32.5667 42.8208 31.0333 42.2458 29.3083 42.2458C24.9 42.2458 21.2583 45.8875 21.2583 50.2958C21.2583 54.7042 24.9 58.3458 29.3083 58.3458C33.7167 58.3458 37.3583 54.7042 37.3583 50.2958C37.3583 48.7625 36.8792 47.325 36.2083 46.175L47.7083 35.25C48.6667 35.825 49.8167 36.1125 50.9667 36.1125C54.6083 36.1125 57.4833 33.1417 57.4833 29.5958C57.4833 26.05 54.5125 23.0792 50.9667 23.0792ZM30.2667 4.10417C32.8542 4.10417 34.9625 6.2125 34.9625 8.8C34.9625 11.3875 32.8542 13.4958 30.2667 13.4958C27.6792 13.4958 25.5708 11.3875 25.5708 8.8C25.5708 6.2125 27.6792 4.10417 30.2667 4.10417ZM7.26667 32.8542C5.44583 32.8542 4.00833 31.4167 4.00833 29.5958C4.00833 27.775 5.44583 26.3375 7.26667 26.3375C9.0875 26.3375 10.525 27.775 10.525 29.5958C10.525 31.4167 9.0875 32.8542 7.26667 32.8542ZM30.2667 30.2667C29.9792 30.2667 29.7875 30.075 29.7875 29.7875C29.7875 29.5 29.9792 29.3083 30.2667 29.3083C30.5542 29.3083 30.7458 29.5 30.7458 29.7875C30.7458 30.075 30.5542 30.2667 30.2667 30.2667ZM29.4042 54.8958C26.8167 54.8958 24.7083 52.7875 24.7083 50.2C24.7083 47.6125 26.8167 45.5042 29.4042 45.5042C31.9917 45.5042 34.1 47.6125 34.1 50.2C34.1 52.7875 31.9917 54.8958 29.4042 54.8958ZM50.9667 32.8542C49.2417 32.8542 47.7083 31.4167 47.7083 29.5958C47.7083 27.8708 49.1458 26.3375 50.9667 26.3375C52.7875 26.3375 54.225 27.775 54.225 29.5958C54.1292 31.4167 52.6917 32.8542 50.9667 32.8542Z" fill="#21222E"/>
</g>
<defs>
<clipPath id="clip0_1189_41134">
<rect width="57.5" height="57.5" fill="white" transform="translate(0.75 0.75)"/>
</clipPath>
</defs>
</svg>
