<svg width="396" height="363" viewBox="0 0 396 363" fill="none" xmlns="http://www.w3.org/2000/svg">
<g clip-path="url(#clip0_122_457)">
<rect width="396" height="363" rx="18" fill="#EFF1F4"/>
<path d="M9.23556 300.632C10.9778 301.245 12.8484 301.398 14.6671 301.078C16.4858 300.757 18.1914 299.973 19.6195 298.802C23.2564 295.747 24.397 290.716 25.3245 286.057L28.0688 272.274L22.3234 276.233C18.1913 279.08 13.9665 282.018 11.1057 286.141C8.245 290.264 6.99695 295.893 9.29479 300.355" fill="#E0E0E6"/>
<path d="M10.1224 318.278C9.39922 313.006 8.65519 307.667 9.16366 302.338C9.61426 297.606 11.0571 292.985 13.9946 289.195C15.5537 287.187 17.451 285.466 19.601 284.111C20.1615 283.757 20.6775 284.646 20.1194 284.998C16.3992 287.351 13.5217 290.825 11.9018 294.919C10.1128 299.472 9.82552 304.435 10.1337 309.272C10.3199 312.196 10.7158 315.102 11.1133 318.004C11.1447 318.136 11.1251 318.274 11.0585 318.391C10.9918 318.509 10.8832 318.596 10.7545 318.636C10.6231 318.672 10.4831 318.654 10.3649 318.587C10.2466 318.52 10.1596 318.408 10.1227 318.277L10.1224 318.278Z" fill="white"/>
<path d="M15.3276 309.818C16.0747 310.955 17.1018 311.88 18.3098 312.504C19.5179 313.128 20.8662 313.43 22.2249 313.381C25.7174 313.215 28.6278 310.777 31.2475 308.462L38.9977 301.615L33.8685 301.369C30.1799 301.193 26.396 301.027 22.8827 302.166C19.3693 303.306 16.1292 306.044 15.4869 309.683" fill="#E0E0E6"/>
<path d="M8.07781 321.308C11.5593 315.144 15.5972 308.294 22.8129 306.104C24.8191 305.497 26.9227 305.28 29.0104 305.464C29.6685 305.521 29.5041 306.535 28.8474 306.479C25.3478 306.188 21.8549 307.113 18.9569 309.097C16.168 310.996 13.9965 313.637 12.1589 316.437C11.0331 318.153 10.0247 319.941 9.01633 321.726C8.69412 322.297 7.75185 321.885 8.07781 321.308Z" fill="white"/>
<path d="M251.058 191.18H98.2925V321.376H251.058V191.18Z" fill="white"/>
<path d="M251.501 321.82H97.8477V190.735H251.501V321.82ZM98.7358 320.931H250.613V191.624H98.7358V320.931Z" fill="#3F3D56"/>
<path d="M193.77 216.508H155.579V321.375H193.77V216.508Z" fill="#6C63FF"/>
<path d="M193.77 216.508H155.579V321.375H193.77V216.508Z" fill="#55B2E5"/>
<path opacity="0.2" d="M98.7358 200.733V221.857L251.057 231.616L250.608 205.551L98.7358 200.733Z" fill="black"/>
<path d="M259.94 179.183H89.4106V216.508H259.94V179.183Z" fill="white"/>
<path d="M260.384 216.952H88.9668V178.737H260.384V216.952ZM89.855 216.063H259.496V179.626H89.855V216.063Z" fill="#3F3D56"/>
<path d="M193.77 175.627H155.579V216.063H193.77V175.627Z" fill="#55B2E5"/>
<path d="M170.586 140.371C180.667 155.324 171.169 179.374 171.169 179.374C171.169 179.374 145.325 179.18 135.244 164.227C125.162 149.274 134.661 125.224 134.661 125.224C134.661 125.224 160.505 125.418 170.586 140.371Z" fill="#55B2E5"/>
<path d="M175.211 140.371C165.13 155.324 174.628 179.374 174.628 179.374C174.628 179.374 200.472 179.18 210.554 164.227C220.635 149.274 211.136 125.224 211.136 125.224C211.136 125.224 185.293 125.418 175.211 140.371Z" fill="#55B2E5"/>
<path d="M148.03 151.632C150.237 151.632 152.027 149.842 152.027 147.633C152.027 145.424 150.237 143.634 148.03 143.634C145.823 143.634 144.033 145.424 144.033 147.633C144.033 149.842 145.823 151.632 148.03 151.632Z" fill="#3F3D56"/>
<path d="M172.01 192.069C174.218 192.069 176.007 190.278 176.007 188.069C176.007 185.861 174.218 184.07 172.01 184.07C169.803 184.07 168.014 185.861 168.014 188.069C168.014 190.278 169.803 192.069 172.01 192.069Z" fill="#3F3D56"/>
<path d="M172.01 279.606C174.218 279.606 176.007 277.815 176.007 275.607C176.007 273.398 174.218 271.607 172.01 271.607C169.803 271.607 168.014 273.398 168.014 275.607C168.014 277.815 169.803 279.606 172.01 279.606Z" fill="#3F3D56"/>
<path d="M158.688 164.962C160.16 164.962 161.352 163.768 161.352 162.296C161.352 160.824 160.16 159.63 158.688 159.63C157.216 159.63 156.023 160.824 156.023 162.296C156.023 163.768 157.216 164.962 158.688 164.962Z" fill="#3F3D56"/>
<path d="M198.656 142.3C200.127 142.3 201.32 141.106 201.32 139.634C201.32 138.161 200.127 136.968 198.656 136.968C197.184 136.968 195.991 138.161 195.991 139.634C195.991 141.106 197.184 142.3 198.656 142.3Z" fill="#3F3D56"/>
<path d="M181.336 204.954C182.808 204.954 184.001 203.761 184.001 202.288C184.001 200.816 182.808 199.622 181.336 199.622C179.865 199.622 178.672 200.816 178.672 202.288C178.672 203.761 179.865 204.954 181.336 204.954Z" fill="#3F3D56"/>
<path d="M165.349 239.614C166.821 239.614 168.014 238.421 168.014 236.948C168.014 235.476 166.821 234.282 165.349 234.282C163.878 234.282 162.685 235.476 162.685 236.948C162.685 238.421 163.878 239.614 165.349 239.614Z" fill="#3F3D56"/>
<path d="M179.116 251.613C180.588 251.613 181.781 250.419 181.781 248.946C181.781 247.474 180.588 246.28 179.116 246.28C177.645 246.28 176.452 247.474 176.452 248.946C176.452 250.419 177.645 251.613 179.116 251.613Z" fill="#3F3D56"/>
<path d="M176.007 301.824C177.479 301.824 178.672 300.631 178.672 299.158C178.672 297.686 177.479 296.492 176.007 296.492C174.536 296.492 173.343 297.686 173.343 299.158C173.343 300.631 174.536 301.824 176.007 301.824Z" fill="#3F3D56"/>
<path d="M340.334 316.466L335.461 316.466L333.143 297.658L340.335 297.659L340.334 316.466Z" fill="#FFB7B7"/>
<path d="M341.577 321.194L325.864 321.193V320.995C325.864 319.372 326.508 317.815 327.655 316.667C328.802 315.52 330.358 314.875 331.98 314.875H331.98L341.577 314.875L341.577 321.194Z" fill="#2F2E41"/>
<path d="M352.236 316.466L357.11 316.466L359.428 297.658L352.235 297.659L352.236 316.466Z" fill="#FFB7B7"/>
<path d="M350.994 314.875L360.591 314.875H360.591C362.213 314.875 363.769 315.52 364.915 316.667C366.062 317.815 366.707 319.372 366.707 320.995V321.193L350.994 321.194L350.994 314.875Z" fill="#2F2E41"/>
<path d="M339.251 169.491C341.344 165.276 339.626 160.161 335.413 158.066C331.2 155.972 326.088 157.691 323.995 161.907C321.902 166.122 323.621 171.237 327.833 173.331C332.046 175.426 337.158 173.706 339.251 169.491Z" fill="#FFB7B7"/>
<path d="M325.351 224.328C325.351 224.328 322.662 235.542 324.006 240.924C325.351 246.307 329.386 283.089 329.386 283.089L332.076 312.245L342.834 313.142L341.49 279.052L342.834 249.447L350.455 278.154V312.346L361.866 312.795L362.111 268.286C362.111 268.286 363.007 233.299 357.18 228.813C351.352 224.328 350.455 223.431 350.455 223.431L325.351 224.328Z" fill="#2F2E41"/>
<path d="M341.593 174.986L351.8 180.369L353.145 227.019C353.145 227.019 347.317 223.43 338.351 227.916C329.386 232.401 323.558 229.262 323.558 229.262L328.938 209.077L326.696 182.163L329.902 179.252L341.593 174.986Z" fill="#CBCBCB"/>
<path d="M329.903 178.403L328.041 179.921C328.041 179.921 316.386 185.752 315.938 189.789L324.007 211.769C324.007 211.769 326.248 216.703 324.455 218.497C322.662 220.291 320.869 224.777 321.317 227.019C321.765 229.262 318.627 238.682 322.213 238.682C325.8 238.682 334.317 217.151 333.869 208.629C333.421 200.106 333.11 177.783 329.903 178.403Z" fill="#2F2E41"/>
<path d="M337.74 175.492L341.846 174.809C341.846 174.809 357.087 178.846 359.329 185.574L353.053 201.273C353.053 201.273 357.536 229.981 356.191 229.981H354.846C354.846 229.981 358.432 232.672 356.191 233.569C353.949 234.467 348.57 241.643 347.225 238.504C345.88 235.364 337.811 198.133 338.708 190.059C339.604 181.985 336.943 176.338 337.74 175.492Z" fill="#2F2E41"/>
<path d="M339.521 157.353L339.92 156.55L337.913 155.552C337.913 155.552 335.698 151.947 331.691 152.96C327.684 153.973 325.881 154.579 325.881 154.579L323.879 155.587L324.884 156.588L323.081 157.194L324.286 157.793L322.884 158.599L323.639 162.73C323.639 162.73 324.892 159.597 327.3 160.794C329.709 161.992 334.115 160.175 334.115 160.175L337.943 167.588C337.943 167.588 338.733 164.989 340.141 165.682C340.141 165.682 343.738 159.95 339.521 157.353Z" fill="#2F2E41"/>
<path d="M351.99 236.063C351.768 235.522 351.668 234.939 351.696 234.355C351.724 233.771 351.88 233.2 352.152 232.683C352.425 232.166 352.807 231.715 353.273 231.361C353.738 231.008 354.275 230.761 354.847 230.638L356.572 216.53L362.195 221.315L359.694 233.978C359.837 234.952 359.619 235.945 359.079 236.768C358.54 237.591 357.717 238.188 356.768 238.445C355.818 238.702 354.807 238.602 353.926 238.163C353.046 237.724 352.357 236.977 351.99 236.063Z" fill="#FFB7B7"/>
<path d="M327.941 235.093C328.104 234.532 328.142 233.941 328.052 233.363C327.962 232.786 327.747 232.235 327.421 231.749C327.096 231.264 326.667 230.856 326.167 230.554C325.667 230.252 325.106 230.063 324.525 230.001L321.314 216.156L316.23 221.511L320.059 233.837C320.02 234.821 320.343 235.785 320.966 236.546C321.59 237.307 322.471 237.813 323.442 237.968C324.414 238.123 325.409 237.916 326.238 237.386C327.067 236.856 327.673 236.04 327.941 235.093H327.941Z" fill="#FFB7B7"/>
<path d="M352.206 181.918C352.206 181.918 358.034 179.676 359.827 186.404C361.62 193.132 363.862 206.589 363.862 206.589C363.973 214.072 363.575 214.072 363.862 221.391L362.517 228.12L354.896 227.223L355.228 210.095L351.31 192.684L352.206 181.918Z" fill="#2F2E41"/>
<path d="M319.972 187.098L317.208 187.393C317.208 187.393 314.592 189.34 314.592 193.826C314.592 198.312 314.144 211.768 314.144 211.768C314.144 211.768 313.89 212.083 315.937 223.431C316.935 228.962 318.659 231.572 318.659 231.572L324.224 226.401L323.558 213.114L325.351 205.937L319.972 187.098Z" fill="#2F2E41"/>
<path opacity="0.1" d="M403.556 321.82H-8.55591C-8.67369 321.82 -8.78665 321.774 -8.86993 321.69C-8.95321 321.607 -9 321.494 -9 321.376C-9 321.258 -8.95321 321.145 -8.86993 321.062C-8.78665 320.978 -8.67369 320.932 -8.55591 320.932H403.556C403.674 320.932 403.787 320.978 403.87 321.062C403.953 321.145 404 321.258 404 321.376C404 321.494 403.953 321.607 403.87 321.69C403.787 321.774 403.674 321.82 403.556 321.82Z" fill="#3F3D56"/>
<path d="M93.4277 189.742C98.8303 189.742 103.21 185.36 103.21 179.954C103.21 174.548 98.8303 170.166 93.4277 170.166C88.0252 170.166 83.6455 174.548 83.6455 179.954C83.6455 185.36 88.0252 189.742 93.4277 189.742Z" fill="#FFB8B8"/>
<path d="M89.8958 237.872C89.7726 237.872 89.6488 237.867 89.5245 237.856C88.9093 237.804 88.3119 237.623 87.7714 237.325C87.2309 237.026 86.7595 236.617 86.3882 236.123C86.0168 235.63 85.7539 235.063 85.6166 234.461C85.4793 233.859 85.4708 233.234 85.5915 232.629C85.6201 232.488 85.6559 232.349 85.6991 232.212L71.2613 215.126C70.7909 214.565 70.5138 213.867 70.4711 213.136C70.4285 212.405 70.6225 211.679 71.0245 211.067L71.0507 211.035L84.0465 198.213C84.7559 197.513 85.7142 197.124 86.7105 197.131C87.7068 197.138 88.6595 197.541 89.359 198.251C90.0585 198.961 90.4475 199.919 90.4405 200.916C90.4335 201.913 90.031 202.866 89.3215 203.566C89.3052 203.582 89.2888 203.598 89.2722 203.614L79.8598 212.568L90.164 229.116C90.3592 229.126 90.5534 229.15 90.7452 229.187C91.8111 229.4 92.7598 230.002 93.4073 230.875C94.0547 231.749 94.3547 232.832 94.2488 233.914C94.143 234.997 93.6389 236.001 92.8345 236.732C92.03 237.464 90.9827 237.87 89.8958 237.872H89.8958Z" fill="#FFB8B8"/>
<path d="M109.539 316.18H114.423L116.745 297.335L109.539 297.335L109.539 316.18Z" fill="#FFB8B8"/>
<path d="M108.294 314.585L117.91 314.585H117.91C119.536 314.585 121.094 315.231 122.244 316.381C123.393 317.531 124.038 319.09 124.039 320.716V320.916L108.294 320.917L108.294 314.585Z" fill="#2F2E41"/>
<path d="M61.0059 309.425L65.2016 311.925L76.8331 296.921L70.6412 293.232L61.0059 309.425Z" fill="#FFB8B8"/>
<path d="M60.7516 307.417L69.014 312.339L69.0144 312.34C70.4108 313.172 71.4198 314.525 71.8193 316.101C72.2188 317.677 71.9761 319.348 71.1446 320.745L71.1445 320.745L71.0426 320.916L57.5146 312.857L60.7516 307.417Z" fill="#2F2E41"/>
<path d="M115.574 309.523H110.106C109.664 309.524 109.236 309.36 108.907 309.064C108.578 308.768 108.37 308.36 108.324 307.919L102.812 256.073C102.798 255.942 102.742 255.82 102.651 255.725C102.561 255.63 102.442 255.567 102.313 255.546C102.183 255.525 102.05 255.548 101.935 255.61C101.819 255.672 101.727 255.77 101.673 255.89L91.7291 277.923L74.1234 306.648C73.8956 307.017 73.5428 307.29 73.1296 307.42C72.7165 307.549 72.2706 307.525 71.8738 307.352L64.8404 304.256C64.6079 304.153 64.3997 304.002 64.2298 303.813C64.0599 303.624 63.9321 303.401 63.8548 303.159C63.7776 302.917 63.7527 302.661 63.7818 302.408C63.8109 302.156 63.8933 301.912 64.0236 301.694L80.2081 274.578L85.1718 251.732C83.6106 241.824 90.3032 227.094 90.371 226.946L90.4042 226.874L108.839 219.664L108.931 219.777C116.202 243.65 120.632 269.341 117.361 307.88C117.32 308.327 117.115 308.743 116.785 309.047C116.454 309.351 116.023 309.521 115.574 309.523Z" fill="#2F2E41"/>
<path d="M89.6616 229.288L89.5757 229.108C89.5347 229.021 85.4356 220.371 82.2757 211.125C81.6684 209.337 81.4388 207.442 81.6015 205.561C81.7642 203.679 82.3156 201.852 83.2208 200.195C84.1377 198.521 85.3921 197.056 86.9046 195.892C88.417 194.728 90.1546 193.892 92.0071 193.435C95.2231 192.664 98.609 193.074 101.548 194.591C104.487 196.109 106.783 198.632 108.019 201.702C110.525 207.973 109.726 214.667 108.975 219.932L108.96 220.037L108.864 220.083L89.6616 229.288Z" fill="#55B2E5"/>
<path d="M105.288 174.424H89.7554V167.65C93.1647 166.294 96.5009 165.142 98.5176 167.65C100.313 167.65 102.035 168.363 103.305 169.634C104.575 170.904 105.288 172.628 105.288 174.424H105.288Z" fill="#2F2E41"/>
<path d="M88.8958 166.454C79.6099 166.454 77.0107 178.101 77.0107 184.671C77.0107 188.335 78.6669 189.646 81.2693 190.089L82.1884 185.185L84.341 190.3C85.0721 190.304 85.84 190.29 86.6362 190.275L87.3661 188.771L88.9936 190.248C95.5122 190.258 100.781 191.209 100.781 184.671C100.781 178.101 98.5013 166.454 88.8958 166.454Z" fill="#2F2E41"/>
<path d="M130.171 179.489C130.23 179.597 130.284 179.708 130.334 179.823C130.584 180.388 130.712 180.999 130.709 181.617C130.707 182.235 130.574 182.845 130.319 183.407C130.064 183.97 129.693 184.473 129.231 184.882C128.768 185.291 128.225 185.598 127.636 185.783C127.498 185.825 127.359 185.86 127.218 185.888L119.155 206.757C118.889 207.44 118.41 208.017 117.789 208.405C117.168 208.793 116.439 208.971 115.709 208.911L115.669 208.904L98.1924 203.639C97.2393 203.351 96.4395 202.696 95.9688 201.818C95.4981 200.94 95.3949 199.911 95.682 198.957C95.9691 198.003 96.623 197.202 97.4999 196.731C98.3768 196.259 99.4051 196.155 100.359 196.441C100.381 196.447 100.402 196.454 100.424 196.461L112.789 200.434L122.362 183.452C122.278 183.275 122.206 183.093 122.147 182.907C121.822 181.869 121.895 180.747 122.351 179.76C122.807 178.773 123.613 177.99 124.613 177.564C125.613 177.138 126.735 177.099 127.762 177.455C128.789 177.811 129.648 178.536 130.171 179.489L130.171 179.489Z" fill="#FFB8B8"/>
<path d="M285.526 126.482C278.993 117.733 267.036 115.622 261.094 120.065C255.152 124.508 253.787 136.58 260.32 145.328C266.368 153.425 277.324 155.633 283.358 152.6C283.339 152.695 283.337 152.792 283.355 152.887L283.695 154.57C283.721 154.699 283.779 154.818 283.864 154.917C283.949 155.017 284.058 155.093 284.181 155.138C284.304 155.184 284.436 155.197 284.565 155.177C284.694 155.157 284.816 155.104 284.919 155.023L287.8 152.771C287.904 152.69 287.984 152.585 288.035 152.464C288.086 152.344 288.105 152.212 288.091 152.082C288.077 151.952 288.029 151.827 287.953 151.721C287.878 151.614 287.776 151.529 287.658 151.472L286.108 150.735C286.053 150.71 285.996 150.692 285.937 150.681C290.589 145.761 291.586 134.597 285.526 126.482Z" fill="#E0E0E6"/>
<path d="M271.236 123.179C274.431 123.687 277.31 125.403 279.278 127.973C281.246 130.544 282.152 133.772 281.81 136.991C281.74 137.729 282.892 137.724 282.962 136.991C283.291 133.521 282.297 130.055 280.179 127.287C278.061 124.519 274.976 122.655 271.542 122.068C270.817 121.945 270.506 123.055 271.236 123.179Z" fill="white"/>
<path d="M67.4706 82.9199C73.1823 73.614 70.7269 61.7159 64.4063 57.8318C58.0858 53.9477 46.3699 57.1374 40.6582 66.4432C35.3714 75.0569 37.3669 86.06 42.4131 90.5507C42.318 90.5676 42.2269 90.6025 42.1449 90.6536L40.7075 91.5915C40.5979 91.6631 40.5084 91.7614 40.4475 91.8772C40.3866 91.9931 40.3563 92.1226 40.3595 92.2534C40.3627 92.3843 40.3992 92.5122 40.4657 92.6249C40.5321 92.7376 40.6263 92.8315 40.7392 92.8976L43.8949 94.7447C44.0078 94.8108 44.1357 94.8469 44.2665 94.8496C44.3973 94.8524 44.5266 94.8216 44.6422 94.7602C44.7577 94.6989 44.8557 94.609 44.9268 94.4991C44.9978 94.3892 45.0396 94.2629 45.0482 94.1323L45.1608 92.4189C45.1634 92.3591 45.159 92.2992 45.1476 92.2405C51.4353 94.7483 62.1723 91.5523 67.4706 82.9199Z" fill="#E0E0E6"/>
<path d="M65.2597 68.411C65.9683 71.5702 65.4377 74.881 63.7774 77.6601C62.117 80.4391 59.4537 82.4743 56.3372 83.3455C55.6263 83.5526 56.0562 84.6216 56.7624 84.4159C60.107 83.4405 62.9595 81.2359 64.7477 78.2443C66.5359 75.2527 67.1277 71.6952 66.4043 68.2853C66.2512 67.566 65.1054 67.6863 65.2597 68.411Z" fill="white"/>
<path d="M353.048 70.0748C352.57 59.1646 343.875 50.6842 336.465 51.009C329.055 51.3338 321.135 60.5424 321.612 71.4526C322.054 81.5514 329.867 89.548 336.561 90.44C336.492 90.5073 336.436 90.5873 336.397 90.6756L335.731 92.2582C335.68 92.3788 335.661 92.5105 335.675 92.6406C335.69 92.7707 335.737 92.8949 335.813 93.0015C335.889 93.1082 335.991 93.1936 336.109 93.2498C336.227 93.3059 336.358 93.3309 336.488 93.3224L340.136 93.0839C340.267 93.0754 340.393 93.0336 340.503 92.9626C340.613 92.8915 340.703 92.7935 340.764 92.6779C340.825 92.5623 340.856 92.433 340.854 92.3021C340.851 92.1712 340.815 92.0432 340.749 91.9302L339.883 90.4477C339.852 90.3967 339.815 90.3496 339.772 90.3073C346.385 88.8608 353.491 80.1955 353.048 70.0748Z" fill="#55B2E5"/>
<path d="M343.095 59.2959C345.451 61.5159 346.864 64.556 347.044 67.7888C347.225 71.0215 346.158 74.2001 344.064 76.6685C343.591 77.2385 344.545 77.8832 345.015 77.3169C347.24 74.6344 348.369 71.2095 348.175 67.7289C347.982 64.2484 346.481 60.9697 343.973 58.5503C343.443 58.0403 342.562 58.7821 343.095 59.2959Z" fill="white"/>
<path d="M284.885 101.572C282.029 101.392 279.256 100.537 276.793 99.0776C274.331 97.6181 272.249 95.5955 270.719 93.1755C270.29 92.4895 269.73 91.7356 270.027 90.8912C270.13 90.5674 270.34 90.2883 270.623 90.0995C270.905 89.9107 271.244 89.8234 271.582 89.8518C272.457 89.9584 273.022 90.8153 273.13 91.6363C273.252 92.5676 272.596 93.2987 271.785 93.6448C269.804 94.4903 267.805 93.1836 266.192 92.1407C262.515 89.7644 258.471 87.6153 254.015 87.3445C249.893 87.094 245.472 88.7113 243.179 92.2882C242.778 92.914 243.774 93.4923 244.173 92.8696C246.447 89.3221 251.044 88.048 255.041 88.5963C257.423 88.9725 259.723 89.7538 261.842 90.9065C262.94 91.477 264.006 92.1094 265.05 92.7742C266.043 93.4678 267.096 94.0718 268.196 94.5791C270.031 95.3333 272.46 95.2744 273.742 93.538C274.937 91.9182 274.013 89.2214 272.014 88.7659C271.575 88.6794 271.122 88.7032 270.694 88.8351C270.267 88.967 269.879 89.2029 269.566 89.5217C269.252 89.8405 269.022 90.2322 268.897 90.6617C268.772 91.0912 268.755 91.5451 268.848 91.9826C269.048 92.9365 269.766 93.87 270.321 94.6497C271.991 96.9998 274.166 98.9451 276.686 100.342C279.207 101.74 282.009 102.554 284.885 102.724C285.626 102.76 285.624 101.608 284.885 101.572H284.885Z" fill="#A4A5BB"/>
<path d="M49.076 120.494C47.388 120.604 45.7491 121.124 44.2939 122.013C42.8386 122.902 41.6084 124.133 40.704 125.607C40.4505 126.025 40.1197 126.484 40.2951 126.998C40.3562 127.195 40.4804 127.365 40.6474 127.48C40.8143 127.595 41.0142 127.648 41.2142 127.631C41.7315 127.566 42.0654 127.044 42.1291 126.544C42.2014 125.977 41.8133 125.532 41.3342 125.321C40.1635 124.806 38.9823 125.602 38.0286 126.237C35.8556 127.684 33.4655 128.993 30.8324 129.158C28.3963 129.31 25.7838 128.325 24.4288 126.147C24.1917 125.766 24.7803 125.414 25.0162 125.793C26.3601 127.953 29.0768 128.729 31.439 128.395C32.8467 128.166 34.2059 127.69 35.4579 126.988C36.1072 126.641 36.7369 126.256 37.3538 125.851C37.9409 125.429 38.5632 125.061 39.2134 124.752C40.2977 124.293 41.7331 124.329 42.4906 125.386C43.1972 126.372 42.6511 128.015 41.4692 128.292C41.21 128.345 40.9421 128.33 40.6896 128.25C40.4371 128.17 40.2079 128.026 40.0225 127.832C39.8371 127.638 39.7013 127.399 39.6273 127.138C39.5533 126.876 39.5434 126.6 39.5985 126.333C39.7164 125.752 40.1407 125.184 40.4691 124.709C41.4557 123.278 42.7412 122.094 44.2308 121.243C45.7203 120.392 47.3761 119.896 49.0761 119.793C49.5137 119.77 49.5125 120.472 49.0761 120.494H49.076Z" fill="#A4A5BB"/>
</g>
<defs>
<clipPath id="clip0_122_457">
<rect width="396" height="363" rx="18" fill="white"/>
</clipPath>
</defs>
</svg>
