<svg width="396" height="363" viewBox="0 0 396 363" fill="none" xmlns="http://www.w3.org/2000/svg">
<rect width="396" height="363" rx="18" fill="#EFF1F4"/>
<path d="M102.666 215.877C103.522 217.313 104.682 218.543 106.062 219.481C107.443 220.419 109.011 221.041 110.657 221.303C112.303 221.566 113.986 221.463 115.588 221.002C117.19 220.54 118.672 219.732 119.929 218.633L155.069 238.88L153.759 217.773L120.591 201.782C118.613 199.783 115.974 198.581 113.174 198.406C110.373 198.231 107.606 199.094 105.397 200.831C103.187 202.568 101.689 205.06 101.186 207.833C100.683 210.606 101.209 213.468 102.666 215.877Z" fill="#FFB8B8"/>
<path d="M204.399 296.986C193.975 311.642 194.348 336.163 197.256 363H246.539L248.682 357.977L251.539 363H297.965C297.965 363 294.394 294.833 287.966 292.68C281.537 290.528 204.399 296.986 204.399 296.986Z" fill="#2F2E41"/>
<path d="M246.54 143.856C260.346 143.856 271.539 132.612 271.539 118.742C271.539 104.872 260.346 93.6277 246.54 93.6277C232.734 93.6277 221.541 104.872 221.541 118.742C221.541 132.612 232.734 143.856 246.54 143.856Z" fill="#FFB8B8"/>
<path d="M264.607 150.372L269.496 159.785L303.309 174.928L294.421 261.339L290.68 270.287L292.701 278.058L287.828 283.793C292.72 288.239 293.341 292.894 290.68 297.708L275.109 301.291C275.109 301.291 188.531 309.026 195.828 295.551C203.8 280.828 205.83 237.347 188.23 214.112C173.288 194.386 184.76 168.789 184.76 168.789L220.202 158.148L233.239 150.372L264.607 150.372Z" fill="#3F3D56"/>
<path d="M257.637 81.9536C257.754 81.7039 257.943 81.4952 258.18 81.3543C258.416 81.2133 258.689 81.1466 258.964 81.1626C247.519 80.4749 235.464 81.815 225.889 88.151C223.569 89.686 221.382 91.5169 218.858 92.6304C218.739 92.6842 218.636 92.768 218.558 92.8738C218.481 92.9795 218.432 93.1035 218.416 93.2338C218.401 93.3641 218.419 93.4962 218.469 93.6173C218.52 93.7384 218.6 93.8444 218.703 93.9249L218.981 94.1434C219.09 94.2295 219.174 94.3442 219.223 94.4749C219.272 94.6055 219.284 94.7472 219.259 94.8845C219.233 95.0218 219.171 95.1494 219.078 95.2535C218.985 95.3576 218.866 95.4341 218.733 95.4748C218.595 95.5173 218.471 95.5987 218.377 95.7093C218.283 95.82 218.222 95.9554 218.202 96.0996C218.182 96.2438 218.203 96.3907 218.263 96.5231C218.324 96.6555 218.42 96.7678 218.542 96.8468L220.667 98.2263C220.774 98.2946 220.862 98.3887 220.923 98.5001C220.985 98.6116 221.017 98.7367 221.018 98.864C221.019 98.9914 220.987 99.1168 220.927 99.2289C220.867 99.341 220.78 99.4361 220.674 99.5056C220.494 99.6172 220.305 99.7135 220.109 99.7934C219.987 99.8394 219.879 99.9162 219.795 100.016C219.711 100.117 219.654 100.237 219.63 100.365C219.606 100.494 219.615 100.627 219.657 100.751C219.699 100.875 219.771 100.986 219.868 101.073C220.788 101.896 221.494 102.933 221.924 104.092C222.632 105.942 222.759 107.957 222.879 109.935C223.611 107.081 226.712 105.4 229.641 105.23C232.57 105.059 235.426 106.03 238.277 106.728C244.486 108.243 250.934 108.493 257.24 107.461C255.098 111.778 256.905 116.927 258.723 121.392L264.606 118.858C272.687 114.276 267.058 133.661 264.037 136.322C270.206 138.47 286.351 114.625 281.157 105.58C278.455 100.875 280.373 94.8065 275.061 90.344C272.458 87.5909 267.26 88.8145 264.606 86.5263C263.562 85.6257 265.154 83.2162 263.719 82.6911C263.242 82.5167 257.716 81.7779 257.637 81.9536Z" fill="#2F2E41"/>
<path d="M215.293 160.579C210.706 181.038 198.941 228.808 187.004 238.798C186.247 239.516 185.34 240.055 184.348 240.374C142.392 250.642 128.948 224.449 128.948 224.449C128.948 224.449 140.192 218.945 140.477 208.185L163.152 215.253L182.918 170.565L185.827 167.84L185.843 167.823L215.293 160.579Z" fill="#3F3D56"/>
<path d="M304.752 349.509C305.953 348.349 306.887 346.938 307.487 345.376C308.087 343.814 308.338 342.139 308.224 340.469C308.11 338.799 307.633 337.174 306.826 335.709C306.019 334.244 304.903 332.975 303.555 331.99L315.317 293.048L295.135 299.062L287.06 335.121C285.564 337.506 284.99 340.359 285.448 343.14C285.906 345.92 287.364 348.436 289.544 350.21C291.725 351.983 294.478 352.891 297.28 352.762C300.083 352.633 302.742 351.476 304.752 349.509Z" fill="#FFB8B8"/>
<path d="M293.986 172.749L303.309 174.927C303.309 174.927 341.841 250.244 332.556 264.595C323.27 278.946 311.895 326.458 311.895 326.458C311.895 326.458 295.071 323.098 288.643 314.487L300.414 258.137L288.272 210.779L293.986 172.749Z" fill="#3F3D56"/>
<path d="M117.125 284.591L117.46 163.289C117.469 160.834 118.448 158.483 120.18 156.752C121.913 155.021 124.259 154.051 126.703 154.055L217.892 154.309C220.336 154.318 222.676 155.301 224.399 157.042C226.122 158.783 227.088 161.14 227.084 163.595L226.749 284.897C226.74 287.352 225.761 289.703 224.028 291.434C222.295 293.165 219.95 294.135 217.506 294.131L126.317 293.877C123.873 293.868 121.533 292.885 119.81 291.144C118.086 289.403 117.121 287.046 117.125 284.591Z" fill="#E6E6E6"/>
<path d="M124.22 247.974L124.435 169.99C124.444 167.69 125.361 165.489 126.983 163.867C128.606 162.246 130.803 161.337 133.092 161.341L211.461 161.559C213.75 161.568 215.942 162.489 217.556 164.119C219.17 165.75 220.074 167.957 220.07 170.256L219.772 278.198C219.763 280.498 218.847 282.7 217.224 284.321C215.601 285.942 213.404 286.851 211.115 286.847L162.567 286.712C152.372 286.672 142.609 282.571 135.42 275.309C128.231 268.046 124.203 258.216 124.22 247.974Z" fill="white"/>
<path d="M202.481 195.595H141.373C140.401 195.595 139.468 195.207 138.781 194.516C138.093 193.825 137.707 192.888 137.707 191.912C137.707 190.935 138.093 189.998 138.781 189.307C139.468 188.616 140.401 188.228 141.373 188.228H202.481C203.453 188.228 204.386 188.616 205.074 189.307C205.761 189.998 206.148 190.935 206.148 191.912C206.148 192.888 205.761 193.825 205.074 194.516C204.386 195.207 203.453 195.595 202.481 195.595Z" fill="#55B2E5"/>
<path d="M154.817 178.611H141.373C140.401 178.611 139.468 178.223 138.781 177.532C138.093 176.841 137.707 175.905 137.707 174.928C137.707 173.951 138.093 173.014 138.781 172.323C139.468 171.632 140.401 171.244 141.373 171.244H154.817C155.789 171.244 156.722 171.632 157.41 172.323C158.097 173.014 158.483 173.951 158.483 174.928C158.483 175.905 158.097 176.841 157.41 177.532C156.722 178.223 155.789 178.611 154.817 178.611Z" fill="#55B2E5"/>
<path d="M202.481 212.58H141.373C140.401 212.58 139.468 212.192 138.781 211.501C138.093 210.81 137.707 209.873 137.707 208.897C137.707 207.92 138.093 206.983 138.781 206.292C139.468 205.601 140.401 205.213 141.373 205.213H202.481C203.453 205.213 204.386 205.601 205.074 206.292C205.761 206.983 206.148 207.92 206.148 208.897C206.148 209.873 205.761 210.81 205.074 211.501C204.386 212.192 203.453 212.58 202.481 212.58Z" fill="#55B2E5"/>
<path d="M202.481 229.565H141.373C140.401 229.565 139.468 229.177 138.781 228.486C138.093 227.795 137.707 226.858 137.707 225.882C137.707 224.905 138.093 223.968 138.781 223.277C139.468 222.586 140.401 222.198 141.373 222.198H202.481C203.453 222.198 204.386 222.586 205.074 223.277C205.761 223.968 206.148 224.905 206.148 225.882C206.148 226.858 205.761 227.795 205.074 228.486C204.386 229.177 203.453 229.565 202.481 229.565Z" fill="#55B2E5"/>
<path d="M197.537 274.318C205.594 274.318 212.126 267.756 212.126 259.662C212.126 251.567 205.594 245.005 197.537 245.005C189.479 245.005 182.948 251.567 182.948 259.662C182.948 267.756 189.479 274.318 197.537 274.318Z" fill="#55B2E5"/>
<path d="M195.547 267.29C195.295 267.29 195.046 267.231 194.821 267.118C194.596 267.004 194.4 266.84 194.248 266.638L190.268 261.306C190.14 261.135 190.047 260.94 189.994 260.733C189.941 260.525 189.929 260.309 189.959 260.097C189.989 259.885 190.06 259.681 190.169 259.496C190.277 259.312 190.421 259.151 190.592 259.022C190.762 258.894 190.957 258.8 191.163 258.747C191.37 258.694 191.585 258.682 191.796 258.713C192.007 258.743 192.21 258.815 192.394 258.924C192.577 259.034 192.737 259.178 192.865 259.35L195.469 262.838L202.157 252.76C202.274 252.581 202.426 252.427 202.603 252.307C202.781 252.188 202.98 252.104 203.189 252.062C203.398 252.019 203.614 252.019 203.823 252.06C204.033 252.102 204.232 252.184 204.41 252.303C204.587 252.422 204.74 252.575 204.859 252.754C204.977 252.932 205.06 253.132 205.101 253.343C205.143 253.553 205.143 253.77 205.101 253.98C205.059 254.19 204.976 254.39 204.857 254.568L196.897 266.564C196.753 266.781 196.559 266.96 196.332 267.086C196.105 267.212 195.851 267.282 195.592 267.289C195.577 267.29 195.562 267.29 195.547 267.29Z" fill="white"/>
<path d="M166.427 125.815C170.252 125.815 173.353 122.7 173.353 118.858C173.353 115.015 170.252 111.9 166.427 111.9C162.602 111.9 159.501 115.015 159.501 118.858C159.501 122.7 162.602 125.815 166.427 125.815Z" fill="#F2F2F2"/>
<path d="M141.169 325.947C144.994 325.947 148.095 322.832 148.095 318.99C148.095 315.147 144.994 312.032 141.169 312.032C137.344 312.032 134.244 315.147 134.244 318.99C134.244 322.832 137.344 325.947 141.169 325.947Z" fill="#F2F2F2"/>
<path d="M300.457 152.828C304.282 152.828 307.383 149.713 307.383 145.87C307.383 142.028 304.282 138.913 300.457 138.913C296.632 138.913 293.532 142.028 293.532 145.87C293.532 149.713 296.632 152.828 300.457 152.828Z" fill="#F2F2F2"/>
</svg>
