<svg width="548" height="564" viewBox="0 0 548 564" fill="none" xmlns="http://www.w3.org/2000/svg">
<path fill-rule="evenodd" clip-rule="evenodd" d="M140.562 16.2004C140.562 7.25316 147.815 0 156.763 0C191.085 0 222.874 11.0491 248.705 29.781C255.948 35.0336 257.561 45.1634 252.309 52.4065C247.056 59.6496 236.926 61.2632 229.683 56.0106C209.199 41.1555 184.027 32.4008 156.763 32.4008C147.815 32.4008 140.562 25.1476 140.562 16.2004ZM123.859 19.1084C126.922 27.5149 122.591 36.8129 114.184 39.8761C66.4468 57.2703 32.4008 103.061 32.4008 156.763V208.223C32.4008 217.17 25.1476 224.423 16.2004 224.423C7.25316 224.423 0 217.17 0 208.223V156.763C0 89.0124 42.9705 31.3398 103.092 9.43326C111.498 6.37013 120.796 10.7018 123.859 19.1084ZM16.2004 239.194C25.1476 239.194 32.4008 246.447 32.4008 255.394V366.915C32.4008 375.863 25.1476 383.116 16.2004 383.116C7.25316 383.116 0 375.863 0 366.915V255.394C0 246.447 7.25316 239.194 16.2004 239.194Z" fill="white" fill-opacity="0.1"/>
<path fill-rule="evenodd" clip-rule="evenodd" d="M47.6484 156.763C47.6484 96.5004 96.5006 47.6482 156.763 47.6482C165.71 47.6482 172.963 54.9014 172.963 63.8486C172.963 72.7958 165.71 80.049 156.763 80.049C114.395 80.049 80.0492 114.395 80.0492 156.763V406.915C80.0492 415.863 72.796 423.116 63.8488 423.116C54.9016 423.116 47.6484 415.863 47.6484 406.915V156.763Z" fill="white" fill-opacity="0.1"/>
<path fill-rule="evenodd" clip-rule="evenodd" d="M233.477 156.763C233.477 70.185 303.662 0 390.239 0C425.75 0 458.546 11.8272 484.837 31.75C491.968 37.1537 493.369 47.3152 487.965 54.4463C482.561 61.5774 472.4 62.9777 465.269 57.574C444.413 41.7703 418.443 32.4008 390.239 32.4008C321.556 32.4008 265.877 88.0794 265.877 156.763V252.059C265.877 261.006 258.624 268.259 249.677 268.259C240.73 268.259 233.477 261.006 233.477 252.059V156.763ZM496.559 63.4045C503.91 58.3031 514.004 60.1263 519.105 67.4767C536.693 92.8176 547.002 123.61 547.002 156.763V285.241C547.002 294.189 539.748 301.442 530.801 301.442C521.854 301.442 514.601 294.189 514.601 285.241V156.763C514.601 130.424 506.431 106.042 492.487 85.9505C487.386 78.6001 489.209 68.5059 496.559 63.4045ZM530.801 321.332C539.748 321.332 547.002 328.585 547.002 337.532V406.915C547.002 415.863 539.748 423.116 530.801 423.116C521.854 423.116 514.601 415.863 514.601 406.915V337.532C514.601 328.585 521.854 321.332 530.801 321.332ZM249.677 283.507C258.624 283.507 265.877 290.76 265.877 299.707V346.915C265.877 355.863 258.624 363.116 249.677 363.116C240.73 363.116 233.477 355.863 233.477 346.915V299.707C233.477 290.76 240.73 283.507 249.677 283.507Z" fill="white" fill-opacity="0.1"/>
<path fill-rule="evenodd" clip-rule="evenodd" d="M530.802 321.332C539.749 321.332 547.002 328.585 547.002 337.532V406.916C547.002 415.863 539.749 423.116 530.802 423.116C521.855 423.116 514.602 415.863 514.602 406.916V337.532C514.602 328.585 521.855 321.332 530.802 321.332Z" fill="#FF6584"/>
<path fill-rule="evenodd" clip-rule="evenodd" d="M374.039 63.8486C374.039 54.9014 381.292 47.6482 390.239 47.6482C433.917 47.6482 471.568 73.3115 488.996 110.311C495.645 124.425 499.354 140.183 499.354 156.763V197.3C499.354 206.247 492.101 213.501 483.153 213.501C474.206 213.501 466.953 206.247 466.953 197.3V156.763C466.953 145.056 464.342 134.004 459.685 124.118C447.402 98.0422 420.905 80.049 390.239 80.049C381.292 80.049 374.039 72.7958 374.039 63.8486ZM353.852 69.7198C358.677 77.2551 356.479 87.2744 348.944 92.0986C327.609 105.758 313.526 129.621 313.526 156.763V546.915C313.526 555.863 306.273 563.116 297.325 563.116C288.378 563.116 281.125 555.863 281.125 546.915V156.763C281.125 118.115 301.229 84.1744 331.474 64.8112C339.009 59.9869 349.028 62.1846 353.852 69.7198ZM483.153 233.748C492.101 233.748 499.354 241.001 499.354 249.948V406.915C499.354 415.863 492.101 423.116 483.153 423.116C474.206 423.116 466.953 415.863 466.953 406.915V249.948C466.953 241.001 474.206 233.748 483.153 233.748Z" fill="white" fill-opacity="0.1"/>
</svg>
