<svg width="20" height="20" viewBox="0 0 20 20" fill="none" xmlns="http://www.w3.org/2000/svg">
<path fill-rule="evenodd" clip-rule="evenodd" d="M17.5029 9.58735V15.2974C17.5041 15.7496 17.143 16.1196 16.6909 16.1294C14.3365 16.0858 12.0176 16.7064 9.99975 17.9202C7.98193 16.7064 5.66295 16.0858 3.30863 16.1294C2.85648 16.1196 2.49539 15.7496 2.4966 15.2974V9.58735C2.49458 9.24239 2.63548 8.91198 2.88584 8.67465C3.13619 8.43732 3.47365 8.31426 3.81801 8.33472C5.99139 8.40393 8.11436 9.0068 9.99975 10.0902C11.8851 9.0068 14.0081 8.40393 16.1815 8.33472C16.5259 8.31427 16.8633 8.43733 17.1137 8.67466C17.364 8.91199 17.5049 9.24239 17.5029 9.58735V9.58735Z" stroke="#323232" stroke-linecap="round" stroke-linejoin="round"/>
<path d="M10.0001 10.0903V17.9203" stroke="#323232" stroke-linecap="round" stroke-linejoin="round"/>
<ellipse cx="10.0001" cy="4.58112" rx="2.50104" ry="2.50104" stroke="#323232" stroke-linecap="round" stroke-linejoin="round"/>
</svg>
