<svg width="1559" height="132" viewBox="0 0 1559 132" fill="none" xmlns="http://www.w3.org/2000/svg">
<path fill-rule="evenodd" clip-rule="evenodd" d="M550.467 54.0327C550.467 65.5035 548.29 75.2623 543.936 83.309C539.617 91.3556 533.72 97.5019 526.247 101.748C518.808 105.96 510.443 108.065 501.152 108.065C491.793 108.065 483.394 105.942 475.955 101.696C468.516 97.4506 462.637 91.3043 458.317 83.2576C453.997 75.2109 451.838 65.4693 451.838 54.0327C451.838 42.5619 453.997 32.8031 458.317 24.7564C462.637 16.7097 468.516 10.5805 475.955 6.36888C483.394 2.12296 491.793 0 501.152 0C510.443 0 518.808 2.12296 526.247 6.36888C533.72 10.5805 539.617 16.7097 543.936 24.7564C548.29 32.8031 550.467 42.5619 550.467 54.0327ZM527.892 54.0327C527.892 46.6023 526.778 40.3362 524.55 35.2342C522.356 30.1323 519.253 26.263 515.242 23.6265C511.231 20.9899 506.535 19.6716 501.152 19.6716C495.77 19.6716 491.073 20.9899 487.062 23.6265C483.051 26.263 479.932 30.1323 477.703 35.2342C475.509 40.3362 474.412 46.6023 474.412 54.0327C474.412 61.463 475.509 67.7292 477.703 72.8311C479.932 77.9331 483.051 81.8023 487.062 84.4389C491.073 87.0755 495.77 88.3938 501.152 88.3938C506.535 88.3938 511.231 87.0755 515.242 84.4389C519.253 81.8023 522.356 77.9331 524.55 72.8311C526.778 67.7292 527.892 61.463 527.892 54.0327ZM29.8768 61.7883L63.7133 106.627H86.6804H91.3275H110.541L118.353 82.6413H156.378L164.175 106.627H188.035L151.731 1.43813H123.037L88.1301 102.433L48.3377 50.2319L89.4248 1.43813H61.7078L26.74 43.4521H22.2662V1.43813H0V106.627H22.2662V61.7883H29.8768ZM150.735 65.2809L137.795 25.4755H136.972L124.007 65.2809H150.735ZM254.288 106.627L220.452 61.7883H212.841V106.627H190.575V1.43813H212.841V43.4521H217.315L252.282 1.43813H280L238.912 50.2319L281.902 106.627H254.288ZM442.626 106.627V1.43813H356.03V106.627H378.039V19.5175H420.617V106.627H442.626ZM551.117 88.9074V132H572.509V106.627H636.016V131.897H657.408V106.627H676.493L690.891 19.7743H738.509L741.595 1.43813H671.711L657.172 88.9074H645.89V1.43813H576.211L573.229 45.9175C572.612 55.0942 571.583 62.5245 570.143 68.2086C568.703 73.8584 566.972 78.2926 564.95 81.5113C562.927 84.6957 560.699 87.1611 558.265 88.9074H551.117ZM624.497 88.9074H583.976C585.759 85.9969 587.353 82.5385 588.758 78.5323C590.198 74.4918 591.415 69.7837 592.409 64.4078C593.438 59.0319 594.175 52.8685 594.621 45.9175L596.266 19.7743H624.497V88.9074ZM817.579 84.0794C823.098 76.2381 826.818 66.702 828.738 55.4708C830.658 43.7946 830.075 33.8304 826.99 25.5782C823.938 17.2918 818.95 10.9572 812.025 6.57432C805.135 2.19144 796.941 0 787.445 0C778.292 0 769.738 2.07159 761.785 6.21478C753.831 10.3237 747.095 16.316 741.576 24.1914C736.056 32.0327 732.371 41.586 730.52 52.8514C728.6 64.4934 729.183 74.4405 732.268 82.6926C735.353 90.9105 740.341 97.1938 747.232 101.542C754.157 105.891 762.402 108.065 771.967 108.065C781.086 108.065 789.588 106.028 797.473 101.953C805.392 97.8786 812.094 91.9206 817.579 84.0794ZM832.138 19.7743L835.224 1.43813H921.718L918.632 19.7743H886.39L871.991 106.627H849.982L864.381 19.7743H832.138ZM997.689 84.0794C1003.21 76.2381 1006.93 66.702 1008.85 55.4708C1010.77 43.7946 1010.18 33.8304 1007.1 25.5782C1004.05 17.2918 999.06 10.9572 992.135 6.57432C985.245 2.19144 977.051 0 967.555 0C958.402 0 949.848 2.07159 941.895 6.21478C933.942 10.3237 927.205 16.316 921.686 24.1914C916.166 32.0327 912.481 41.586 910.63 52.8514C908.71 64.4934 909.293 74.4405 912.378 82.6926C915.464 90.9105 920.452 97.1938 927.342 101.542C934.267 105.891 942.512 108.065 952.077 108.065C961.196 108.065 969.698 106.028 977.583 101.953C985.502 97.8786 992.204 91.9206 997.689 84.0794ZM986.53 34.6693C987.833 39.5658 987.884 45.6265 986.685 52.8514C985.416 60.4529 983.188 66.9074 980 72.2148C976.811 77.4879 972.886 81.5113 968.224 84.2848C963.596 87.0241 958.487 88.3938 952.9 88.3938C947.757 88.3938 943.455 87.1611 939.992 84.6957C936.564 82.1961 934.182 78.5152 932.844 73.6529C931.542 68.7907 931.508 62.73 932.742 55.4708C933.976 47.8693 936.187 41.4148 939.375 36.1074C942.598 30.7658 946.54 26.6911 951.203 23.8833C955.899 21.0755 961.059 19.6716 966.681 19.6716C971.858 19.6716 976.143 20.9385 979.537 23.4724C982.931 26.0062 985.262 29.7385 986.53 34.6693ZM1024.15 1.43813H1066.32C1074.07 1.43813 1080.34 2.58521 1085.14 4.87938C1089.97 7.17354 1093.35 10.358 1095.27 14.4327C1097.19 18.4732 1097.71 23.13 1096.81 28.4031C1096.09 32.5121 1094.64 36.1074 1092.44 39.1891C1090.28 42.2708 1087.61 44.8047 1084.42 46.7907C1081.23 48.7767 1077.77 50.1805 1074.03 51.0023L1073.83 52.0296C1077.8 52.2008 1081.39 53.3307 1084.58 55.4195C1087.76 57.4739 1090.15 60.3844 1091.72 64.151C1093.3 67.9175 1093.66 72.386 1092.8 77.5564C1091.88 83.1377 1089.67 88.1198 1086.17 92.5027C1082.67 96.8514 1078.01 100.293 1072.18 102.826C1066.39 105.36 1059.55 106.627 1051.66 106.627H1006.67L1024.15 1.43813ZM1032.02 88.4451H1050.17C1056.34 88.4451 1061.06 87.2467 1064.31 84.8498C1067.57 82.4529 1069.53 79.2856 1070.18 75.3479C1070.62 72.4374 1070.33 69.8693 1069.3 67.6436C1068.31 65.4179 1066.61 63.6716 1064.21 62.4047C1061.85 61.1377 1058.85 60.5043 1055.21 60.5043H1036.6L1032.02 88.4451ZM1039.17 45.4553H1055.68C1058.69 45.4553 1061.49 44.9245 1064.06 43.863C1066.66 42.7673 1068.81 41.2265 1070.49 39.2405C1072.2 37.2202 1073.28 34.8405 1073.72 32.1012C1074.34 28.2662 1073.48 25.2016 1071.15 22.9074C1068.86 20.579 1065.26 19.4148 1060.35 19.4148H1043.49L1039.17 45.4553ZM1131.97 1.43813H1109.75L1092.27 106.627H1111.55L1168.32 40.4218H1169.1L1158.09 106.627H1180.36L1197.84 1.43813H1178.35L1121.89 67.5922H1120.96L1131.97 1.43813ZM1199.01 19.7743L1202.09 1.43813H1288.58L1285.5 19.7743H1253.26L1238.86 106.627H1216.85L1231.25 19.7743H1199.01ZM1304.97 57.8848L1299.84 88.7533H1316.96C1320.94 88.7533 1324.42 88.0342 1327.4 86.5961C1330.42 85.1237 1332.84 83.1891 1334.65 80.7922C1336.5 78.3611 1337.65 75.7074 1338.1 72.8311C1338.82 68.6537 1337.82 65.1269 1335.12 62.2506C1332.41 59.3401 1328.07 57.8848 1322.11 57.8848H1304.97ZM1325.04 40.3191H1307.88L1314.34 1.43813H1292.07L1274.59 106.627H1313.98C1322.31 106.627 1329.73 105.206 1336.25 102.364C1342.8 99.5222 1348.14 95.5844 1352.29 90.551C1356.44 85.4833 1359.06 79.6451 1360.16 73.0366C1361.29 66.3938 1360.6 60.6241 1358.1 55.7276C1355.63 50.8311 1351.59 47.0475 1345.97 44.3767C1340.38 41.6716 1333.4 40.3191 1325.04 40.3191ZM1466.26 38.2646H1444.05C1444.12 35.3198 1443.74 32.7175 1442.92 30.4576C1442.1 28.1634 1440.86 26.2117 1439.22 24.6023C1437.6 22.993 1435.63 21.7774 1433.3 20.9556C1430.97 20.0996 1428.35 19.6716 1425.43 19.6716C1419.81 19.6716 1414.65 21.0755 1409.96 23.8833C1405.26 26.6911 1401.3 30.7658 1398.08 36.1074C1394.85 41.4148 1392.63 47.835 1391.39 55.3681C1390.19 62.6272 1390.26 68.7051 1391.6 73.6016C1392.94 78.4981 1395.3 82.1961 1398.69 84.6957C1402.12 87.1611 1406.39 88.3938 1411.5 88.3938C1414.65 88.3938 1417.65 88 1420.5 87.2124C1423.34 86.3907 1425.93 85.2265 1428.26 83.7198C1430.63 82.179 1432.69 80.3128 1434.43 78.1214C1436.22 75.93 1437.6 73.4475 1438.6 70.6739H1460.97C1459.56 75.5019 1457.37 80.1588 1454.39 84.6444C1451.44 89.13 1447.79 93.1362 1443.43 96.663C1439.08 100.156 1434.12 102.929 1428.57 104.984C1423.02 107.038 1416.93 108.065 1410.32 108.065C1400.75 108.065 1392.54 105.874 1385.68 101.491C1378.86 97.1082 1373.94 90.7907 1370.93 82.5385C1367.91 74.2864 1367.34 64.3393 1369.23 52.6973C1371.11 41.4319 1374.8 31.8786 1380.28 24.0374C1385.8 16.1619 1392.51 10.1868 1400.39 6.11206C1408.31 2.03735 1416.78 0 1425.79 0C1432.07 0 1437.74 0.856032 1442.82 2.56809C1447.89 4.28016 1452.21 6.77977 1455.77 10.0669C1459.37 13.3198 1462.08 17.3089 1463.9 22.0342C1465.72 26.7595 1466.5 32.1697 1466.26 38.2646ZM1519.3 106.627H1541.57L1559 1.43813H1517.5C1509.55 1.43813 1502.52 2.85914 1496.42 5.70117C1490.32 8.50895 1485.34 12.4981 1481.51 17.6685C1477.7 22.8047 1475.2 28.8483 1474 35.7992C1472.87 42.7844 1473.4 48.7938 1475.59 53.8272C1477.79 58.8265 1481.51 62.6615 1486.75 65.3323C1487.05 65.4844 1487.36 65.6322 1487.67 65.7756L1458.57 106.627H1483.1L1509.26 69.3385H1525.49L1519.3 106.627ZM1528.46 51.4646H1513.39C1509.14 51.4646 1505.69 50.8825 1503.05 49.7183C1500.45 48.5541 1498.63 46.8078 1497.6 44.4794C1496.61 42.151 1496.38 39.2576 1496.93 35.7992C1497.52 32.3066 1498.7 29.3619 1500.48 26.965C1502.3 24.5681 1504.71 22.7533 1507.73 21.5206C1510.78 20.2537 1514.45 19.6202 1518.74 19.6202H1533.75L1528.46 51.4646ZM826 54C826 79.4051 805.405 100 780 100C754.595 100 734 79.4051 734 54C734 28.5949 754.595 8 780 8C805.405 8 826 28.5949 826 54Z" fill="#21222E"/>
</svg>
