<svg width="27" height="27" viewBox="0 0 27 27" fill="none" xmlns="http://www.w3.org/2000/svg">
<g clip-path="url(#clip0_73_12942)">
<path d="M23.58 10.485C22.14 10.485 20.97 11.475 20.61 12.78H15.39C15.075 12.24 14.49 11.88 13.86 11.88C13.185 11.88 12.6 12.24 12.33 12.78H6.075C6.03 12.555 5.94 12.375 5.85 12.15L11.655 6.795C12.285 7.245 13.05 7.515 13.905 7.515C15.975 7.515 17.685 5.805 17.685 3.735C17.685 1.665 15.93 0 13.86 0C11.79 0 10.08 1.71 10.08 3.78C10.08 4.455 10.26 5.085 10.575 5.625L4.77 10.98C4.275 10.665 3.69 10.44 3.06 10.44C1.35 10.44 0 11.835 0 13.5C0 15.255 1.395 16.65 3.06 16.65C4.5 16.65 5.67 15.66 6.03 14.355H12.195C12.465 14.985 13.095 15.435 13.815 15.435C14.535 15.435 15.165 14.985 15.435 14.355H20.52C20.61 14.625 20.7 14.895 20.835 15.12L15.57 20.16C14.94 19.755 14.22 19.485 13.41 19.485C11.34 19.485 9.63 21.195 9.63 23.265C9.63 25.335 11.34 27.045 13.41 27.045C15.48 27.045 17.19 25.335 17.19 23.265C17.19 22.545 16.965 21.87 16.65 21.33L22.05 16.2C22.5 16.47 23.04 16.605 23.58 16.605C25.29 16.605 26.64 15.21 26.64 13.545C26.64 11.88 25.245 10.485 23.58 10.485ZM13.86 1.575C15.075 1.575 16.065 2.565 16.065 3.78C16.065 4.995 15.075 5.985 13.86 5.985C12.645 5.985 11.655 4.995 11.655 3.78C11.655 2.565 12.645 1.575 13.86 1.575ZM3.06 15.075C2.205 15.075 1.53 14.4 1.53 13.545C1.53 12.69 2.205 12.015 3.06 12.015C3.915 12.015 4.59 12.69 4.59 13.545C4.59 14.4 3.915 15.075 3.06 15.075ZM13.86 13.86C13.725 13.86 13.635 13.77 13.635 13.635C13.635 13.5 13.725 13.41 13.86 13.41C13.995 13.41 14.085 13.5 14.085 13.635C14.085 13.77 13.995 13.86 13.86 13.86ZM13.455 25.425C12.24 25.425 11.25 24.435 11.25 23.22C11.25 22.005 12.24 21.015 13.455 21.015C14.67 21.015 15.66 22.005 15.66 23.22C15.66 24.435 14.67 25.425 13.455 25.425ZM23.58 15.075C22.77 15.075 22.05 14.4 22.05 13.545C22.05 12.735 22.725 12.015 23.58 12.015C24.435 12.015 25.11 12.69 25.11 13.545C25.065 14.4 24.39 15.075 23.58 15.075Z" fill="#21222E"/>
</g>
<defs>
<clipPath id="clip0_73_12942">
<rect width="27" height="27" fill="white"/>
</clipPath>
</defs>
</svg>
