<svg width="60" height="32" viewBox="0 0 60 32" fill="none" xmlns="http://www.w3.org/2000/svg">
<path d="M59.6851 11.3191C57.0024 1.91053 45.0927 -0.936656 32.0391 0.256756C44.1704 0.539809 55.0026 5.29544 56.8545 12.6309C57.6689 15.8565 57.3686 19.0965 56.0728 21.8665C58.939 18.7976 60.7673 15.1148 59.6851 11.3191Z" fill="#21222E"/>
<path d="M2.51036 18.8082C1.75365 15.5723 2.38281 12.3149 4.09758 9.57281C1.2318 12.6419 -0.568187 16.2621 0.163218 20.1205C1.87247 29.1399 15.0785 32.376 28.1318 31.1824C16.0002 30.8994 4.44555 27.0828 2.51036 18.8082Z" fill="#21222E"/>
<path d="M12.7035 20.4947L13.8996 20.0843L12.7484 17.4268L11.5859 20.0833L12.7035 20.4947Z" fill="#21222E"/>
<path d="M8.50391 20.1049H10.2494L12.7445 14.4055L15.2398 20.1049H16.9857L12.7445 10.606L8.50391 20.1049Z" fill="#21222E"/>
<path d="M21.9321 10.5593H18.0664V12.5117H21.8373C22.675 12.5117 23.2289 12.9146 23.2289 13.7117C23.2289 14.5087 22.675 14.8985 21.8373 14.8985H18.0664V20.1046H20.019V16.8508H21.9321C23.796 16.8508 25.1059 15.461 25.1059 13.7049C25.1059 11.9489 23.7827 10.5593 21.9321 10.5593Z" fill="#21222E"/>
<path d="M28.6171 12.5282C28.9141 12.1905 29.3678 12.0286 29.8673 12.0286C30.4211 12.0286 30.7829 12.1905 31.3098 12.7041L32.5643 11.4615C32.0371 10.9615 31.7867 10.7994 31.3278 10.6107C30.9088 10.4347 30.4395 10.3538 29.913 10.3538C28.8721 10.3538 27.9569 10.7184 27.282 11.4075C26.539 12.1635 26.3125 12.9333 26.3125 14.8514V15.2427C26.3125 16.8501 26.3384 18.1192 27.2837 19.0782C27.9591 19.7672 28.8767 20.1318 29.9165 20.1318C30.4305 20.1318 30.9222 20.0378 31.3274 19.8755C31.7866 19.6861 32.0463 19.5244 32.5734 19.0247L31.3324 17.7821C30.8057 18.295 30.4824 18.4575 29.915 18.4575C29.4021 18.4575 28.9137 18.295 28.6167 17.9577C28.2384 17.5388 28.0481 17.0126 28.0481 15.4863V14.9732C28.0478 14.054 28.1442 13.055 28.6171 12.5282Z" fill="#21222E"/>
<path d="M36.0754 16.5935V10.5593H34.3398V20.1049H35.9529L39.7635 13.879V20.1049H41.499V10.5593H39.8965L36.0754 16.5935Z" fill="#21222E"/>
<path d="M47.6596 14.0305H43.8828V20.1047H47.6595C49.6041 20.1047 50.7793 18.8232 50.7793 17.0675C50.7793 15.3117 49.5909 14.0305 47.6596 14.0305ZM47.5649 18.8035H45.6187V15.7661H47.5649C48.4026 15.7661 48.9018 16.5012 48.9018 17.2847C48.9018 18.0817 48.4024 18.8035 47.5649 18.8035Z" fill="#21222E"/>
<path d="M50.1743 10.5593H43.8828V12.2949H50.1743V10.5593Z" fill="#21222E"/>
<path d="M12.6981 22.7038H12.5262C12.516 22.6543 12.4982 22.6109 12.4728 22.5734C12.4478 22.536 12.4173 22.5046 12.3813 22.4791C12.3457 22.4532 12.3061 22.4338 12.2627 22.4209C12.2192 22.4079 12.1739 22.4015 12.1268 22.4015C12.0408 22.4015 11.9629 22.4232 11.8931 22.4666C11.8238 22.5101 11.7686 22.5741 11.7274 22.6587C11.6867 22.7433 11.6664 22.8471 11.6664 22.97C11.6664 23.093 11.6867 23.1967 11.7274 23.2813C11.7686 23.3659 11.8238 23.4299 11.8931 23.4734C11.9629 23.5168 12.0408 23.5386 12.1268 23.5386C12.1739 23.5386 12.2192 23.5321 12.2627 23.5192C12.3061 23.5062 12.3457 23.487 12.3813 23.4616C12.4173 23.4357 12.4478 23.4041 12.4728 23.3666C12.4982 23.3287 12.516 23.2853 12.5262 23.2363H12.6981C12.6852 23.3088 12.6616 23.3738 12.6274 23.4311C12.5932 23.4884 12.5507 23.5372 12.4998 23.5774C12.449 23.6172 12.3919 23.6474 12.3286 23.6682C12.2657 23.689 12.1984 23.6994 12.1268 23.6994C12.0057 23.6994 11.898 23.6698 11.8037 23.6107C11.7094 23.5515 11.6352 23.4674 11.5811 23.3583C11.527 23.2492 11.5 23.1198 11.5 22.97C11.5 22.8203 11.527 22.6908 11.5811 22.5817C11.6352 22.4727 11.7094 22.3885 11.8037 22.3294C11.898 22.2702 12.0057 22.2406 12.1268 22.2406C12.1984 22.2406 12.2657 22.251 12.3286 22.2718C12.3919 22.2926 12.449 22.3231 12.4998 22.3633C12.5507 22.4031 12.5932 22.4516 12.6274 22.5089C12.6616 22.5658 12.6852 22.6307 12.6981 22.7038Z" fill="#21222E"/>
<path d="M14.1186 22.7038H13.9467C13.9365 22.6543 13.9187 22.6109 13.8933 22.5734C13.8683 22.536 13.8378 22.5046 13.8018 22.4791C13.7662 22.4532 13.7267 22.4338 13.6832 22.4209C13.6398 22.4079 13.5945 22.4015 13.5473 22.4015C13.4613 22.4015 13.3834 22.4232 13.3136 22.4666C13.2443 22.5101 13.1891 22.5741 13.1479 22.6587C13.1073 22.7433 13.0869 22.8471 13.0869 22.97C13.0869 23.093 13.1073 23.1967 13.1479 23.2813C13.1891 23.3659 13.2443 23.4299 13.3136 23.4734C13.3834 23.5168 13.4613 23.5386 13.5473 23.5386C13.5945 23.5386 13.6398 23.5321 13.6832 23.5192C13.7267 23.5062 13.7662 23.487 13.8018 23.4616C13.8378 23.4357 13.8683 23.4041 13.8933 23.3666C13.9187 23.3287 13.9365 23.2853 13.9467 23.2363H14.1186C14.1057 23.3088 14.0821 23.3738 14.0479 23.4311C14.0137 23.4884 13.9712 23.5372 13.9203 23.5774C13.8695 23.6172 13.8124 23.6474 13.7491 23.6682C13.6862 23.689 13.6189 23.6994 13.5473 23.6994C13.4262 23.6994 13.3185 23.6698 13.2242 23.6107C13.1299 23.5515 13.0557 23.4674 13.0016 23.3583C12.9476 23.2492 12.9205 23.1198 12.9205 22.97C12.9205 22.8203 12.9476 22.6908 13.0016 22.5817C13.0557 22.4727 13.1299 22.3885 13.2242 22.3294C13.3185 22.2702 13.4262 22.2406 13.5473 22.2406C13.6189 22.2406 13.6862 22.251 13.7491 22.2718C13.8124 22.2926 13.8695 22.3231 13.9203 22.3633C13.9712 22.4031 14.0137 22.4516 14.0479 22.5089C14.0821 22.5658 14.1057 22.6307 14.1186 22.7038Z" fill="#21222E"/>
<path d="M15.5946 22.97C15.5946 23.1198 15.5676 23.2492 15.5135 23.3583C15.4594 23.4674 15.3852 23.5515 15.2909 23.6107C15.1966 23.6698 15.0889 23.6994 14.9678 23.6994C14.8467 23.6994 14.739 23.6698 14.6447 23.6107C14.5504 23.5515 14.4762 23.4674 14.4221 23.3583C14.3681 23.2492 14.341 23.1198 14.341 22.97C14.341 22.8203 14.3681 22.6908 14.4221 22.5817C14.4762 22.4727 14.5504 22.3885 14.6447 22.3294C14.739 22.2702 14.8467 22.2406 14.9678 22.2406C15.0889 22.2406 15.1966 22.2702 15.2909 22.3294C15.3852 22.3885 15.4594 22.4727 15.5135 22.5817C15.5676 22.6908 15.5946 22.8203 15.5946 22.97ZM15.4282 22.97C15.4282 22.8471 15.4076 22.7433 15.3665 22.6587C15.3258 22.5741 15.2706 22.5101 15.2008 22.4666C15.1314 22.4232 15.0538 22.4015 14.9678 22.4015C14.8818 22.4015 14.804 22.4232 14.7342 22.4666C14.6648 22.5101 14.6096 22.5741 14.5684 22.6587C14.5278 22.7433 14.5074 22.8471 14.5074 22.97C14.5074 23.093 14.5278 23.1967 14.5684 23.2813C14.6096 23.3659 14.6648 23.4299 14.7342 23.4734C14.804 23.5168 14.8818 23.5386 14.9678 23.5386C15.0538 23.5386 15.1314 23.5168 15.2008 23.4734C15.2706 23.4299 15.3258 23.3659 15.3665 23.2813C15.4076 23.1967 15.4282 23.093 15.4282 22.97Z" fill="#21222E"/>
<path d="M17.0902 23.5164L17.0708 24.0156H16.8933V23.68H16.7934V23.5164H17.0902ZM15.8837 23.68V22.26H16.0474V23.5219H16.7795V22.26H16.9432V23.68H15.8837Z" fill="#21222E"/>
<path d="M17.35 22.26H17.5192V23.3777H17.5331L18.3096 22.26H18.476V23.68H18.3041V22.5651H18.2902L17.5164 23.68H17.35V22.26Z" fill="#21222E"/>
<path d="M18.8783 23.68H18.6981L19.2195 22.26H19.397L19.9184 23.68H19.7381L19.3138 22.4847H19.3027L18.8783 23.68ZM18.9449 23.1253H19.6715V23.2779H18.9449V23.1253Z" fill="#21222E"/>
<path d="M21.346 23.5164L21.3266 24.0156H21.1491V23.68H21.0492V23.5164H21.346ZM20.1395 23.68V22.26H20.3032V23.5219H21.0354V22.26H21.199V23.68H20.1395Z" fill="#21222E"/>
<path d="M21.6058 22.26H21.775V23.3777H21.7889L22.5654 22.26H22.7318V23.68H22.5599V22.5651H22.546L21.7722 23.68H21.6058V22.26Z" fill="#21222E"/>
<path d="M24.0411 23.68H23.8691V22.4126H23.5668C23.4901 22.4126 23.4284 22.4244 23.3817 22.4479C23.335 22.471 23.301 22.5039 23.2797 22.5464C23.2585 22.5889 23.2479 22.6386 23.2479 22.6955C23.2479 22.7523 23.2583 22.8013 23.2791 22.8424C23.3003 22.8831 23.3341 22.9146 23.3803 22.9367C23.427 22.9589 23.4882 22.97 23.564 22.97H23.9468V23.1253H23.5585C23.4485 23.1253 23.3581 23.1071 23.2874 23.0706C23.2167 23.0336 23.1642 22.9827 23.13 22.918C23.0958 22.8533 23.0787 22.7791 23.0787 22.6955C23.0787 22.6118 23.0958 22.5371 23.13 22.4715C23.1642 22.4059 23.2169 22.3543 23.2881 22.3169C23.3593 22.279 23.4503 22.26 23.5613 22.26H24.0411V23.68ZM23.3727 23.0421H23.5668L23.2229 23.68H23.0232L23.3727 23.0421Z" fill="#21222E"/>
<path d="M24.935 23.68V22.26H25.4148C25.5262 22.26 25.6172 22.2801 25.6879 22.3203C25.7591 22.3601 25.8118 22.414 25.846 22.4819C25.8802 22.5498 25.8973 22.6257 25.8973 22.7093C25.8973 22.793 25.8802 22.869 25.846 22.9374C25.8123 23.0058 25.7601 23.0604 25.6893 23.1011C25.6186 23.1413 25.528 23.1614 25.4175 23.1614H25.0736V23.0089H25.412C25.4883 23.0089 25.5495 22.9957 25.5957 22.9693C25.642 22.943 25.6755 22.9074 25.6963 22.8626C25.7175 22.8173 25.7282 22.7662 25.7282 22.7093C25.7282 22.6525 25.7175 22.6016 25.6963 22.5568C25.6755 22.5119 25.6417 22.4768 25.595 22.4514C25.5483 22.4255 25.4864 22.4126 25.4092 22.4126H25.1069V23.68H24.935Z" fill="#21222E"/>
<path d="M26.2492 23.6994V23.5386H26.338C26.3722 23.5386 26.4008 23.5319 26.4239 23.5185C26.4475 23.5051 26.4669 23.4877 26.4822 23.4665C26.4979 23.4452 26.5108 23.423 26.521 23.3999L26.5432 23.3472L26.0523 22.26H26.2381L26.6292 23.142L26.9869 22.26H27.17L26.6791 23.4498C26.6597 23.4942 26.6375 23.5353 26.6125 23.5732C26.588 23.6111 26.5545 23.6417 26.512 23.6648C26.4699 23.6879 26.4128 23.6994 26.3407 23.6994H26.2492Z" fill="#21222E"/>
<path d="M28.2275 23.68L27.7394 23.0283H27.5647V23.68H27.3927V22.26H27.5647V22.8757H27.6396L28.2081 22.26H28.4133L27.8393 22.884L28.4328 23.68H28.2275Z" fill="#21222E"/>
<path d="M29.7864 22.97C29.7864 23.1198 29.7593 23.2492 29.7052 23.3583C29.6512 23.4674 29.577 23.5515 29.4827 23.6107C29.3884 23.6698 29.2807 23.6994 29.1596 23.6994C29.0385 23.6994 28.9308 23.6698 28.8365 23.6107C28.7422 23.5515 28.668 23.4674 28.6139 23.3583C28.5598 23.2492 28.5328 23.1198 28.5328 22.97C28.5328 22.8203 28.5598 22.6908 28.6139 22.5817C28.668 22.4727 28.7422 22.3885 28.8365 22.3294C28.9308 22.2702 29.0385 22.2406 29.1596 22.2406C29.2807 22.2406 29.3884 22.2702 29.4827 22.3294C29.577 22.3885 29.6512 22.4727 29.7052 22.5817C29.7593 22.6908 29.7864 22.8203 29.7864 22.97ZM29.62 22.97C29.62 22.8471 29.5994 22.7433 29.5583 22.6587C29.5176 22.5741 29.4623 22.5101 29.3925 22.4666C29.3232 22.4232 29.2455 22.4015 29.1596 22.4015C29.0736 22.4015 28.9957 22.4232 28.9259 22.4666C28.8566 22.5101 28.8013 22.5741 28.7602 22.6587C28.7195 22.7433 28.6992 22.8471 28.6992 22.97C28.6992 23.093 28.7195 23.1967 28.7602 23.2813C28.8013 23.3659 28.8566 23.4299 28.9259 23.4734C28.9957 23.5168 29.0736 23.5386 29.1596 23.5386C29.2455 23.5386 29.3232 23.5168 29.3925 23.4734C29.4623 23.4299 29.5176 23.3659 29.5583 23.2813C29.5994 23.1967 29.62 23.093 29.62 22.97Z" fill="#21222E"/>
<path d="M30.0755 23.68V22.26H30.5719C30.6709 22.26 30.7524 22.2771 30.8167 22.3113C30.8809 22.3451 30.9288 22.3906 30.9602 22.4479C30.9916 22.5048 31.0074 22.5679 31.0074 22.6372C31.0074 22.6982 30.9965 22.7486 30.9748 22.7884C30.9535 22.8281 30.9253 22.8595 30.8902 22.8827C30.8555 22.9058 30.8178 22.9229 30.7772 22.934V22.9478C30.8206 22.9506 30.8643 22.9659 30.9082 22.9936C30.9521 23.0213 30.9889 23.0611 31.0185 23.1129C31.048 23.1646 31.0628 23.2279 31.0628 23.3028C31.0628 23.374 31.0467 23.438 31.0143 23.4949C30.9819 23.5517 30.9309 23.5968 30.8611 23.6301C30.7913 23.6634 30.7004 23.68 30.5886 23.68H30.0755ZM30.2474 23.5275H30.5886C30.7009 23.5275 30.7806 23.5058 30.8278 23.4623C30.8754 23.4184 30.8992 23.3652 30.8992 23.3028C30.8992 23.2548 30.8869 23.2104 30.8625 23.1697C30.838 23.1286 30.8031 23.0958 30.7578 23.0713C30.7125 23.0463 30.6588 23.0338 30.5969 23.0338H30.2474V23.5275ZM30.2474 22.884H30.5664C30.6182 22.884 30.6648 22.8739 30.7064 22.8535C30.7485 22.8332 30.7818 22.8045 30.8063 22.7676C30.8312 22.7306 30.8437 22.6871 30.8437 22.6372C30.8437 22.5748 30.822 22.5219 30.7786 22.4784C30.7351 22.4345 30.6662 22.4126 30.5719 22.4126H30.2474V22.884Z" fill="#21222E"/>
<path d="M32.5435 22.97C32.5435 23.1198 32.5164 23.2492 32.4624 23.3583C32.4083 23.4674 32.3341 23.5515 32.2398 23.6107C32.1455 23.6698 32.0378 23.6994 31.9167 23.6994C31.7956 23.6994 31.6879 23.6698 31.5936 23.6107C31.4993 23.5515 31.4251 23.4674 31.371 23.3583C31.3169 23.2492 31.2899 23.1198 31.2899 22.97C31.2899 22.8203 31.3169 22.6908 31.371 22.5817C31.4251 22.4727 31.4993 22.3885 31.5936 22.3294C31.6879 22.2702 31.7956 22.2406 31.9167 22.2406C32.0378 22.2406 32.1455 22.2702 32.2398 22.3294C32.3341 22.3885 32.4083 22.4727 32.4624 22.5817C32.5164 22.6908 32.5435 22.8203 32.5435 22.97ZM32.3771 22.97C32.3771 22.8471 32.3565 22.7433 32.3154 22.6587C32.2747 22.5741 32.2195 22.5101 32.1497 22.4666C32.0803 22.4232 32.0027 22.4015 31.9167 22.4015C31.8307 22.4015 31.7528 22.4232 31.683 22.4666C31.6137 22.5101 31.5585 22.5741 31.5173 22.6587C31.4766 22.7433 31.4563 22.8471 31.4563 22.97C31.4563 23.093 31.4766 23.1967 31.5173 23.2813C31.5585 23.3659 31.6137 23.4299 31.683 23.4734C31.7528 23.5168 31.8307 23.5386 31.9167 23.5386C32.0027 23.5386 32.0803 23.5168 32.1497 23.4734C32.2195 23.4299 32.2747 23.3659 32.3154 23.2813C32.3565 23.1967 32.3771 23.093 32.3771 22.97Z" fill="#21222E"/>
<path d="M32.7106 24.0239V23.5275H32.8021C32.8335 23.4988 32.8631 23.4584 32.8909 23.4061C32.9191 23.3534 32.9429 23.2832 32.9623 23.1954C32.9821 23.1071 32.9953 22.995 33.0018 22.8591L33.0323 22.26H33.8754V23.5275H34.0391V24.0211H33.8754V23.68H32.8742V24.0239H32.7106ZM33.0073 23.5275H33.7118V22.4126H33.1876L33.1654 22.8591C33.1599 22.9626 33.1502 23.0565 33.1363 23.1406C33.1224 23.2243 33.1046 23.2984 33.0829 23.3632C33.0612 23.4274 33.036 23.4822 33.0073 23.5275Z" fill="#21222E"/>
<path d="M34.2989 22.26H34.4681V23.3777H34.4819L35.2585 22.26H35.4249V23.68H35.2529V22.5651H35.2391L34.4653 23.68H34.2989V22.26Z" fill="#21222E"/>
<path d="M35.6913 22.4126V22.26H36.7563V22.4126H36.3098V23.68H36.1378V22.4126H35.6913Z" fill="#21222E"/>
<path d="M37.0217 23.68V22.26H37.8787V22.4126H37.1936V22.8924H37.8343V23.0449H37.1936V23.5275H37.8898V23.68H37.0217Z" fill="#21222E"/>
<path d="M38.0666 23.68V23.5219H38.1082C38.1673 23.5219 38.2133 23.503 38.2462 23.4651C38.279 23.4272 38.3025 23.3659 38.3169 23.2813C38.3317 23.1967 38.3416 23.0847 38.3467 22.9451L38.3717 22.26H39.237V23.68H39.065V22.4126H38.5353L38.5131 22.9783C38.5076 23.1272 38.4939 23.2538 38.4722 23.3583C38.4505 23.4628 38.4123 23.5425 38.3578 23.5975C38.3032 23.6525 38.2237 23.68 38.1193 23.68H38.0666Z" fill="#21222E"/>
<path d="M39.5805 23.68V22.26H40.4375V22.4126H39.7525V22.8924H40.3931V23.0449H39.7525V23.5275H40.4486V23.68H39.5805Z" fill="#21222E"/>
<path d="M40.7474 22.26H40.9166V23.3777H40.9305L41.707 22.26H41.8734V23.68H41.7015V22.5651H41.6876L40.9138 23.68H40.7474V22.26ZM41.4463 21.905H41.5989C41.5989 21.9799 41.573 22.0412 41.5212 22.0888C41.4694 22.1364 41.3992 22.1602 41.3104 22.1602C41.2231 22.1602 41.1535 22.1364 41.1017 22.0888C41.0504 22.0412 41.0248 21.9799 41.0248 21.905H41.1773C41.1773 21.9411 41.1873 21.9727 41.2071 22C41.2275 22.0273 41.2619 22.0409 41.3104 22.0409C41.359 22.0409 41.3936 22.0273 41.4144 22C41.4357 21.9727 41.4463 21.9411 41.4463 21.905Z" fill="#21222E"/>
<path d="M43.9093 22.7038H43.7374C43.7272 22.6543 43.7094 22.6109 43.684 22.5734C43.659 22.536 43.6285 22.5046 43.5924 22.4791C43.5568 22.4532 43.5173 22.4338 43.4739 22.4209C43.4304 22.4079 43.3851 22.4015 43.338 22.4015C43.252 22.4015 43.1741 22.4232 43.1043 22.4666C43.035 22.5101 42.9797 22.5741 42.9386 22.6587C42.8979 22.7433 42.8776 22.8471 42.8776 22.97C42.8776 23.093 42.8979 23.1967 42.9386 23.2813C42.9797 23.3659 43.035 23.4299 43.1043 23.4734C43.1741 23.5168 43.252 23.5386 43.338 23.5386C43.3851 23.5386 43.4304 23.5321 43.4739 23.5192C43.5173 23.5062 43.5568 23.487 43.5924 23.4616C43.6285 23.4357 43.659 23.4041 43.684 23.3666C43.7094 23.3287 43.7272 23.2853 43.7374 23.2363H43.9093C43.8964 23.3088 43.8728 23.3738 43.8386 23.4311C43.8044 23.4884 43.7618 23.5372 43.711 23.5774C43.6602 23.6172 43.6031 23.6474 43.5397 23.6682C43.4769 23.689 43.4096 23.6994 43.338 23.6994C43.2169 23.6994 43.1092 23.6698 43.0149 23.6107C42.9206 23.5515 42.8464 23.4674 42.7923 23.3583C42.7382 23.2492 42.7112 23.1198 42.7112 22.97C42.7112 22.8203 42.7382 22.6908 42.7923 22.5817C42.8464 22.4727 42.9206 22.3885 43.0149 22.3294C43.1092 22.2702 43.2169 22.2406 43.338 22.2406C43.4096 22.2406 43.4769 22.251 43.5397 22.2718C43.6031 22.2926 43.6602 22.3231 43.711 22.3633C43.7618 22.4031 43.8044 22.4516 43.8386 22.5089C43.8728 22.5658 43.8964 22.6307 43.9093 22.7038Z" fill="#21222E"/>
<path d="M44.0651 23.68V23.5219H44.1067C44.1659 23.5219 44.2119 23.503 44.2447 23.4651C44.2775 23.4272 44.3011 23.3659 44.3154 23.2813C44.3302 23.1967 44.3402 23.0847 44.3452 22.9451L44.3702 22.26H45.2355V23.68H45.0636V22.4126H44.5338L44.5117 22.9783C44.5061 23.1272 44.4925 23.2538 44.4707 23.3583C44.449 23.4628 44.4109 23.5425 44.3563 23.5975C44.3018 23.6525 44.2223 23.68 44.1178 23.68H44.0651Z" fill="#21222E"/>
<path d="M45.654 23.6994V23.5386H45.7427C45.7769 23.5386 45.8056 23.5319 45.8287 23.5185C45.8523 23.5051 45.8717 23.4877 45.8869 23.4665C45.9026 23.4452 45.9156 23.423 45.9258 23.3999L45.9479 23.3472L45.457 22.26H45.6429L46.0339 23.142L46.3917 22.26H46.5747L46.0838 23.4498C46.0644 23.4942 46.0422 23.5353 46.0173 23.5732C45.9928 23.6111 45.9593 23.6417 45.9167 23.6648C45.8747 23.6879 45.8176 23.6994 45.7455 23.6994H45.654Z" fill="#21222E"/>
<path d="M47.6378 22.26V23.68H47.4659V22.26H47.6378ZM46.6782 23.68L47.1386 22.9395L46.717 22.26H46.925L47.2939 22.8896H47.8125L48.1814 22.26H48.3894L47.9651 22.9423L48.4255 23.68H48.2286L47.8431 23.0505H47.2606L46.8724 23.68H46.6782Z" fill="#21222E"/>
<path d="M48.6508 23.68V22.26H49.5078V22.4126H48.8228V22.8563H49.1833C49.285 22.8563 49.3707 22.873 49.4405 22.9062C49.5108 22.9395 49.564 22.9864 49.6 23.047C49.6365 23.1075 49.6548 23.179 49.6548 23.2612C49.6548 23.3435 49.6365 23.4161 49.6 23.4789C49.564 23.5418 49.5108 23.591 49.4405 23.6266C49.3707 23.6622 49.285 23.68 49.1833 23.68H48.6508ZM48.8228 23.5303H49.1833C49.248 23.5303 49.3028 23.5173 49.3476 23.4914C49.3929 23.4651 49.4271 23.4313 49.4502 23.3902C49.4738 23.3486 49.4856 23.3047 49.4856 23.2585C49.4856 23.1905 49.4595 23.132 49.4073 23.083C49.355 23.0336 49.2804 23.0089 49.1833 23.0089H48.8228V23.5303Z" fill="#21222E"/>
<path d="M50.487 22.26H50.6562V23.3777H50.67L51.4466 22.26H51.613V23.68H51.441V22.5651H51.4272L50.6534 23.68H50.487V22.26Z" fill="#21222E"/>
<path d="M51.9571 23.68V22.26H52.129V22.8924H52.8862V22.26H53.0581V23.68H52.8862V23.0449H52.129V23.68H51.9571Z" fill="#21222E"/>
<path d="M53.8905 22.4292H54.1151C54.2205 22.4292 54.3141 22.4528 54.3959 22.4999C54.4778 22.5471 54.542 22.6127 54.5887 22.6968C54.6354 22.781 54.6587 22.8785 54.6587 22.9894C54.6587 23.1004 54.6354 23.1981 54.5887 23.2827C54.542 23.3673 54.4778 23.4334 54.3959 23.481C54.3141 23.5286 54.2205 23.5524 54.1151 23.5524H53.8905C53.7851 23.5524 53.6915 23.5289 53.6097 23.4817C53.5279 23.4346 53.4636 23.3689 53.4169 23.2848C53.3702 23.2007 53.3469 23.1031 53.3469 22.9922C53.3469 22.8813 53.3702 22.7835 53.4169 22.6989C53.4636 22.6143 53.5279 22.5482 53.6097 22.5006C53.6915 22.453 53.7851 22.4292 53.8905 22.4292ZM53.8905 22.5817C53.8101 22.5817 53.7421 22.5986 53.6866 22.6324C53.6316 22.6661 53.5898 22.7137 53.5611 22.7752C53.5329 22.8367 53.5189 22.909 53.5189 22.9922C53.5189 23.0745 53.5329 23.1461 53.5611 23.2071C53.5898 23.2682 53.6316 23.3155 53.6866 23.3493C53.7421 23.383 53.8101 23.3999 53.8905 23.3999H54.1151C54.1956 23.3999 54.2633 23.383 54.3183 23.3493C54.3738 23.3155 54.4156 23.2679 54.4438 23.2065C54.4724 23.145 54.4868 23.0726 54.4868 22.9894C54.4868 22.9072 54.4724 22.8355 54.4438 22.7745C54.4156 22.7135 54.3738 22.6661 54.3183 22.6324C54.2633 22.5986 54.1956 22.5817 54.1151 22.5817H53.8905ZM54.0902 22.2351V23.7383H53.9182V22.2351H54.0902Z" fill="#21222E"/>
<path d="M56.1449 22.97C56.1449 23.1198 56.1179 23.2492 56.0638 23.3583C56.0097 23.4674 55.9355 23.5515 55.8412 23.6107C55.7469 23.6698 55.6392 23.6994 55.5181 23.6994C55.397 23.6994 55.2893 23.6698 55.195 23.6107C55.1007 23.5515 55.0266 23.4674 54.9725 23.3583C54.9184 23.2492 54.8913 23.1198 54.8913 22.97C54.8913 22.8203 54.9184 22.6908 54.9725 22.5817C55.0266 22.4727 55.1007 22.3885 55.195 22.3294C55.2893 22.2702 55.397 22.2406 55.5181 22.2406C55.6392 22.2406 55.7469 22.2702 55.8412 22.3294C55.9355 22.3885 56.0097 22.4727 56.0638 22.5817C56.1179 22.6908 56.1449 22.8203 56.1449 22.97ZM55.9785 22.97C55.9785 22.8471 55.958 22.7433 55.9168 22.6587C55.8761 22.5741 55.8209 22.5101 55.7511 22.4666C55.6818 22.4232 55.6041 22.4015 55.5181 22.4015C55.4322 22.4015 55.3543 22.4232 55.2845 22.4666C55.2151 22.5101 55.1599 22.5741 55.1188 22.6587C55.0781 22.7433 55.0578 22.8471 55.0578 22.97C55.0578 23.093 55.0781 23.1967 55.1188 23.2813C55.1599 23.3659 55.2151 23.4299 55.2845 23.4734C55.3543 23.5168 55.4322 23.5386 55.5181 23.5386C55.6041 23.5386 55.6818 23.5168 55.7511 23.4734C55.8209 23.4299 55.8761 23.3659 55.9168 23.2813C55.958 23.1967 55.9785 23.093 55.9785 22.97Z" fill="#21222E"/>
</svg>
