<svg width="14" height="13" viewBox="0 0 14 13" fill="none" xmlns="http://www.w3.org/2000/svg">
<path d="M0.302485 6.61466L3.43318 7.78313L4.64495 11.6802C4.72248 11.9298 5.02769 12.022 5.23027 11.8564L6.97537 10.4338C7.15829 10.2847 7.41885 10.2773 7.61001 10.416L10.7576 12.7012C10.9743 12.8587 11.2813 12.74 11.3356 12.4781L13.6414 1.3871C13.7007 1.10105 13.4196 0.862422 13.1473 0.967766L0.298816 5.92431C-0.0182566 6.04659 -0.015494 6.4955 0.302485 6.61466ZM4.44966 7.16113L10.5682 3.39271C10.6782 3.32518 10.7913 3.47387 10.6969 3.56146L5.6473 8.25528C5.46981 8.4205 5.35531 8.6416 5.32289 8.88159L5.15088 10.1563C5.1281 10.3265 4.88901 10.3434 4.84205 10.1787L4.1805 7.85419C4.10473 7.58907 4.21515 7.30587 4.44966 7.16113Z" fill="#A4A5BB"/>
</svg>
