<svg width="527" height="381" viewBox="0 0 527 381" fill="none" xmlns="http://www.w3.org/2000/svg">
<path d="M445.692 4.48015V146.514C445.262 146.079 444.839 145.644 444.41 145.208C444.147 144.942 443.884 144.676 443.62 144.41C426.198 126.921 404.853 113.828 381.353 106.215C357.852 98.6029 332.874 96.69 308.485 100.635C290.846 103.479 274.271 107.834 264.359 114.502C189.814 164.655 105.233 116.862 81.5512 103.498C81.1217 103.261 80.6922 103.018 80.269 102.768V4.48016C80.269 3.29195 80.7419 2.15241 81.5835 1.31221C82.425 0.472022 83.5665 0 84.7567 0H441.204C442.395 0 443.536 0.472015 444.378 1.3122C445.219 2.15239 445.692 3.29194 445.692 4.48015Z" fill="#272862"/>
<path d="M182.462 360.912C182.388 360.912 182.317 360.889 182.257 360.846C182.197 360.804 182.152 360.743 182.128 360.674L167.489 255.523L138.168 360.759C138.114 360.836 138.033 360.888 137.941 360.905C137.848 360.922 137.754 360.902 137.676 360.849C137.599 360.796 137.546 360.714 137.529 360.622C137.512 360.53 137.532 360.436 137.585 360.358L167.303 254.546C167.341 254.493 167.392 254.451 167.452 254.424C167.512 254.398 167.578 254.388 167.642 254.396C167.707 254.405 167.768 254.432 167.819 254.474C167.87 254.515 167.908 254.57 167.929 254.632L182.796 360.444C182.815 360.497 182.82 360.554 182.812 360.61C182.804 360.665 182.783 360.718 182.75 360.764C182.717 360.81 182.674 360.847 182.624 360.873C182.574 360.898 182.518 360.912 182.462 360.912Z" fill="white"/>
<path d="M161.402 360.912C161.351 360.912 161.301 360.902 161.255 360.881C161.209 360.86 161.168 360.829 161.134 360.791C161.101 360.753 161.076 360.708 161.062 360.659C161.048 360.61 161.044 360.559 161.052 360.509L167.244 254.697C167.257 254.604 167.307 254.52 167.382 254.464C167.457 254.408 167.552 254.384 167.645 254.397C167.738 254.41 167.821 254.46 167.878 254.535C167.934 254.61 167.958 254.704 167.945 254.797L161.752 360.609C161.74 360.693 161.698 360.77 161.634 360.826C161.569 360.881 161.487 360.912 161.402 360.912Z" fill="white"/>
<path d="M215.362 234.449C215.597 235.375 215.536 236.351 215.189 237.242C214.842 238.132 214.226 238.892 213.426 239.416C213.183 239.577 212.924 239.713 212.654 239.824L146.897 266.848C145.769 267.312 144.502 267.309 143.376 266.84C142.25 266.372 141.356 265.476 140.891 264.35C140.808 264.149 140.739 263.942 140.686 263.732C140.414 262.66 140.538 261.527 141.036 260.54C141.533 259.553 142.371 258.778 143.394 258.357L209.151 231.332C209.166 231.326 209.182 231.32 209.198 231.317C209.806 231.074 210.459 230.963 211.113 230.993C211.768 231.022 212.408 231.191 212.992 231.488C213.575 231.784 214.089 232.202 214.498 232.713C214.906 233.223 215.201 233.815 215.362 234.449Z" fill="#EFF1F4"/>
<path d="M147.821 249.47C148.321 249.343 148.852 249.42 149.295 249.683C149.739 249.946 150.06 250.375 150.187 250.874L151.495 256.009C151.622 256.508 151.545 257.037 151.282 257.48C151.018 257.923 150.589 258.243 150.089 258.37C149.589 258.497 149.058 258.421 148.615 258.157C148.171 257.894 147.85 257.466 147.723 256.966L146.415 251.832C146.352 251.585 146.339 251.327 146.375 251.075C146.412 250.822 146.498 250.58 146.628 250.36C146.759 250.141 146.932 249.95 147.136 249.797C147.341 249.644 147.574 249.533 147.821 249.47Z" fill="#D5D6E4"/>
<path d="M143.876 249.743L151.419 247.828C151.737 247.747 152.075 247.796 152.357 247.963C152.639 248.131 152.843 248.403 152.924 248.721C153.005 249.039 152.956 249.376 152.789 249.658C152.621 249.939 152.348 250.143 152.029 250.224L144.486 252.139C144.329 252.179 144.165 252.188 144.004 252.165C143.843 252.141 143.688 252.087 143.548 252.004C143.409 251.921 143.286 251.811 143.189 251.681C143.092 251.551 143.021 251.403 142.981 251.246C142.9 250.928 142.949 250.591 143.117 250.31C143.284 250.028 143.558 249.824 143.876 249.743Z" fill="#D5D6E4"/>
<path d="M140.97 264.681C140.551 263.822 140.411 262.854 140.568 261.912C140.726 260.97 141.174 260.1 141.85 259.424C142.956 259.446 144.034 259.772 144.966 260.366C145.898 260.96 146.647 261.799 147.132 262.791C147.697 263.938 147.877 265.236 147.644 266.492C147.098 266.854 146.482 267.095 145.835 267.199C145.189 267.304 144.527 267.269 143.895 267.097C143.263 266.926 142.675 266.621 142.171 266.205C141.666 265.788 141.257 265.268 140.97 264.681Z" fill="#A4A5BB"/>
<path d="M248.514 366.48C248.534 365.972 245.838 365.454 242.492 365.324C239.146 365.194 236.418 365.5 236.398 366.008C236.378 366.517 239.074 367.034 242.42 367.165C245.766 367.295 248.494 366.988 248.514 366.48Z" fill="#E6E6E6"/>
<path d="M286.891 370.049C286.911 369.541 284.214 369.023 280.868 368.893C277.523 368.763 274.794 369.069 274.774 369.578C274.754 370.086 277.451 370.604 280.797 370.734C284.142 370.864 286.871 370.558 286.891 370.049Z" fill="#3F3D56"/>
<path d="M232.981 372.444C233.001 371.936 230.305 371.418 226.959 371.288C223.613 371.157 220.884 371.464 220.865 371.972C220.845 372.481 223.541 372.998 226.887 373.128C230.233 373.259 232.961 372.952 232.981 372.444Z" fill="#FF6584"/>
<path d="M274.368 378.201C274.388 377.692 271.692 377.175 268.346 377.044C265 376.914 262.272 377.221 262.252 377.729C262.232 378.237 264.928 378.755 268.274 378.885C271.62 379.016 274.349 378.709 274.368 378.201Z" fill="#FF6584"/>
<path d="M214.118 373.829C214.12 373.371 212.916 372.995 211.429 372.987C209.941 372.98 208.734 373.345 208.732 373.803C208.729 374.26 209.933 374.637 211.421 374.644C212.908 374.651 214.116 374.286 214.118 373.829Z" fill="#E6E6E6"/>
<path d="M229.007 377.257C229.01 376.8 227.805 376.423 226.318 376.416C224.831 376.409 223.623 376.774 223.621 377.231C223.618 377.689 224.823 378.065 226.31 378.073C227.797 378.08 229.005 377.715 229.007 377.257Z" fill="#E6E6E6"/>
<path d="M204.664 378.547C204.666 378.09 203.462 377.713 201.974 377.706C200.487 377.699 199.279 378.064 199.277 378.521C199.275 378.979 200.479 379.355 201.966 379.363C203.454 379.37 204.661 379.005 204.664 378.547Z" fill="#3F3D56"/>
<path d="M255.842 372.686C255.844 372.229 254.64 371.852 253.152 371.845C251.665 371.838 250.457 372.203 250.455 372.66C250.453 373.117 251.657 373.494 253.144 373.501C254.632 373.508 255.84 373.143 255.842 372.686Z" fill="#E6E6E6"/>
<path d="M238.463 369.351C238.466 368.894 237.262 368.517 235.774 368.51C234.287 368.503 233.079 368.868 233.077 369.325C233.075 369.783 234.279 370.159 235.766 370.166C237.254 370.173 238.461 369.808 238.463 369.351Z" fill="#FF6584"/>
<path d="M267.353 367.506C267.355 367.049 266.151 366.672 264.663 366.665C263.176 366.658 261.968 367.023 261.966 367.48C261.964 367.938 263.168 368.314 264.655 368.322C266.143 368.329 267.35 367.964 267.353 367.506Z" fill="#3F3D56"/>
<path d="M245.397 377.416C245.4 376.959 244.196 376.583 242.708 376.575C241.221 376.568 240.013 376.933 240.011 377.391C240.009 377.848 241.213 378.225 242.7 378.232C244.188 378.239 245.395 377.874 245.397 377.416Z" fill="#3F3D56"/>
<path d="M441.204 0H84.7567C83.5669 0.00130444 82.4262 0.47374 81.5849 1.31365C80.7436 2.15356 80.2703 3.29235 80.269 4.48016V376.333C80.2716 377.521 80.7452 378.659 81.5863 379.498C82.4273 380.338 83.5673 380.811 84.7567 380.814H441.204C442.394 380.812 443.535 380.34 444.376 379.5C445.217 378.66 445.691 377.521 445.692 376.333V4.48016C445.691 3.29235 445.217 2.15356 444.376 1.31365C443.535 0.47374 442.394 0.00130613 441.204 0ZM444.41 376.333C444.41 377.182 444.072 377.996 443.471 378.596C442.87 379.196 442.054 379.533 441.204 379.533H84.7567C83.9066 379.533 83.0915 379.196 82.4904 378.596C81.8894 377.996 81.5515 377.182 81.5512 376.333V4.48016C81.5526 3.63186 81.8908 2.81871 82.4916 2.21888C83.0925 1.61904 83.907 1.28144 84.7567 1.28005H441.204C442.054 1.28144 442.869 1.61904 443.469 2.21888C444.07 2.81871 444.408 3.63186 444.41 4.48016V376.333ZM328.051 0.633626C327.692 0.416018 327.333 0.204807 326.974 0H289.509C289.24 0.422415 288.983 0.85123 288.733 1.28005H329.129C328.769 1.06242 328.41 0.851243 328.051 0.633616V0.633626ZM80.269 127.019V136.555C80.4293 136.568 80.596 136.568 80.7563 136.574L80.4357 154.905L80.269 154.815V156.62L80.4037 156.69L80.269 164.377V190.874H81.5512V122.699C81.1922 124.081 80.7648 125.521 80.269 127.019V127.019ZM328.051 0.633626C327.692 0.416018 327.333 0.204807 326.974 0H289.509C289.24 0.422415 288.983 0.85123 288.733 1.28005H329.129C328.769 1.06242 328.41 0.851243 328.051 0.633616V0.633626Z" fill="#EFF1F4"/>
<path d="M396.527 37.6462C400.068 37.6462 402.938 34.7807 402.938 31.2459C402.938 27.7112 400.068 24.8457 396.527 24.8457C392.986 24.8457 390.116 27.7112 390.116 31.2459C390.116 34.7807 392.986 37.6462 396.527 37.6462Z" fill="#55B2E5"/>
<path d="M314.467 59.4068C315.175 59.4068 315.749 58.8337 315.749 58.1267C315.749 57.4198 315.175 56.8467 314.467 56.8467C313.759 56.8467 313.185 57.4198 313.185 58.1267C313.185 58.8337 313.759 59.4068 314.467 59.4068Z" fill="#55B2E5"/>
<path d="M249.076 84.3677C249.784 84.3677 250.358 83.7946 250.358 83.0877C250.358 82.3807 249.784 81.8076 249.076 81.8076C248.368 81.8076 247.793 82.3807 247.793 83.0877C247.793 83.7946 248.368 84.3677 249.076 84.3677Z" fill="#55B2E5"/>
<path d="M176.632 51.7261C177.34 51.7261 177.914 51.153 177.914 50.4461C177.914 49.7391 177.34 49.166 176.632 49.166C175.924 49.166 175.35 49.7391 175.35 50.4461C175.35 51.153 175.924 51.7261 176.632 51.7261Z" fill="#FF6584"/>
<path d="M207.405 19.7251C208.113 19.7251 208.687 19.152 208.687 18.4451C208.687 17.7381 208.113 17.165 207.405 17.165C206.697 17.165 206.123 17.7381 206.123 18.4451C206.123 19.152 206.697 19.7251 207.405 19.7251Z" fill="white"/>
<path d="M421.53 12.6851C422.238 12.6851 422.812 12.112 422.812 11.405C422.812 10.6981 422.238 10.125 421.53 10.125C420.822 10.125 420.248 10.6981 420.248 11.405C420.248 12.112 420.822 12.6851 421.53 12.6851Z" fill="white"/>
<path d="M355.497 34.4458C356.205 34.4458 356.779 33.8727 356.779 33.1658C356.779 32.4588 356.205 31.8857 355.497 31.8857C354.789 31.8857 354.215 32.4588 354.215 33.1658C354.215 33.8727 354.789 34.4458 355.497 34.4458Z" fill="white"/>
<path d="M431.145 55.5669C431.854 55.5669 432.428 54.9938 432.428 54.2869C432.428 53.5799 431.854 53.0068 431.145 53.0068C430.437 53.0068 429.863 53.5799 429.863 54.2869C429.863 54.9938 430.437 55.5669 431.145 55.5669Z" fill="white"/>
<path d="M206.122 76.687C206.83 76.687 207.404 76.114 207.404 75.407C207.404 74.7001 206.83 74.127 206.122 74.127C205.414 74.127 204.84 74.7001 204.84 75.407C204.84 76.114 205.414 76.687 206.122 76.687Z" fill="white"/>
<path d="M108.035 72.8472C108.743 72.8472 109.317 72.2741 109.317 71.5672C109.317 70.8602 108.743 70.2871 108.035 70.2871C107.327 70.2871 106.753 70.8602 106.753 71.5672C106.753 72.2741 107.327 72.8472 108.035 72.8472Z" fill="#FF6584"/>
<path d="M156.142 86.3436L154.933 86.4486L154.66 87.6294L154.186 86.5138L152.977 86.6194L153.893 85.8245L153.418 84.709L154.459 85.333L155.375 84.5381L155.102 85.7189L156.142 86.3436Z" fill="white"/>
<path d="M310.646 18.5008L309.437 18.6058L309.163 19.7866L308.689 18.6711L307.48 18.7767L308.396 17.9818L307.922 16.8662L308.962 17.4902L309.878 16.6953L309.605 17.8762L310.646 18.5008Z" fill="white"/>
<path d="M383.73 70.3426L382.521 70.4476L382.248 71.6284L381.774 70.5129L380.564 70.6185L381.481 69.8236L381.006 68.708L382.047 69.332L382.963 68.5371L382.69 69.718L383.73 70.3426Z" fill="white"/>
<path d="M247.819 55.6219L246.609 55.7269L246.336 56.9077L245.862 55.7922L244.653 55.8978L245.569 55.1029L245.095 53.9873L246.135 54.6113L247.051 53.8164L246.778 54.9973L247.819 55.6219Z" fill="white"/>
<path d="M190.761 112.585L189.552 112.69L189.279 113.871L188.804 112.755L187.595 112.861L188.511 112.066L188.037 110.95L189.077 111.574L189.994 110.779L189.72 111.96L190.761 112.585Z" fill="white"/>
<path d="M432.453 111.305L431.244 111.409L430.971 112.59L430.496 111.475L429.287 111.58L430.203 110.785L429.729 109.67L430.769 110.294L431.685 109.499L431.412 110.68L432.453 111.305Z" fill="white"/>
<path d="M122.164 37.0614L120.955 37.1663L120.682 38.3472L120.208 37.2316L118.999 37.3372L119.915 36.5423L119.44 35.4267L120.481 36.0508L121.397 35.2559L121.124 36.4367L122.164 37.0614Z" fill="white"/>
<path d="M263.273 230.166L265.366 197.795C265.459 196.424 266.088 195.144 267.117 194.232C268.147 193.32 269.495 192.848 270.869 192.919C271.581 192.956 272.277 193.137 272.916 193.451C273.555 193.765 274.123 194.206 274.585 194.746C275.048 195.286 275.396 195.915 275.607 196.594C275.818 197.273 275.889 197.988 275.815 198.695L272.608 232.254L271.52 252.727C272.365 253.138 273.063 253.798 273.52 254.618C273.976 255.438 274.168 256.379 274.07 257.312C273.972 258.245 273.589 259.125 272.973 259.833C272.356 260.542 271.536 261.043 270.624 261.27C269.712 261.496 268.752 261.437 267.875 261.1C266.998 260.763 266.246 260.165 265.722 259.387C265.197 258.609 264.925 257.688 264.943 256.75C264.96 255.812 265.267 254.902 265.821 254.144L263.273 230.166Z" fill="#A0616A"/>
<path d="M262.789 205.027C262.56 204.778 262.419 204.46 262.389 204.123C262.358 203.787 262.439 203.449 262.619 203.163C262.835 202.805 262.933 202.39 262.9 201.974C262.893 201.893 262.881 201.814 262.863 201.735C262.745 201.263 262.742 200.77 262.856 200.297C262.969 199.824 263.195 199.386 263.515 199.019C264.585 197.827 265.146 195.984 265.421 194.332C265.614 192.51 266.027 190.717 266.651 188.993C267.696 186.566 270.06 184.454 273.141 185.616C274.443 186.131 275.529 187.078 276.213 188.298C277.679 190.83 277.588 193.824 277.473 196.687L278.074 195.576C277.894 198.701 278.348 201.831 279.409 204.777C278.719 204.617 278.194 205.532 278.394 206.21C278.685 206.858 279.14 207.419 279.715 207.837C280.365 208.449 280.967 209.345 280.305 210.22C280.141 210.425 279.936 210.594 279.703 210.716C279.47 210.838 279.215 210.911 278.953 210.93C274.005 211.392 269.016 210.828 264.297 209.273C263.25 208.927 262.13 208.458 261.613 207.485C261.096 206.511 261.686 204.972 262.789 205.027Z" fill="#F2F2F2"/>
<path d="M306.044 370.124H311.761L314.481 348.112H306.044V370.124Z" fill="#A0616A"/>
<path d="M304.179 365.214L313.311 364.67V368.576L321.994 374.563C322.423 374.858 322.746 375.283 322.916 375.775C323.086 376.267 323.094 376.8 322.938 377.297C322.783 377.793 322.473 378.227 322.053 378.536C321.634 378.844 321.126 379.01 320.605 379.01H309.732L307.858 375.147L307.127 379.01H303.027L304.179 365.214Z" fill="#1C1A40"/>
<path d="M275.312 365.097L280.636 367.174L291.197 347.662L283.339 344.596L275.312 365.097Z" fill="#A0616A"/>
<path d="M276 359.779L284.704 362.592L283.28 366.23L289.183 374.961C289.475 375.392 289.621 375.905 289.6 376.425C289.579 376.945 289.392 377.444 289.066 377.851C288.741 378.257 288.294 378.549 287.79 378.683C287.287 378.818 286.753 378.788 286.268 378.599L276.142 374.647L275.805 370.367L273.715 373.7L269.896 372.21L276 359.779Z" fill="#1C1A40"/>
<path d="M278.906 227.814H305.575C305.575 227.814 315.619 299.42 315.647 299.551C315.676 299.681 309.979 301.749 312.569 304.334L315.158 306.919C317.23 308.988 313.621 316.054 313.621 316.054L317.748 358.105H300.702L292.371 271.245L303.642 312.887L288.958 358.105L278.388 351.901L276.317 346.213L280.432 342.105C280.432 342.105 281.496 335.93 281.496 332.282C281.496 328.634 278.388 331.737 281.496 328.634C282.84 327.292 286.625 310.824 286.625 310.824L274.245 271.245L271.296 253.577C270.537 249.023 271.219 244.346 273.248 240.197C274.888 236.839 276.955 232.442 278.906 227.814Z" fill="#1C1A40"/>
<path d="M277.352 183.868L279.125 178.559C279.519 177.378 280.258 176.342 281.247 175.583C282.235 174.824 283.428 174.377 284.673 174.3L286.248 174.202C287.649 174.116 289.039 174.502 290.193 175.298C291.348 176.095 292.201 177.256 292.615 178.595C292.978 179.78 293.687 180.83 294.651 181.61C295.615 182.39 296.79 182.865 298.026 182.974C302.629 183.365 309.462 184.755 309.462 189.555C309.462 196.793 301.693 215.923 303.247 217.474C304.801 219.026 308.426 225.417 306.354 227.298C305.815 227.788 306.25 230.145 306.423 231.833C306.735 234.89 285.121 228.131 278.906 229.883C272.691 231.635 275.799 218.509 274.763 217.474C273.791 216.291 272.924 215.025 272.173 213.691C271.806 213.077 271.548 212.404 271.409 211.703L269.625 202.69C269.596 202.54 269.572 202.393 269.553 202.241C269.318 200.312 267.938 187.332 273.209 185.419C278.906 183.351 277.352 183.868 277.352 183.868Z" fill="#F2F2F2"/>
<path d="M301.487 231.471L300.672 199.043C300.641 197.669 301.153 196.338 302.097 195.338C303.04 194.337 304.34 193.747 305.716 193.695C306.428 193.668 307.137 193.786 307.802 194.042C308.466 194.298 309.072 194.686 309.581 195.183C310.09 195.68 310.493 196.275 310.764 196.932C311.035 197.59 311.17 198.295 311.159 199.006L310.972 232.717L311.723 253.205C312.602 253.539 313.356 254.134 313.884 254.91C314.412 255.686 314.688 256.606 314.674 257.544C314.66 258.482 314.357 259.393 313.806 260.153C313.256 260.914 312.484 261.486 311.596 261.794C310.708 262.101 309.747 262.128 308.843 261.87C307.939 261.613 307.137 261.085 306.544 260.356C305.952 259.628 305.599 258.735 305.532 257.799C305.466 256.863 305.69 255.93 306.173 255.125L301.487 231.471Z" fill="#A0616A"/>
<path d="M297.853 205.726C297.603 205.498 297.435 205.194 297.374 204.862C297.313 204.529 297.364 204.186 297.518 203.885C297.7 203.509 297.761 203.086 297.691 202.675C297.677 202.596 297.657 202.517 297.632 202.441C297.472 201.981 297.426 201.49 297.496 201.009C297.567 200.528 297.753 200.071 298.039 199.677C298.997 198.394 299.392 196.508 299.517 194.839C299.546 193.007 299.797 191.184 300.264 189.411C301.087 186.901 303.252 184.587 306.425 185.469C307.768 185.865 308.934 186.711 309.725 187.865C311.412 190.256 311.59 193.246 311.732 196.108L312.23 194.948C312.331 198.077 313.064 201.153 314.385 203.992C313.683 203.895 313.242 204.853 313.502 205.511C313.85 206.13 314.354 206.648 314.964 207.013C315.666 207.565 316.345 208.403 315.765 209.334C315.62 209.553 315.431 209.74 315.21 209.882C314.989 210.024 314.741 210.12 314.482 210.162C309.595 211.064 304.575 210.948 299.737 209.82C298.662 209.569 297.505 209.202 296.903 208.279C296.301 207.355 296.751 205.77 297.853 205.726Z" fill="#F2F2F2"/>
<path d="M284.49 175.079C290.782 175.079 295.883 169.987 295.883 163.705C295.883 157.423 290.782 152.33 284.49 152.33C278.197 152.33 273.096 157.423 273.096 163.705C273.096 169.987 278.197 175.079 284.49 175.079Z" fill="#A0616A"/>
<path d="M273.724 180.988C273.73 179.656 275.481 178.959 276.751 179.376C278.016 179.795 278.927 180.87 279.945 181.726C280.965 182.587 282.378 183.274 283.597 182.738C284.753 182.227 285.22 180.86 286.086 179.943C287.132 178.971 288.499 178.415 289.928 178.383C289.899 178.253 289.87 178.124 289.853 177.994C289.736 177.309 289.707 176.611 289.767 175.919C290.058 176.512 290.44 177.055 290.9 177.53C291.19 177.831 291.511 178.101 291.858 178.335C293.291 178.446 294.732 178.338 296.132 178.014C297.804 177.521 299.371 176.045 299.24 174.303C299.135 173.661 298.879 173.054 298.493 172.531C298.107 172.008 297.602 171.583 297.02 171.293C295.896 170.644 299.836 167.765 298.663 167.214C297.534 166.717 296.518 165.997 295.675 165.098C294.832 164.198 294.181 163.138 293.759 161.98C293.417 160.952 293.324 159.858 293.488 158.787C293.652 157.716 294.068 156.699 294.702 155.82C295.739 155.689 291.635 156.181 292.618 155.823C292.502 155.137 292.453 156.288 292.514 155.597C292.804 156.192 293.208 154.885 293.665 155.359C294.544 154.914 295.231 154.165 295.596 153.25C296.348 151.251 295.073 150.859 293.419 149.502C292.163 148.475 290.682 147.76 289.095 147.416C287.509 147.073 285.864 147.11 284.295 147.525C282.727 147.941 281.279 148.722 280.072 149.805C278.864 150.888 277.932 152.241 277.351 153.754C274.844 152.502 271.617 153.682 269.863 155.871C268.116 158.062 267.587 160.989 267.567 163.789C267.536 170.065 269.716 176.153 273.724 180.988Z" fill="#1C1A40"/>
<path d="M265.225 216.707L255.6 218.879C254.484 225.208 254.688 250.911 254.688 250.911L253.86 275.505C253.422 276.131 253.157 276.862 253.091 277.623C253.026 278.384 253.162 279.149 253.487 279.841C253.812 280.533 254.314 281.127 254.942 281.563C255.57 282 256.302 282.264 257.065 282.328C257.827 282.393 258.593 282.255 259.286 281.93C259.978 281.605 260.573 281.103 261.009 280.476C261.446 279.848 261.709 279.117 261.773 278.356C261.836 277.594 261.698 276.83 261.371 276.139L262.623 245.807L265.225 216.707Z" fill="#FFB6B6"/>
<path d="M254.102 191.969C255.598 191.649 257.146 191.662 258.636 192.008C260.126 192.353 261.522 193.022 262.724 193.967C263.926 194.912 264.904 196.11 265.59 197.475C266.275 198.841 266.65 200.34 266.689 201.867L266.848 208.085C266.848 208.085 269.284 239.774 267.045 245.963L263.867 263.833L253.661 265.134L253.159 246.333C253.159 246.333 256.173 225.577 252.902 222.209C250.898 220.147 247.7 211.605 246.095 204.277C245.81 202.944 245.791 201.568 246.039 200.227C246.287 198.887 246.798 197.608 247.541 196.465C248.285 195.322 249.247 194.336 250.373 193.565C251.499 192.793 252.766 192.251 254.102 191.969Z" fill="#55B2E5"/>
<path d="M232.37 373.965L227.033 373.965L224.494 353.414L232.371 353.415L232.37 373.965Z" fill="#FFB6B6"/>
<path d="M232.558 379.523L216.146 379.522V379.315C216.147 377.624 216.82 376.002 218.018 374.806C219.215 373.61 220.84 372.938 222.534 372.938H222.535L225.532 370.668L231.125 372.939H232.558L232.558 379.523Z" fill="#1C1A40"/>
<path d="M256.625 373.965L251.289 373.965L248.75 353.414L256.627 353.415L256.625 373.965Z" fill="#FFB6B6"/>
<path d="M256.813 379.523L240.402 379.522V379.315C240.402 377.624 241.075 376.002 242.273 374.806C243.471 373.61 245.095 372.938 246.79 372.938H246.79L249.788 370.668L255.381 372.939H256.813L256.813 379.523Z" fill="#1C1A40"/>
<path d="M219.395 242.027C219.395 242.027 210.77 252.706 212.442 255.475C214.115 258.244 216.81 257.285 214.115 260.186C211.42 263.087 210.34 263.121 212.227 265.256C214.115 267.392 215.754 314.067 215.754 314.067L224.356 362.636L233.822 363.488C233.822 363.488 235.589 357.552 235.632 355.251C235.675 352.95 235.675 354.955 235.675 350.186C235.675 345.417 233.972 349.111 235.632 344.574C237.292 340.036 239.362 326.668 235.632 320.168C231.902 313.669 234.833 319.371 234.833 319.371L237.723 275.323L243.221 320.664C243.221 320.664 243.221 336.269 245.916 347.569L246.362 363.488L257.977 363.045C257.977 363.045 261.008 358.331 259.93 352.95C258.852 347.569 263.164 344.879 263.164 342.188C263.164 339.498 262.937 313.762 262.937 313.762L260.418 260.186C260.418 260.186 262.625 248.02 257.774 243.177C252.923 238.334 219.395 242.027 219.395 242.027Z" fill="#1C1A40"/>
<path d="M229.727 185.205L237.171 176.838L248.932 178.143L256.462 188.663C264.785 190.575 266.32 197.369 264.858 205.769C261.936 222.567 254.723 234.309 258.002 242.597C262.979 255.179 260.566 264.86 248.651 263.096C236.736 261.333 209.28 249.684 217.019 241.958C224.758 234.232 222.391 224.362 222.391 224.362L223.272 200.644C221.88 193.111 222.095 185.994 229.727 185.205L229.727 185.205Z" fill="#55B2E5"/>
<path d="M226.151 213.933L217.858 208.595C212.551 212.23 194.313 230.373 194.313 230.373L176.145 247.003C175.39 247.13 174.682 247.452 174.092 247.939C173.502 248.425 173.05 249.058 172.783 249.774C172.516 250.49 172.442 251.263 172.57 252.017C172.697 252.77 173.021 253.477 173.509 254.065C173.997 254.654 174.632 255.104 175.349 255.37C176.066 255.636 176.841 255.708 177.596 255.58C178.35 255.452 179.058 255.127 179.647 254.64C180.236 254.152 180.685 253.518 180.951 252.801L203.519 232.454L226.151 213.933Z" fill="#FFB6B6"/>
<path d="M236.055 188.684C237.331 189.526 238.405 190.639 239.202 191.943C239.998 193.247 240.497 194.71 240.663 196.228C240.828 197.747 240.657 199.283 240.16 200.727C239.664 202.172 238.854 203.49 237.79 204.586L233.454 209.053C233.454 209.053 212.498 232.978 206.504 235.716L191.499 245.963L183.423 239.6L196.516 226.077C196.516 226.077 213.47 213.693 213.588 209.003C213.66 206.131 217.529 197.871 221.646 191.596C222.4 190.459 223.371 189.482 224.503 188.72C225.635 187.958 226.907 187.427 228.246 187.156C229.584 186.886 230.963 186.882 232.303 187.144C233.643 187.406 234.918 187.929 236.055 188.684Z" fill="#55B2E5"/>
<path d="M256.631 165.961C258.887 159.647 255.588 152.703 249.263 150.451C242.938 148.2 235.983 151.493 233.728 157.808C231.472 164.122 234.771 171.065 241.096 173.317C247.421 175.568 254.376 172.275 256.631 165.961Z" fill="#FFB6B6"/>
<path d="M238.883 148.049C239.394 147.16 240.098 146.397 240.944 145.817C241.35 145.58 241.802 145.431 242.27 145.38C242.738 145.33 243.211 145.378 243.659 145.522C244.107 145.667 244.519 145.904 244.869 146.218C245.219 146.532 245.499 146.916 245.69 147.346C245.696 146.763 245.842 146.189 246.116 145.673C246.809 146.372 247.609 146.956 248.485 147.404L247.21 144.562C252.046 144.197 255.46 145.525 256.994 149.091C257.433 150.112 259.084 150.096 259.568 151.161C260.052 152.226 259.491 153.931 258.364 154.027C260.53 153.989 259.865 155.812 260.501 158.006C261.137 160.2 260.778 162.668 260.066 164.932C259.141 167.869 256.547 169.791 254.014 171.293C252.358 172.276 249.059 173.766 249.043 173.775C239.935 178.547 234.128 168.812 236.296 159.203C236.786 157.032 238.562 154.679 237.289 153.052C236.298 151.786 234.421 152.02 232.849 152.355C233.461 150.248 237.698 149.881 238.883 148.049Z" fill="#1C1A40"/>
<path d="M391.641 367.301C391.66 366.793 388.705 366.265 385.04 366.123C381.374 365.98 378.387 366.276 378.367 366.785C378.347 367.293 381.302 367.821 384.968 367.963C388.633 368.106 391.621 367.81 391.641 367.301Z" fill="#E6E6E6"/>
<path d="M433.688 371.012C433.708 370.504 430.753 369.976 427.088 369.834C423.422 369.691 420.435 369.987 420.415 370.496C420.395 371.004 423.35 371.532 427.016 371.674C430.681 371.817 433.669 371.521 433.688 371.012Z" fill="#3F3D56"/>
<path d="M374.649 373.21C374.669 372.701 371.714 372.174 368.049 372.031C364.383 371.888 361.396 372.185 361.376 372.693C361.356 373.201 364.311 373.729 367.977 373.872C371.642 374.014 374.629 373.718 374.649 373.21Z" fill="#FF6584"/>
<path d="M420.002 378.121C420.022 377.612 417.067 377.085 413.402 376.942C409.736 376.799 406.749 377.096 406.729 377.604C406.709 378.112 409.664 378.64 413.33 378.783C416.995 378.926 419.983 378.629 420.002 378.121Z" fill="#FF6584"/>
<path d="M353.99 374.525C353.994 374.067 352.676 373.685 351.046 373.672C349.417 373.658 348.093 374.018 348.089 374.476C348.086 374.933 349.403 375.315 351.033 375.328C352.662 375.342 353.986 374.982 353.99 374.525Z" fill="#E6E6E6"/>
<path d="M370.314 378.01C370.318 377.553 369 377.171 367.371 377.157C365.741 377.144 364.417 377.503 364.414 377.961C364.41 378.418 365.728 378.8 367.357 378.814C368.986 378.827 370.31 378.467 370.314 378.01Z" fill="#E6E6E6"/>
<path d="M343.656 378.208C343.66 377.751 342.342 377.369 340.713 377.355C339.084 377.342 337.76 377.702 337.756 378.159C337.752 378.616 339.07 378.998 340.699 379.012C342.328 379.025 343.652 378.666 343.656 378.208Z" fill="#3F3D56"/>
<path d="M399.692 373.536C399.696 373.079 398.378 372.697 396.749 372.684C395.12 372.67 393.796 373.03 393.792 373.487C393.788 373.945 395.106 374.326 396.735 374.34C398.365 374.354 399.689 373.994 399.692 373.536Z" fill="#E6E6E6"/>
<path d="M380.645 370.137C380.649 369.679 379.331 369.298 377.702 369.284C376.072 369.271 374.749 369.63 374.745 370.088C374.741 370.545 376.059 370.927 377.688 370.941C379.317 370.954 380.641 370.594 380.645 370.137Z" fill="#FF6584"/>
<path d="M412.278 368.399C412.282 367.941 410.964 367.559 409.335 367.546C407.705 367.532 406.381 367.892 406.378 368.35C406.374 368.807 407.691 369.189 409.321 369.202C410.95 369.216 412.274 368.856 412.278 368.399Z" fill="#3F3D56"/>
<path d="M388.267 378.23C388.27 377.772 386.953 377.391 385.323 377.377C383.694 377.363 382.37 377.723 382.366 378.181C382.362 378.638 383.68 379.02 385.309 379.033C386.939 379.047 388.263 378.687 388.267 378.23Z" fill="#3F3D56"/>
<path d="M144.016 367.121C144.036 366.612 141.34 366.095 137.994 365.965C134.648 365.834 131.92 366.141 131.9 366.649C131.88 367.157 134.576 367.675 137.922 367.805C141.268 367.935 143.996 367.629 144.016 367.121Z" fill="#E6E6E6"/>
<path d="M182.393 370.689C182.413 370.181 179.716 369.663 176.37 369.533C173.025 369.403 170.296 369.709 170.276 370.217C170.256 370.726 172.953 371.243 176.299 371.374C179.644 371.504 182.373 371.197 182.393 370.689Z" fill="#3F3D56"/>
<path d="M128.483 373.084C128.503 372.575 125.807 372.058 122.461 371.927C119.115 371.797 116.386 372.104 116.367 372.612C116.347 373.12 119.043 373.638 122.389 373.768C125.735 373.898 128.463 373.592 128.483 373.084Z" fill="#FF6584"/>
<path d="M169.87 376.842C169.89 376.334 167.194 375.816 163.848 375.686C160.502 375.556 157.774 375.862 157.754 376.371C157.734 376.879 160.43 377.397 163.776 377.527C167.122 377.657 169.851 377.351 169.87 376.842Z" fill="#FF6584"/>
<path d="M109.62 374.468C109.622 374.011 108.418 373.634 106.93 373.627C105.443 373.62 104.235 373.985 104.233 374.442C104.231 374.9 105.435 375.276 106.922 375.283C108.41 375.291 109.617 374.926 109.62 374.468Z" fill="#E6E6E6"/>
<path d="M124.509 377.899C124.511 377.442 123.307 377.065 121.82 377.058C120.332 377.051 119.125 377.416 119.123 377.873C119.12 378.33 120.324 378.707 121.812 378.714C123.299 378.721 124.507 378.356 124.509 377.899Z" fill="#E6E6E6"/>
<path d="M100.165 377.187C100.167 376.73 98.9632 376.353 97.4757 376.346C95.9882 376.339 94.7806 376.704 94.7784 377.161C94.7762 377.618 95.9803 377.995 97.4677 378.002C98.9552 378.009 100.163 377.644 100.165 377.187Z" fill="#3F3D56"/>
<path d="M151.344 373.327C151.346 372.869 150.142 372.493 148.654 372.486C147.167 372.478 145.959 372.843 145.957 373.301C145.955 373.758 147.159 374.135 148.646 374.142C150.134 374.149 151.342 373.784 151.344 373.327Z" fill="#E6E6E6"/>
<path d="M133.965 369.992C133.967 369.534 132.763 369.158 131.276 369.151C129.788 369.143 128.58 369.508 128.578 369.966C128.576 370.423 129.78 370.8 131.268 370.807C132.755 370.814 133.963 370.449 133.965 369.992Z" fill="#FF6584"/>
<path d="M162.854 368.147C162.857 367.69 161.653 367.313 160.165 367.306C158.678 367.299 157.47 367.664 157.468 368.121C157.466 368.578 158.67 368.955 160.157 368.962C161.645 368.969 162.852 368.604 162.854 368.147Z" fill="#3F3D56"/>
<path d="M140.899 378.056C140.902 377.599 139.698 377.222 138.21 377.215C136.723 377.208 135.515 377.573 135.513 378.03C135.511 378.488 136.715 378.864 138.202 378.871C139.69 378.879 140.897 378.514 140.899 378.056Z" fill="#3F3D56"/>
<path d="M427.778 325.491C419.319 325.491 411.138 322.475 404.71 316.986C402.565 315.154 400.28 311.968 397.918 307.517C396.411 304.651 395.567 301.483 395.448 298.248C395.329 295.012 395.938 291.792 397.23 288.822C395.984 290.087 394.607 291.216 393.12 292.188L392.368 292.687L392.325 291.788C392.297 291.203 392.282 290.619 392.282 290.054C392.282 286.725 394.804 283.347 393.641 280.27C388.738 267.3 373.188 254.41 395.725 234.337C397.81 232.48 395.025 228.767 395.025 225.958C395.025 198.425 424.991 157.123 445.051 176.025C456.76 187.059 481.156 194.897 492.546 210.243L492.697 210.698L492.252 210.878C489.976 211.833 487.579 212.469 485.129 212.769C487.741 213.301 490.407 213.524 493.072 213.433L493.485 213.419L493.586 213.82C494.577 217.79 495.078 221.866 495.077 225.958L495.075 226.4C495.066 229.508 495.713 232.583 496.974 235.424C498.235 238.266 500.081 240.81 502.393 242.891C506.045 246.215 508.963 250.262 510.962 254.775C512.96 259.287 513.995 264.165 514 269.099C514 274.936 510.026 282.598 506.693 287.998C505.848 289.373 504.702 290.54 503.341 291.41C501.98 292.28 500.439 292.832 498.835 293.023C497.314 293.214 495.771 293.069 494.313 292.599C492.855 292.129 491.518 291.345 490.398 290.302C491.976 293.469 494.032 296.375 496.494 298.919L496.949 299.387L496.384 299.715C490.957 302.874 484.787 304.538 478.505 304.536L478.137 304.535C468.599 304.535 459.546 308.223 453.298 314.656C449.981 318.067 446.015 320.783 441.633 322.643C437.25 324.504 432.54 325.472 427.778 325.491Z" fill="#55B2E5"/>
<path d="M415.261 380C415.107 380 414.959 379.944 414.843 379.844C414.727 379.743 414.651 379.604 414.63 379.453C414.603 379.262 411.946 360.136 414.332 334.716C416.535 311.24 423.611 277.427 444.807 249.656C444.857 249.589 444.921 249.533 444.993 249.491C445.066 249.448 445.146 249.421 445.229 249.409C445.312 249.398 445.397 249.403 445.478 249.424C445.56 249.446 445.636 249.483 445.703 249.534C445.769 249.585 445.826 249.648 445.868 249.721C445.91 249.793 445.937 249.873 445.948 249.956C445.96 250.04 445.954 250.124 445.932 250.205C445.911 250.286 445.873 250.362 445.822 250.429C424.809 277.959 417.791 311.525 415.603 334.835C413.231 360.107 415.867 379.084 415.894 379.273C415.907 379.363 415.9 379.456 415.874 379.543C415.848 379.631 415.803 379.712 415.743 379.781C415.683 379.85 415.609 379.905 415.526 379.943C415.443 379.981 415.352 380 415.261 380Z" fill="white"/>
<path d="M434.614 289.126C434.479 289.126 434.348 289.083 434.239 289.004C434.129 288.925 434.048 288.814 434.006 288.686C433.965 288.558 433.965 288.42 434.006 288.292C434.048 288.164 434.129 288.052 434.238 287.973C440.278 283.892 446.802 280.576 453.661 278.102C464.377 274.185 480.673 270.635 497.448 275.965C497.528 275.99 497.602 276.031 497.666 276.085C497.73 276.139 497.783 276.205 497.822 276.279C497.86 276.354 497.884 276.435 497.891 276.518C497.898 276.602 497.888 276.686 497.863 276.765C497.838 276.845 497.797 276.919 497.743 276.983C497.689 277.047 497.622 277.1 497.548 277.138C497.474 277.177 497.392 277.2 497.309 277.207C497.225 277.214 497.141 277.205 497.061 277.179C480.629 271.959 464.629 275.451 454.1 279.299C447.351 281.731 440.932 284.991 434.989 289.004C434.88 289.083 434.749 289.126 434.614 289.126Z" fill="white"/>
<path d="M404.96 213.858C404.95 213.723 404.983 213.589 405.054 213.475C405.126 213.361 405.231 213.272 405.356 213.221C405.481 213.17 405.619 213.16 405.75 213.192C405.881 213.225 405.998 213.297 406.085 213.4C410.597 219.12 414.38 225.378 417.345 232.03C422.03 242.418 426.751 258.388 422.634 275.476C422.614 275.558 422.579 275.635 422.53 275.703C422.481 275.771 422.418 275.828 422.347 275.872C422.275 275.916 422.196 275.946 422.113 275.959C422.03 275.972 421.945 275.968 421.864 275.949C421.782 275.929 421.705 275.894 421.637 275.844C421.569 275.795 421.512 275.733 421.468 275.661C421.424 275.59 421.395 275.51 421.382 275.427C421.369 275.344 421.373 275.26 421.393 275.178C425.425 258.44 420.784 242.76 416.181 232.553C413.266 226.008 409.547 219.85 405.109 214.222C405.022 214.119 404.97 213.992 404.96 213.858Z" fill="white"/>
<path d="M60.7018 314.656C54.4544 308.223 45.4011 304.535 35.8631 304.535L35.4952 304.536C29.2128 304.538 23.0426 302.874 17.6155 299.715L17.0507 299.387L17.5056 298.919C19.9681 296.375 22.0243 293.469 23.6021 290.302C22.4815 291.345 21.1449 292.129 19.687 292.599C18.2291 293.069 16.6855 293.214 15.1654 293.023C13.5606 292.832 12.0199 292.28 10.659 291.41C9.29806 290.54 8.15218 289.373 7.3073 287.998C3.9737 282.598 0 274.936 0 269.099C0.0051871 264.165 1.03993 259.287 3.03828 254.775C5.03662 250.262 7.95474 246.215 11.6066 242.891C13.9186 240.81 15.7652 238.266 17.0262 235.424C18.2871 232.583 18.9341 229.508 18.9249 226.4L18.923 225.958C18.9224 221.866 19.4233 217.79 20.4144 213.82L20.5151 213.419L20.9282 213.433C23.5927 213.524 26.2585 213.301 28.8707 212.769C26.4205 212.469 24.0235 211.833 21.7477 210.878L21.3032 210.698L21.454 210.243C32.8442 194.897 57.2398 187.059 68.9491 176.025C89.0091 157.123 118.975 198.425 118.975 225.958C118.975 228.767 116.19 232.48 118.275 234.337C140.812 254.41 125.262 267.299 120.359 280.27C119.196 283.347 121.718 286.725 121.718 290.054C121.718 290.619 121.703 291.203 121.675 291.788L121.632 292.687L120.88 292.188C119.393 291.216 118.016 290.087 116.77 288.822C118.062 291.792 118.671 295.012 118.552 298.248C118.433 301.483 117.589 304.651 116.082 307.517C113.72 311.968 111.435 315.154 109.29 316.986C102.42 322.855 93.5643 325.883 84.5327 325.45C75.5011 325.017 66.9765 321.155 60.7018 314.656L60.7018 314.656Z" fill="#55B2E5"/>
<path d="M98.739 380C98.8925 380 99.0409 379.944 99.1568 379.844C99.2728 379.743 99.3485 379.604 99.3701 379.453C99.3972 379.262 102.054 360.136 99.6679 334.716C97.4646 311.24 90.3891 277.427 69.1933 249.656C69.1427 249.589 69.0792 249.533 69.0067 249.491C68.9342 249.448 68.854 249.421 68.7708 249.409C68.6875 249.398 68.6029 249.403 68.5216 249.424C68.4404 249.446 68.3642 249.483 68.2973 249.534C68.2305 249.585 68.1744 249.648 68.1322 249.721C68.09 249.793 68.0626 249.873 68.0515 249.956C68.0404 250.04 68.0458 250.124 68.0675 250.205C68.0892 250.286 68.1267 250.362 68.1778 250.429C89.1905 277.959 96.209 311.525 98.3968 334.835C100.769 360.107 98.1331 379.084 98.1062 379.273C98.0934 379.363 98.1002 379.456 98.1261 379.543C98.152 379.631 98.1965 379.712 98.2565 379.781C98.3165 379.85 98.3906 379.905 98.4738 379.943C98.5571 379.981 98.6475 380 98.739 380Z" fill="white"/>
<path d="M79.3856 289.126C79.5204 289.126 79.6518 289.083 79.761 289.004C79.8701 288.925 79.9514 288.814 79.9931 288.686C80.0348 288.558 80.0349 288.42 79.9933 288.292C79.9516 288.164 79.8705 288.052 79.7614 287.973C73.7219 283.892 67.1974 280.576 60.3383 278.102C49.6223 274.185 33.3269 270.635 16.5512 275.965C16.3898 276.016 16.2555 276.129 16.1778 276.279C16.1 276.429 16.0852 276.604 16.1365 276.765C16.1878 276.926 16.3012 277.06 16.4515 277.138C16.6019 277.216 16.777 277.231 16.9383 277.179C33.3704 271.959 49.3703 275.451 59.8994 279.299C66.6482 281.731 73.068 284.991 79.0108 289.004C79.1197 289.083 79.2509 289.126 79.3856 289.126Z" fill="white"/>
<path d="M109.04 213.858C109.05 213.723 109.017 213.589 108.946 213.475C108.874 213.361 108.769 213.272 108.644 213.221C108.519 213.17 108.381 213.16 108.25 213.192C108.119 213.225 108.002 213.297 107.915 213.4C103.403 219.12 99.6203 225.378 96.6547 232.03C91.97 242.418 87.2491 258.388 91.3662 275.476C91.3856 275.558 91.4209 275.635 91.4702 275.703C91.5194 275.771 91.5816 275.828 91.6532 275.872C91.7247 275.916 91.8043 275.946 91.8872 275.959C91.9702 275.972 92.0549 275.968 92.1366 275.949C92.2182 275.929 92.2952 275.894 92.3631 275.844C92.431 275.795 92.4885 275.733 92.5322 275.661C92.5759 275.59 92.6051 275.51 92.618 275.427C92.6309 275.344 92.6273 275.26 92.6074 275.178C88.5749 258.44 93.2159 242.76 97.819 232.553C100.734 226.008 104.454 219.85 108.891 214.222C108.978 214.119 109.03 213.992 109.04 213.858Z" fill="white"/>
<path d="M355.999 33.4682C356.005 33.3762 355.983 33.2845 355.935 33.2062C355.887 33.1279 355.816 33.067 355.732 33.0322C355.647 32.9975 355.554 32.9906 355.466 33.0127C355.377 33.0348 355.298 33.0846 355.239 33.1551C352.192 37.072 349.638 41.3573 347.636 45.9124C344.472 53.0262 341.285 63.9625 344.065 75.6643C344.078 75.7202 344.102 75.7729 344.135 75.8194C344.168 75.8659 344.21 75.9054 344.258 75.9354C344.307 75.9655 344.36 75.9856 344.416 75.9946C344.472 76.0036 344.53 76.0013 344.585 75.9879C344.64 75.9745 344.692 75.9501 344.738 75.9163C344.784 75.8825 344.822 75.8399 344.852 75.7909C344.882 75.7419 344.901 75.6874 344.91 75.6307C344.919 75.574 344.916 75.516 344.903 75.4602C342.18 63.9982 345.314 53.2604 348.422 46.2707C350.39 41.7888 352.902 37.5721 355.898 33.7177C355.957 33.6474 355.992 33.56 355.999 33.4682Z" fill="white"/>
<path d="M207.184 18.2502C207.146 18.2246 207.117 18.1876 207.101 18.1447C207.085 18.1018 207.083 18.055 207.095 18.0112C207.108 17.9674 207.134 17.9288 207.169 17.9008C207.205 17.8729 207.249 17.8571 207.295 17.8557C209.77 17.8625 212.238 18.1762 214.643 18.7895C218.41 19.7332 223.686 21.842 227.428 26.5306C227.446 26.5529 227.46 26.5784 227.468 26.6058C227.476 26.6332 227.478 26.6618 227.475 26.69C227.472 26.7182 227.464 26.7455 227.45 26.7703C227.436 26.795 227.418 26.8168 227.395 26.8343C227.373 26.8519 227.348 26.8648 227.32 26.8724C227.293 26.8801 227.264 26.8822 227.236 26.8787C227.208 26.8753 227.18 26.8663 227.155 26.8523C227.13 26.8382 227.108 26.8195 227.09 26.7971C223.425 22.2047 218.243 20.1357 214.542 19.2085C212.177 18.6043 209.748 18.2949 207.313 18.2875C207.268 18.289 207.223 18.2759 207.184 18.2502Z" fill="white"/>
<path d="M186.184 84.072C186.146 84.0977 186.117 84.1346 186.101 84.1776C186.085 84.2205 186.083 84.2672 186.095 84.311C186.108 84.3548 186.134 84.3935 186.169 84.4214C186.205 84.4494 186.249 84.4652 186.295 84.4666C188.77 84.4597 191.238 84.1461 193.643 83.5328C197.41 82.5891 202.686 80.4802 206.428 75.7917C206.446 75.7694 206.46 75.7438 206.468 75.7165C206.476 75.6891 206.478 75.6605 206.475 75.6323C206.472 75.6041 206.464 75.5768 206.45 75.552C206.436 75.5272 206.418 75.5055 206.395 75.4879C206.373 75.4704 206.348 75.4574 206.32 75.4498C206.293 75.4422 206.264 75.4401 206.236 75.4435C206.208 75.447 206.18 75.456 206.155 75.47C206.13 75.484 206.108 75.5028 206.09 75.5252C202.425 80.1176 197.243 82.1866 193.542 83.1138C191.177 83.718 188.748 84.0273 186.313 84.0348C186.268 84.0333 186.223 84.0464 186.184 84.072Z" fill="white"/>
<path d="M103.168 88.1236C102.466 87.7797 101.916 87.19 101.622 86.4669C101.327 85.7438 101.31 84.9379 101.572 84.2027C101.834 83.4674 102.359 82.8543 103.045 82.4801C103.731 82.1058 104.531 81.9967 105.292 82.1734C106.054 82.3501 106.724 82.8003 107.174 83.4382C107.625 84.0762 107.824 84.8573 107.735 85.6327C107.646 86.4081 107.274 87.1237 106.69 87.643C106.107 88.1624 105.352 88.4493 104.57 88.449C104.084 88.4488 103.605 88.3375 103.168 88.1236ZM103.947 83.4316C103.708 83.5131 103.487 83.6411 103.298 83.8083C103.109 83.9754 102.955 84.1784 102.845 84.4054V84.4057C102.649 84.8059 102.598 85.2615 102.701 85.6949C102.804 86.1282 103.055 86.5125 103.41 86.7821C103.765 87.0518 104.202 87.1901 104.648 87.1736C105.094 87.157 105.52 86.9866 105.854 86.6914C106.189 86.3962 106.41 85.9944 106.48 85.5546C106.551 85.1148 106.466 84.6642 106.241 84.2796C106.016 83.8951 105.664 83.6003 105.246 83.4457C104.828 83.291 104.368 83.2861 103.947 83.4316V83.4316Z" fill="#E6E6E6"/>
<path d="M399.145 59.0082C398.356 59.01 397.594 58.7218 397.005 58.1986C396.415 57.6754 396.039 56.9538 395.948 56.1714C395.857 55.389 396.058 54.6006 396.512 53.9567C396.967 53.3127 397.642 52.8582 398.411 52.6799C399.179 52.5016 399.987 52.612 400.679 52.9899C401.371 53.3679 401.9 53.987 402.164 54.7292C402.428 55.4713 402.409 56.2846 402.111 57.0138C401.813 57.743 401.256 58.3372 400.547 58.6829C400.111 58.8959 399.631 59.0072 399.145 59.0082ZM399.141 53.8852C398.723 53.8852 398.316 54.021 397.983 54.2721C397.649 54.5231 397.406 54.8759 397.291 55.2769C397.175 55.678 397.194 56.1056 397.344 56.4951C397.494 56.8847 397.766 57.215 398.121 57.4362C398.475 57.6573 398.892 57.7573 399.308 57.721C399.725 57.6848 400.118 57.5142 400.428 57.2351C400.739 56.9559 400.95 56.5835 401.03 56.1739C401.11 55.7644 401.054 55.34 400.871 54.9649V54.9646C400.713 54.6412 400.467 54.3685 400.161 54.1777C399.855 53.9869 399.502 53.8856 399.141 53.8852V53.8852Z" fill="#E6E6E6"/>
<path d="M357.489 85.0146C357.628 84.2393 358.048 83.5422 358.669 83.0562C359.289 82.5701 360.068 82.3293 360.855 82.3796C361.642 82.4299 362.384 82.7677 362.937 83.3288C363.491 83.8898 363.819 84.6347 363.857 85.4213C363.896 86.208 363.643 86.9814 363.147 87.5939C362.652 88.2065 361.947 88.6153 361.169 88.7425C360.39 88.8697 359.592 88.7063 358.926 88.2834C358.261 87.8606 357.774 87.2079 357.56 86.45C357.428 85.983 357.404 85.4923 357.489 85.0146ZM362.539 85.9236C362.614 85.513 362.552 85.0894 362.364 84.7167C362.176 84.3441 361.872 84.0426 361.497 83.8579C361.123 83.6732 360.698 83.6153 360.287 83.693C359.877 83.7706 359.502 83.9796 359.221 84.2883C358.94 84.597 358.767 84.9887 358.729 85.4041C358.69 85.8196 358.788 86.2363 359.008 86.5912C359.228 86.9461 359.557 87.22 359.947 87.3714C360.336 87.5229 360.764 87.5437 361.167 87.4307L361.167 87.4307C361.514 87.3328 361.827 87.1396 362.069 86.8732C362.312 86.6068 362.475 86.2778 362.539 85.9236Z" fill="#E6E6E6"/>
</svg>
