<svg width="151" height="40" viewBox="0 0 151 40" fill="none" xmlns="http://www.w3.org/2000/svg">
<g clip-path="url(#clip0_1487_37435)">
<path d="M39.5635 17.5895H50.6518V39.7322H58.7724V17.5895H70.0689V10.5056H39.5635V17.5895Z" fill="#1D1D1B"/>
<path d="M36.9399 10.4455H28.7461V39.7322H36.9399V10.4455Z" fill="#1D1D1B"/>
<path d="M0.216797 10.4455V39.7322H8.41059V10.4455H0.216797Z" fill="#1D1D1B"/>
<path d="M20.7656 10.4455L8.41016 39.7322H16.8574L28.7397 10.4455H25.4792H20.7656Z" fill="#1D1D1B"/>
<path d="M108.758 10.4455H107.671H102.952L94.8202 29.724L86.6886 10.4455H81.975H78.7144H72.6885V39.7322H80.8821V15.7912L90.5967 39.7322H99.0437L108.758 15.7912V39.7322H116.952V10.4455H110.926H108.758Z" fill="#1D1D1B"/>
<path d="M32.8404 5.23101e-06C32.0485 0.0150808 31.2788 0.256859 30.6279 0.694995C29.977 1.13313 29.474 1.74811 29.1818 2.46275C28.8897 3.17738 28.8216 3.95984 28.986 4.71192C29.1503 5.46401 29.5399 6.15221 30.1059 6.6902C30.6718 7.22813 31.3888 7.59188 32.1669 7.73569C32.945 7.87957 33.7495 7.7972 34.4796 7.49888C35.2096 7.20051 35.8326 6.69951 36.2704 6.05878C36.7081 5.41803 36.9411 4.66607 36.9402 3.89725C36.9283 2.85298 36.4898 1.85598 35.7211 1.12525C34.9525 0.394513 33.9164 -0.0101977 32.8404 5.23101e-06Z" fill="#1D1D1B"/>
<path d="M142.631 25.4995C142.524 30.0034 139.416 33.0261 134.905 33.0261H134.736C132.308 32.9823 130.309 32.2226 128.952 30.8397C127.595 29.4568 126.897 27.4125 126.941 24.9856C126.889 23.9741 127.058 22.9633 127.437 22.0198C127.817 21.0765 128.399 20.2221 129.144 19.5131C129.89 18.8043 130.781 18.257 131.761 17.9076C132.74 17.5582 133.785 17.4146 134.826 17.4863C135.863 17.4508 136.898 17.6205 137.866 17.9851C138.834 18.3496 139.716 18.9015 140.457 19.6071C141.208 20.401 141.787 21.333 142.159 22.348C142.531 23.363 142.69 24.4402 142.626 25.5158L142.631 25.4995ZM143.267 12.4959C140.759 11.0891 137.908 10.3606 135.012 10.386C134.259 10.3878 133.507 10.4298 132.759 10.5117C128.361 10.9818 124.824 12.7637 122.245 15.8083C119.823 18.667 118.776 22.1543 119.047 26.456C119.148 29.4351 120.245 32.3013 122.172 34.6221C125.269 38.2953 129.493 40.0498 135.524 40.1428H135.592H135.659L136.442 40.0444C137.493 39.9305 138.536 39.7479 139.562 39.4978C142.638 38.7518 145.387 37.0655 147.401 34.6878C149.36 32.2899 150.467 29.3404 150.554 26.2811C150.819 20.0116 148.369 15.3491 143.273 12.4959" fill="#1D1D1B"/>
</g>
<defs>
<clipPath id="clip0_1487_37435">
<rect width="151" height="40" fill="white"/>
</clipPath>
</defs>
</svg>
