<svg width="200" height="22" viewBox="0 0 200 22" fill="none" xmlns="http://www.w3.org/2000/svg">
<path d="M5.9123 14.7266C6.55853 14.7266 7.08241 14.1947 7.08241 13.5386C7.08241 12.8825 6.55853 12.3506 5.9123 12.3506C5.26606 12.3506 4.74219 12.8825 4.74219 13.5386C4.74219 14.1947 5.26606 14.7266 5.9123 14.7266Z" fill="#21222E"/>
<path d="M10.9114 7.70658C11.8808 7.70658 12.6666 6.90875 12.6666 5.92458C12.6666 4.94041 11.8808 4.14258 10.9114 4.14258C9.94206 4.14258 9.15625 4.94041 9.15625 5.92458C9.15625 6.90875 9.94206 7.70658 10.9114 7.70658Z" fill="#21222E"/>
<path d="M15.9075 10.2437C16.8769 10.2437 17.6627 9.44586 17.6627 8.46169C17.6627 7.47752 16.8769 6.67969 15.9075 6.67969C14.9382 6.67969 14.1523 7.47752 14.1523 8.46169C14.1523 9.44586 14.9382 10.2437 15.9075 10.2437Z" fill="#21222E"/>
<path d="M20.8567 12.7827C21.8261 12.7827 22.6119 11.9849 22.6119 11.0007C22.6119 10.0166 21.8261 9.21875 20.8567 9.21875C19.8874 9.21875 19.1016 10.0166 19.1016 11.0007C19.1016 11.9849 19.8874 12.7827 20.8567 12.7827Z" fill="#21222E"/>
<path d="M15.9075 15.3199C16.8769 15.3199 17.6627 14.522 17.6627 13.5379C17.6627 12.5537 16.8769 11.7559 15.9075 11.7559C14.9382 11.7559 14.1523 12.5537 14.1523 13.5379C14.1523 14.522 14.9382 15.3199 15.9075 15.3199Z" fill="#21222E"/>
<path d="M25.8606 15.3199C26.83 15.3199 27.6158 14.522 27.6158 13.5379C27.6158 12.5537 26.83 11.7559 25.8606 11.7559C24.8913 11.7559 24.1055 12.5537 24.1055 13.5379C24.1055 14.522 24.8913 15.3199 25.8606 15.3199Z" fill="#21222E"/>
<path d="M25.8576 19.7481C26.5038 19.7481 27.0277 19.2162 27.0277 18.5601C27.0277 17.904 26.5038 17.3721 25.8576 17.3721C25.2114 17.3721 24.6875 17.904 24.6875 18.5601C24.6875 19.2162 25.2114 19.7481 25.8576 19.7481Z" fill="#21222E"/>
<path d="M30.8537 17.2647C31.4999 17.2647 32.0238 16.7328 32.0238 16.0767C32.0238 15.4206 31.4999 14.8887 30.8537 14.8887C30.2075 14.8887 29.6836 15.4206 29.6836 16.0767C29.6836 16.7328 30.2075 17.2647 30.8537 17.2647Z" fill="#21222E"/>
<path d="M30.8567 12.7827C31.8261 12.7827 32.6119 11.9849 32.6119 11.0007C32.6119 10.0166 31.8261 9.21875 30.8567 9.21875C29.8874 9.21875 29.1016 10.0166 29.1016 11.0007C29.1016 11.9849 29.8874 12.7827 30.8567 12.7827Z" fill="#21222E"/>
<path d="M25.8606 10.2437C26.83 10.2437 27.6158 9.44586 27.6158 8.46169C27.6158 7.47752 26.83 6.67969 25.8606 6.67969C24.8913 6.67969 24.1055 7.47752 24.1055 8.46169C24.1055 9.44586 24.8913 10.2437 25.8606 10.2437Z" fill="#21222E"/>
<path d="M20.8576 17.2647C21.5038 17.2647 22.0277 16.7328 22.0277 16.0767C22.0277 15.4206 21.5038 14.8887 20.8576 14.8887C20.2114 14.8887 19.6875 15.4206 19.6875 16.0767C19.6875 16.7328 20.2114 17.2647 20.8576 17.2647Z" fill="#21222E"/>
<path d="M30.8567 7.70658C31.8261 7.70658 32.6119 6.90875 32.6119 5.92458C32.6119 4.94041 31.8261 4.14258 30.8567 4.14258C29.8874 4.14258 29.1016 4.94041 29.1016 5.92458C29.1016 6.90875 29.8874 7.70658 30.8567 7.70658Z" fill="#21222E"/>
<path d="M35.8029 4.62795C36.4492 4.62795 36.973 4.09607 36.973 3.43995C36.973 2.78384 36.4492 2.25195 35.8029 2.25195C35.1567 2.25195 34.6328 2.78384 34.6328 3.43995C34.6328 4.09607 35.1567 4.62795 35.8029 4.62795Z" fill="#21222E"/>
<path d="M35.8029 14.7266C36.4492 14.7266 36.973 14.1947 36.973 13.5386C36.973 12.8825 36.4492 12.3506 35.8029 12.3506C35.1567 12.3506 34.6328 12.8825 34.6328 13.5386C34.6328 14.1947 35.1567 14.7266 35.8029 14.7266Z" fill="#21222E"/>
<path d="M20.8576 7.11233C21.5038 7.11233 22.0277 6.58044 22.0277 5.92433C22.0277 5.26821 21.5038 4.73633 20.8576 4.73633C20.2114 4.73633 19.6875 5.26821 19.6875 5.92433C19.6875 6.58044 20.2114 7.11233 20.8576 7.11233Z" fill="#21222E"/>
<path d="M15.9162 19.7481C16.5624 19.7481 17.0863 19.2162 17.0863 18.5601C17.0863 17.904 16.5624 17.3721 15.9162 17.3721C15.27 17.3721 14.7461 17.904 14.7461 18.5601C14.7461 19.2162 15.27 19.7481 15.9162 19.7481Z" fill="#21222E"/>
<path d="M10.9114 12.7827C11.8808 12.7827 12.6666 11.9849 12.6666 11.0007C12.6666 10.0166 11.8808 9.21875 10.9114 9.21875C9.94206 9.21875 9.15625 10.0166 9.15625 11.0007C9.15625 11.9849 9.94206 12.7827 10.9114 12.7827Z" fill="#21222E"/>
<path d="M5.91141 10.2437C6.88076 10.2437 7.66658 9.44586 7.66658 8.46169C7.66658 7.47752 6.88076 6.67969 5.91141 6.67969C4.94206 6.67969 4.15625 7.47752 4.15625 8.46169C4.15625 9.44586 4.94206 10.2437 5.91141 10.2437Z" fill="#EC0B43"/>
<path d="M0.964866 16.778C1.34673 16.778 1.65629 16.4637 1.65629 16.076C1.65629 15.6883 1.34673 15.374 0.964866 15.374C0.583 15.374 0.273438 15.6883 0.273438 16.076C0.273438 16.4637 0.583 16.778 0.964866 16.778Z" fill="#21222E"/>
<path d="M0.964866 11.7018C1.34673 11.7018 1.65629 11.3876 1.65629 10.9999C1.65629 10.6121 1.34673 10.2979 0.964866 10.2979C0.583 10.2979 0.273438 10.6121 0.273438 10.9999C0.273438 11.3876 0.583 11.7018 0.964866 11.7018Z" fill="#21222E"/>
<path d="M10.9102 16.7243C11.292 16.7243 11.6016 16.41 11.6016 16.0223C11.6016 15.6346 11.292 15.3203 10.9102 15.3203C10.5283 15.3203 10.2188 15.6346 10.2188 16.0223C10.2188 16.41 10.5283 16.7243 10.9102 16.7243Z" fill="#21222E"/>
<path d="M10.9102 1.6042C11.292 1.6042 11.6016 1.2899 11.6016 0.902197C11.6016 0.514492 11.292 0.200195 10.9102 0.200195C10.5283 0.200195 10.2188 0.514492 10.2188 0.902197C10.2188 1.2899 10.5283 1.6042 10.9102 1.6042Z" fill="#21222E"/>
<path d="M20.8594 21.8005C21.2413 21.8005 21.5508 21.4862 21.5508 21.0985C21.5508 20.7108 21.2413 20.3965 20.8594 20.3965C20.4775 20.3965 20.168 20.7108 20.168 21.0985C20.168 21.4862 20.4775 21.8005 20.8594 21.8005Z" fill="#21222E"/>
<path d="M5.91018 4.14228C6.29204 4.14228 6.60161 3.82799 6.60161 3.44028C6.60161 3.05258 6.29204 2.73828 5.91018 2.73828C5.52831 2.73828 5.21875 3.05258 5.21875 3.44028C5.21875 3.82799 5.52831 4.14228 5.91018 4.14228Z" fill="#21222E"/>
<path d="M15.9102 4.14228C16.292 4.14228 16.6016 3.82799 16.6016 3.44028C16.6016 3.05258 16.292 2.73828 15.9102 2.73828C15.5283 2.73828 15.2188 3.05258 15.2188 3.44028C15.2188 3.82799 15.5283 4.14228 15.9102 4.14228Z" fill="#21222E"/>
<path d="M20.8594 21.8005C21.2413 21.8005 21.5508 21.4862 21.5508 21.0985C21.5508 20.7108 21.2413 20.3965 20.8594 20.3965C20.4775 20.3965 20.168 20.7108 20.168 21.0985C20.168 21.4862 20.4775 21.8005 20.8594 21.8005Z" fill="#21222E"/>
<path d="M45.75 9.16377C46.1319 9.16377 46.4415 8.84947 46.4415 8.46177C46.4415 8.07406 46.1319 7.75977 45.75 7.75977C45.3682 7.75977 45.0586 8.07406 45.0586 8.46177C45.0586 8.84947 45.3682 9.16377 45.75 9.16377Z" fill="#21222E"/>
<path d="M35.8047 19.2624C36.1866 19.2624 36.4961 18.9481 36.4961 18.5604C36.4961 18.1727 36.1866 17.8584 35.8047 17.8584C35.4228 17.8584 35.1133 18.1727 35.1133 18.5604C35.1133 18.9481 35.4228 19.2624 35.8047 19.2624Z" fill="#21222E"/>
<path d="M40.802 7.70658C41.7714 7.70658 42.5572 6.90875 42.5572 5.92458C42.5572 4.94041 41.7714 4.14258 40.802 4.14258C39.8327 4.14258 39.0469 4.94041 39.0469 5.92458C39.0469 6.90875 39.8327 7.70658 40.802 7.70658Z" fill="#21222E"/>
<path d="M35.802 10.2437C36.7714 10.2437 37.5572 9.44586 37.5572 8.46169C37.5572 7.47752 36.7714 6.67969 35.802 6.67969C34.8327 6.67969 34.0469 7.47752 34.0469 8.46169C34.0469 9.44586 34.8327 10.2437 35.802 10.2437Z" fill="#21222E"/>
<path d="M40.8008 16.778C41.1827 16.778 41.4922 16.4637 41.4922 16.076C41.4922 15.6883 41.1827 15.374 40.8008 15.374C40.4189 15.374 40.1094 15.6883 40.1094 16.076C40.1094 16.4637 40.4189 16.778 40.8008 16.778Z" fill="#21222E"/>
<path d="M40.8068 12.1885C41.4531 12.1885 41.9769 11.6566 41.9769 11.0005C41.9769 10.3444 41.4531 9.8125 40.8068 9.8125C40.1606 9.8125 39.6367 10.3444 39.6367 11.0005C39.6367 11.6566 40.1606 12.1885 40.8068 12.1885Z" fill="#21222E"/>
<path d="M25.8555 4.14228C26.2374 4.14228 26.5469 3.82799 26.5469 3.44028C26.5469 3.05258 26.2374 2.73828 25.8555 2.73828C25.4736 2.73828 25.1641 3.05258 25.1641 3.44028C25.1641 3.82799 25.4736 4.14228 25.8555 4.14228Z" fill="#21222E"/>
<path d="M40.8008 1.6042C41.1827 1.6042 41.4922 1.2899 41.4922 0.902197C41.4922 0.514492 41.1827 0.200195 40.8008 0.200195C40.4189 0.200195 40.1094 0.514492 40.1094 0.902197C40.1094 1.2899 40.4189 1.6042 40.8008 1.6042Z" fill="#21222E"/>
<path d="M45.75 4.14228C46.1319 4.14228 46.4415 3.82799 46.4415 3.44028C46.4415 3.05258 46.1319 2.73828 45.75 2.73828C45.3682 2.73828 45.0586 3.05258 45.0586 3.44028C45.0586 3.82799 45.3682 4.14228 45.75 4.14228Z" fill="#21222E"/>
<path d="M60.3737 7.38241C60.5333 7.00441 60.5865 6.6804 60.4801 6.4644C60.4801 6.3024 60.2674 6.19441 60.0546 6.08641C59.5227 5.87041 59.0973 6.08641 58.8313 6.78841L56.9698 11.4864L54.3104 6.62641C54.1509 6.35641 53.9913 6.08641 53.7786 6.08641C53.5658 5.97841 53.2467 5.97841 53.034 6.08641C52.8744 6.24841 52.7148 6.4644 52.7148 6.7344C52.7148 7.00441 52.7148 7.27441 52.9276 7.54441L56.1188 13.2684C56.0124 13.6464 55.8529 13.9704 55.6933 14.1324C55.5337 14.2944 55.3742 14.3484 55.1614 14.3484H54.8955C54.7891 14.3484 54.6828 14.3484 54.5764 14.2404L54.2573 14.1324C53.7254 13.9704 53.4595 14.1324 53.2999 14.5644C53.0871 15.1044 53.2999 15.4284 53.8318 15.7524C54.1509 15.9144 54.6296 16.0224 55.1614 16.0224C55.8529 16.0224 56.3847 15.7524 56.757 15.2664C57.2889 14.8884 57.6612 14.0784 58.0867 13.1064L60.4801 7.32841L60.3737 7.38241ZM63.0331 16.0224C63.299 16.0224 63.5649 15.9144 63.6713 15.6984C63.8309 15.5364 63.9373 15.3204 63.9373 15.0504V11.7024H68.2986V15.0504C68.2986 15.3204 68.2986 15.5904 68.4581 15.6984C68.6177 15.9144 68.8304 15.9684 69.1496 15.9684C69.4155 15.9684 69.6814 15.9684 69.7878 15.6984C69.9474 15.5364 70.0537 15.3204 70.0537 15.0504V6.95041C70.0537 6.68041 69.9474 6.41041 69.7878 6.30241C69.6282 6.08641 69.4155 6.03241 69.1496 6.03241C68.8304 6.03241 68.6177 6.03241 68.4581 6.30241C68.2986 6.46441 68.2454 6.68041 68.2454 6.95041V10.0824H63.8309V6.95041C63.8309 6.68041 63.7245 6.41041 63.5649 6.30241C63.4054 6.08641 63.1926 6.03241 62.9267 6.03241C62.6608 6.03241 62.3948 6.03241 62.2353 6.30241C62.1289 6.46441 62.0225 6.68041 62.0225 6.95041V15.0504C62.0225 15.3204 62.1289 15.5904 62.2353 15.6984C62.3948 15.9144 62.6608 15.9684 62.9267 15.9684L63.0331 16.0224ZM73.5109 16.0224C73.7768 16.0224 74.0428 15.8064 74.3619 15.4824L78.8296 9.27241V15.0504C78.8296 15.3204 78.8296 15.5904 79.0423 15.6984C79.2551 15.9144 79.4678 15.9684 79.7869 15.9684C80.0529 15.9684 80.3188 15.9684 80.4252 15.6984C80.5847 15.5364 80.6379 15.3204 80.6379 15.0504V6.95041C80.6379 6.41041 80.372 6.03241 79.7869 6.03241C79.4678 6.03241 79.2551 6.19441 78.9359 6.57241L74.5214 12.7824V6.95041C74.5214 6.68041 74.4151 6.41041 74.2555 6.30241C74.0959 6.08641 73.8832 6.03241 73.6173 6.03241C73.2981 6.03241 73.0854 6.03241 72.9258 6.30241C72.7663 6.46441 72.7131 6.68041 72.7131 6.95041V15.0504C72.7131 15.3204 72.8195 15.5904 72.979 15.7524C73.1386 15.9144 73.3513 15.9684 73.6173 15.9684L73.5109 16.0224ZM88.7223 10.6224C89.0414 10.4604 89.2542 10.1904 89.5201 9.86641C89.786 9.32641 89.8924 9.00241 89.8924 8.51641C89.8924 6.78841 88.6691 5.81641 86.2757 5.81641C85.4247 5.81641 84.6801 5.92441 84.0419 6.08641C83.51 6.08641 83.1909 6.51841 83.1909 7.05841V14.8884C83.1909 15.4284 83.4036 15.7524 83.9355 15.8604C84.6269 16.0224 85.4247 16.0764 86.3289 16.0764C88.9882 16.0764 90.2647 14.9964 90.2647 12.9984C90.2647 12.4584 90.1052 11.9184 89.7329 11.4864C89.4669 11.0544 89.0946 10.7844 88.6691 10.5684L88.7223 10.6224ZM86.2757 10.1904H84.8397V7.49041H86.1162C87.4458 7.49041 88.0309 7.92241 88.0309 8.78641C88.0309 9.65041 87.499 10.1364 86.2757 10.1364V10.1904ZM88.0309 14.2404C87.6586 14.4024 87.1267 14.5104 86.4353 14.5104H84.8397V11.5404H86.4353C87.8181 11.5404 88.5628 12.0804 88.5628 13.0524C88.5628 13.5924 88.35 13.9704 88.0309 14.1324V14.2404ZM98.9342 15.7524C99.0937 15.5904 99.1469 15.4284 99.1469 15.2124C99.1469 14.8884 99.0406 14.6724 98.881 14.5644C98.7214 14.4024 98.5087 14.3484 98.2427 14.3484H94.2537V11.6484H97.3386C97.6045 11.6484 97.8704 11.6484 97.9768 11.4324C98.1364 11.3244 98.1896 11.1084 98.1896 10.8924C98.1896 10.6224 98.1896 10.3524 97.9768 10.2444C97.8173 10.1364 97.6045 10.0284 97.3386 10.0284H94.2537V7.65241H98.0832C98.3491 7.65241 98.6151 7.65241 98.7214 7.43641C98.881 7.27441 98.9874 7.11241 98.9874 6.89641C98.9874 6.57241 98.881 6.35641 98.7214 6.24841C98.5619 6.08641 98.3491 6.03241 98.0832 6.03241H93.2964C93.0836 6.03241 92.7645 6.03241 92.6581 6.30241C92.4986 6.46441 92.4454 6.68041 92.4454 6.95041V15.0504C92.4454 15.3204 92.4454 15.5904 92.7113 15.6984C92.8177 15.9144 93.0304 15.9684 93.2432 15.9684H98.1896C98.4555 15.9684 98.7214 15.9684 98.8278 15.7524H98.9342ZM107.71 9.16441C107.71 8.08441 107.391 7.22041 106.646 6.7344C106.114 6.1944 105.051 5.97841 103.987 5.97841C103.136 5.97841 102.391 6.0864 101.753 6.1944C101.221 6.3024 100.955 6.6264 100.955 7.27441V15.1044C100.955 15.3744 100.955 15.6444 101.168 15.7524C101.328 15.9684 101.54 16.0224 101.859 16.0224C102.125 16.0224 102.391 16.0224 102.498 15.7524C102.657 15.5904 102.764 15.3744 102.764 15.1044V12.5664H103.934C104.997 12.5664 105.902 12.3504 106.593 11.7564C107.285 11.2164 107.657 10.3524 107.657 9.21841L107.71 9.16441ZM102.764 7.65241L103.827 7.54441C105.21 7.54441 105.848 8.08441 105.848 9.16441C105.848 10.4064 105.157 10.9464 103.827 10.9464C103.295 10.9464 103.03 10.9464 102.764 10.8384V7.59841V7.65241ZM115.688 13.8624C114.997 14.2944 114.305 14.4024 113.667 14.4024C112.869 14.4024 112.231 14.1864 111.699 13.5384C111.167 12.9984 110.901 12.0804 110.901 11.0004C110.901 9.92041 111.167 9.11041 111.646 8.46241C112.444 7.38241 113.773 7.22041 115.475 7.92241C116.007 8.13841 116.433 8.03041 116.539 7.65241C116.805 7.22041 116.699 6.84241 116.22 6.57241C115.688 6.03241 114.731 5.87041 113.561 5.87041C112.178 5.87041 111.061 6.4104 110.263 7.27441C109.465 8.24641 109.04 9.43441 109.04 11.0544C109.04 12.6744 109.412 13.8624 110.103 14.8344C110.954 15.6984 112.071 16.1844 113.561 16.1844C114.731 16.1844 115.688 15.9144 116.433 15.3204C116.699 15.1044 116.858 14.8884 116.965 14.6184C116.965 14.4024 116.965 14.1864 116.805 13.9704C116.592 13.6464 116.273 13.5924 115.741 13.8624H115.688ZM125.953 6.03241C125.634 6.03241 125.421 6.19441 125.102 6.57241L120.688 12.7824V6.95041C120.688 6.68041 120.581 6.41041 120.422 6.30241C120.209 6.08641 119.996 6.03241 119.73 6.03241C119.411 6.03241 119.198 6.03241 119.039 6.30241C118.879 6.46441 118.826 6.68041 118.826 6.95041V15.0504C118.826 15.3204 118.826 15.5904 119.039 15.7524C119.198 15.9144 119.411 15.9684 119.677 15.9684C119.943 15.9684 120.209 15.8064 120.528 15.4284L124.996 9.27241V15.0504C124.996 15.3204 124.996 15.5904 125.208 15.6984C125.368 15.9144 125.581 15.9684 125.9 15.9684C126.166 15.9684 126.432 15.9684 126.538 15.6984C126.698 15.5364 126.751 15.3204 126.751 15.0504V6.95041C126.751 6.41041 126.432 6.03241 125.847 6.03241H125.953ZM136.803 6.84241C136.803 6.57241 136.697 6.30241 136.537 6.30241C136.378 6.08641 136.165 6.03241 135.899 6.03241H129.251C128.985 6.03241 128.719 6.03241 128.612 6.24841C128.453 6.35641 128.4 6.57241 128.4 6.78841C128.4 7.05841 128.4 7.32841 128.559 7.43641C128.719 7.59841 128.932 7.65241 129.197 7.65241H131.644V15.0504C131.644 15.3204 131.75 15.5904 131.91 15.6984C132.07 15.9144 132.282 15.9684 132.601 15.9684C132.867 15.9684 133.133 15.9684 133.24 15.6984C133.399 15.5364 133.506 15.3204 133.506 15.0504V7.65241H135.899C136.165 7.65241 136.431 7.65241 136.537 7.43641C136.697 7.27441 136.803 7.05841 136.803 6.89641V6.84241ZM144.249 14.4024H140.154V11.7024H143.239C143.505 11.7024 143.771 11.5944 143.877 11.4324C144.037 11.3244 144.143 11.1084 144.143 10.8924C144.143 10.6224 144.037 10.3524 143.877 10.2444C143.717 10.1364 143.505 10.0284 143.239 10.0284H140.154V7.65241H144.037C144.303 7.65241 144.568 7.65241 144.675 7.43641C144.834 7.27441 144.888 7.11241 144.888 6.89641C144.888 6.57241 144.781 6.35641 144.622 6.24841C144.462 6.08641 144.249 6.03241 143.983 6.03241H139.197C138.931 6.03241 138.665 6.03241 138.558 6.30241C138.452 6.46441 138.346 6.68041 138.346 6.95041V15.0504C138.346 15.3204 138.452 15.5904 138.612 15.6984C138.824 15.9144 139.037 15.9684 139.356 15.9684H144.249C144.462 15.9684 144.675 15.9684 144.781 15.7524C144.994 15.5904 145.1 15.4284 145.1 15.2124C145.1 14.8884 144.994 14.6724 144.834 14.5644C144.675 14.4024 144.462 14.3484 144.303 14.3484L144.249 14.4024ZM154.089 6.84241C154.089 6.57241 153.983 6.30241 153.876 6.30241C153.717 6.08641 153.504 6.03241 153.238 6.03241H146.536C146.27 6.03241 146.111 6.03241 146.005 6.24841C145.792 6.35641 145.685 6.57241 145.685 6.78841C145.685 7.05841 145.792 7.32841 145.951 7.43641C145.951 7.59841 146.217 7.65241 146.483 7.65241H148.93V15.0504C148.93 15.3204 148.93 15.5904 149.143 15.6984C149.302 15.9144 149.568 15.9684 149.834 15.9684C150.1 15.9684 150.366 15.9684 150.472 15.6984C150.632 15.5364 150.738 15.3204 150.738 15.0504V7.65241H153.185C153.451 7.65241 153.717 7.65241 153.823 7.43641C153.929 7.27441 154.036 7.05841 154.036 6.89641L154.089 6.84241ZM167.545 15.0504V6.95041C167.545 6.41041 167.279 6.03241 166.694 6.03241C166.322 6.03241 166.003 6.19441 165.79 6.57241L161.429 12.7284V6.95041C161.429 6.68041 161.322 6.41041 161.163 6.30241C161.003 6.08641 160.79 6.03241 160.471 6.03241C160.205 6.03241 159.939 6.03241 159.833 6.30241C159.674 6.46441 159.62 6.68041 159.62 6.95041V15.0504C159.62 15.3204 159.62 15.5904 159.833 15.7524C159.993 15.9144 160.205 15.9684 160.471 15.9684C160.737 15.9684 161.003 15.8064 161.269 15.4284L165.684 9.38041V15.1584C165.684 15.4284 165.843 15.6984 166.003 15.8064C166.162 16.0224 166.375 16.0764 166.694 16.0764C166.907 16.0764 167.12 16.0764 167.226 15.8064C167.439 15.6444 167.492 15.4284 167.492 15.1584L167.545 15.0504ZM176.587 6.03241H169.992C169.779 6.03241 169.566 6.03241 169.46 6.24841C169.247 6.35641 169.194 6.57241 169.194 6.78841C169.194 7.05841 169.194 7.32841 169.407 7.43641C169.513 7.59841 169.726 7.65241 169.939 7.65241H172.438V15.0504C172.438 15.3204 172.438 15.5904 172.651 15.6984C172.864 15.9144 173.077 15.9684 173.396 15.9684C173.662 15.9684 173.928 15.9684 174.034 15.6984C174.194 15.5364 174.3 15.3204 174.3 15.0504V7.65241H176.746C177.012 7.65241 177.278 7.65241 177.385 7.43641C177.544 7.27441 177.651 7.05841 177.651 6.89641C177.651 6.57241 177.544 6.35641 177.385 6.24841C177.225 6.08641 177.012 6.03241 176.746 6.03241H176.587ZM187.224 6.03241C186.852 6.03241 186.586 6.19441 186.32 6.57241L183.554 11.1084L180.735 6.62641C180.523 6.08641 180.204 5.97841 179.831 5.97841C179.565 5.97841 179.299 5.9784 179.193 6.1944C179.087 6.3564 178.98 6.62641 178.98 6.89641V14.9964C178.98 15.5364 179.246 15.9144 179.831 15.9144C180.363 15.9144 180.682 15.5904 180.682 14.9964V9.48841L182.65 12.7284C182.81 12.9984 183.076 13.1604 183.448 13.1604C183.767 13.1604 183.98 12.9984 184.246 12.6204L186.214 9.38041V15.0504C186.214 15.3204 186.214 15.5904 186.426 15.6984C186.639 15.9144 186.852 15.9684 187.171 15.9684C187.437 15.9684 187.703 15.9684 187.809 15.6984C187.969 15.5364 188.075 15.3204 188.075 15.0504V6.95041C188.075 6.68041 188.075 6.41041 187.916 6.30241C187.756 6.08641 187.543 6.03241 187.277 6.03241H187.224ZM198.394 7.32841C197.489 6.35641 196.266 5.87041 194.883 5.87041C193.5 5.87041 192.224 6.41041 191.373 7.32841C190.522 8.30041 190.15 9.48841 190.15 11.0004C190.15 12.5124 190.575 13.7004 191.426 14.6724C192.224 15.6444 193.394 16.1304 194.883 16.1304C196.266 16.1304 197.436 15.5904 198.287 14.6724C199.085 13.7544 199.51 12.5124 199.51 11.0004C199.51 9.54241 199.085 8.30041 198.287 7.32841H198.394ZM196.904 13.5384C196.372 14.0784 195.734 14.4564 194.883 14.4564C193.926 14.4564 193.288 14.1324 192.756 13.5384C192.224 12.8904 192.011 12.0264 192.011 11.0004C192.011 9.97441 192.277 9.11041 192.756 8.46241C193.288 7.92241 193.926 7.54441 194.883 7.54441C195.681 7.54441 196.372 7.86841 196.851 8.46241C197.383 9.11041 197.596 9.97441 197.596 11.0004C197.596 12.0804 197.436 12.8904 196.904 13.5384Z" fill="#21222E"/>
</svg>
